<svg width="46" height="46" viewBox="0 0 46 46" fill="none" xmlns="http://www.w3.org/2000/svg">
<path d="M22.6 45.7002C10.2 45.7002 0.0999756 35.6002 0.0999756 23.2002C0.0999756 10.8002 10.2 0.700195 22.6 0.700195C35 0.700195 45.1 10.8002 45.1 23.2002C45.1 35.6002 35 45.7002 22.6 45.7002Z" fill="black"/>
<path d="M22.6 43.2002C33.6457 43.2002 42.6 34.2459 42.6 23.2002C42.6 12.1545 33.6457 3.2002 22.6 3.2002C11.5543 3.2002 2.59998 12.1545 2.59998 23.2002C2.59998 34.2459 11.5543 43.2002 22.6 43.2002Z" fill="#FFFF26"/>
<path d="M37.7999 23.2C37.7999 31.6 30.9999 38.4 22.5999 38.4C14.1999 38.4 7.3999 31.6 7.3999 23.2C7.3999 14.8 14.1999 8 22.5999 8C30.9999 8 37.7999 14.8 37.7999 23.2Z" fill="#FF951C"/>
<path d="M22.5999 37.5004C30.829 37.5004 37.4999 31.0981 37.4999 23.2004C37.4999 15.3027 30.829 8.90039 22.5999 8.90039C14.3709 8.90039 7.69995 15.3027 7.69995 23.2004C7.69995 31.0981 14.3709 37.5004 22.5999 37.5004Z" fill="#FFD91A"/>
<path d="M23.4999 11.4006L26.7999 18.2006L28.5999 18.5006L34.1999 19.3006C35.1999 19.4006 35.3999 20.1006 34.6999 20.8006L30.5999 24.7006L29.2999 26.0006L29.5999 27.8006L30.5999 33.4006C30.7999 34.4006 30.1999 34.9006 29.2999 34.4006L24.2999 31.8006L22.5999 30.9006L20.8999 31.8006L15.8999 34.4006C14.9999 34.9006 14.3999 34.5006 14.4999 33.5006L15.4999 27.8006L15.9999 26.0006L14.6999 24.7006L10.6999 20.8006C9.99994 20.1006 10.1999 19.4006 11.1999 19.3006L16.7999 18.5006L18.5999 18.2006L19.3999 16.5006L21.8999 11.4006C22.2999 10.5006 22.9999 10.5006 23.4999 11.2006V11.4006Z" fill="#FF951C"/>
<path d="M23.5 10.5998L26.8 17.3998L28.6 17.6998L34.2 18.4998C35.2 18.5998 35.4 19.2998 34.7 19.9998L30.6 23.8998L29.3 25.1998L29.6 26.9998L30.6 32.5998C30.8 33.5998 30.2 34.0998 29.3 33.5998L24.3 30.9998L22.6 30.0998L20.9 30.9998L15.9 33.5998C15 34.0998 14.4 33.6998 14.5 32.6998L15.5 26.9998L15.8 25.1998L14.5 23.8998L10.5 19.9998C9.79999 19.2998 9.99999 18.5998 11 18.4998L16.6 17.6998L18.4 17.3998L19.2 15.6998L21.7 10.5998C22.1 9.69981 22.8 9.69981 23.3 10.3998L23.5 10.5998Z" fill="#FFFF26"/>
<path d="M34.3 18.4005L28.7 17.6005L26.9 17.3005L24.3 12.0005L23.6 10.6005L23.5 10.5005C23 9.70046 22.3 9.80046 21.9 10.7005L20.8 13.0005L19.2 16.3005L18.6 17.5005L17 17.7005H16.8L11.2 18.5005C10.5 18.6005 10.2 19.0005 10.3 19.4005C13.2 21.0005 17.7 22.1005 22.7 22.1005C27.8 22.1005 32.4 21.0005 35.3 19.3005C35.3 18.8005 35 18.5005 34.3 18.4005Z" fill="#FFFDBF"/>
<path d="M3.29996 24.3002C3.29996 13.3002 12.2 4.30019 23.3 4.30019C30.4 4.30019 36.6 8.00019 40.1 13.5002C36.7 7.40019 30.1 3.2002 22.6 3.2002C11.6 3.2002 2.59998 12.1002 2.59998 23.2002C2.59998 27.2002 3.79996 30.9002 5.79996 34.0002C4.19996 31.1002 3.29996 27.8002 3.29996 24.3002Z" fill="#FFFDBF"/>
<path d="M21.9999 40.8004C32.9999 40.8004 41.9999 31.9004 41.9999 20.8004C41.9999 20.0004 41.8999 19.2004 41.8999 18.4004C42.2999 19.9004 42.4999 21.6004 42.4999 23.2004C42.4999 34.2004 33.5999 43.2004 22.4999 43.2004C12.2999 43.2004 3.89995 35.5004 2.69995 25.6004C4.79995 34.3004 12.6999 40.8004 21.9999 40.8004Z" fill="#FFD91A"/>
</svg>
