<svg width="46" height="40" viewBox="0 0 46 40" fill="none" xmlns="http://www.w3.org/2000/svg">
<path d="M22 39.7004C5.89997 35.0004 1.79997 24.3004 0.799974 19.9004C-0.600026 13.7004 0.899976 7.60039 4.59998 4.30039C7.39998 1.70039 10.6 0.400391 14 0.400391C17.7 0.400391 20.8 1.90039 22.8 3.30039C24.8 1.90039 27.8 0.400391 31.6 0.400391C35 0.400391 38.2 1.70039 41 4.30039C44.7 7.60039 46.2 13.8004 44.8 19.9004C43.8 24.3004 39.7 35.0004 23.6 39.7004L22.9 39.9004L22 39.7004Z" fill="black"/>
<path d="M22.7 37.1999C44.1 30.9999 45.8 12.1999 39.2 6.19991C32.6 0.199909 25.5 4.09991 22.7 6.59991C19.9 3.99991 12.9 0.199909 6.19997 6.19991C-0.40003 12.1999 1.29999 30.9999 22.7 37.1999Z" fill="#FF003B"/>
<path d="M22.8 32.6006C8.19996 28.9006 2.79996 20.0006 2.89996 13.1006C1.79996 21.2006 6.89998 32.7006 22.7 37.2006C37.1 33.0006 42.6 23.1006 42.6 15.3006C41.6 21.8006 35.9 29.2006 22.8 32.6006Z" fill="#FF2676"/>
<path d="M26.3 21.6008C38.4 20.7008 43.4 13.2008 38.4 7.70076C32.9 1.70076 25.3 5.40076 22.7 7.70076C20.2 5.40076 12.6 1.40075 7.69997 7.30075C2.49997 13.7008 11.8 22.6008 26.3 21.6008Z" fill="#FF4D77"/>
<path d="M36.4 12.3007C35.3 14.0007 32.7 14.3007 30.5 13.0007C28.4 11.6007 27.5 9.10067 28.6 7.40067C29.7 5.70067 32.3 5.40067 34.5 6.70067C36.7 8.00067 37.5 10.5007 36.4 12.3007Z" fill="white"/>
<path d="M26.9 12.0008C26.3 12.6008 25.2 12.5008 24.5 11.8008C23.8 11.1008 23.7 10.0008 24.3 9.40081C24.9 8.80081 26 8.90081 26.7 9.60081C27.4 10.3008 27.5 11.4008 26.9 12.0008Z" fill="white"/>
</svg>
