<svg width="167" height="69" viewBox="0 0 167 69" fill="none" xmlns="http://www.w3.org/2000/svg">
<path d="M125.8 12C130 8.89995 136.8 11.1999 136.8 18.5999C138.8 14.4999 147.5 15.5 147.1 22.4C149.8 20.6 153.6 22.1999 153.4 26.0999C157.1 24.0999 163.8 28.2 162.3 34.2C160.3 33.6 158 33.9 156 35.5C154.8 31 150 29.4999 145.8 29.7999C142.5 29.9999 139.8 32.4999 138.7 35.0999C136.9 33.8999 134.5 33.6999 131.8 34.2999C127.2 35.2999 124.6 38.1999 124 42.0999C122 38.2999 116.3 39.9 115.7 43.4C114.2 38.2 109.1 36.6999 105.6 37.0999C102.6 37.3999 98.7 39.0999 97.6 43.5C95.1 41.0999 91.1 39.3 86.7 39.7C83.4 40 80.3 41.7 78.5 44.2C78 39.8 69.5 38.0999 66.3 42.2999C64.8 40.4999 62.2 39.1 59.3 38.9C56.5 38.7 52.7 39.4 50.5 42C49.9 37.9 44.2 35.4 40.3 36.9C39.1 32.2 29.8 28.7999 25.4 36.5C24.9 31.7999 21.2 30 17.9 30C12.9 30 10.2 33.8 10.1 36.2C8.90001 35.5 7.60002 35.3999 6.30002 35.5999C4.70002 29.6999 11.7 25.1999 15.6 27.7999C14.6 21.7999 21.9 19.2999 25.3 23.2999C23.9 17.8999 29.5 14.1 33.9 15.7C35.4 10.1 44.7 6.89993 49.4 13.0999C50.1 9.09993 54 6.49993 58.8 7.09993C61 7.39993 62.8 8.49998 63.9 9.89998C65.6 5.39998 72.6 4.39998 74.9 8.39998C76.4 0.299975 90.1 -3.40004 95.6 5.19996C97.4 4.29996 99.7 3.99996 102.4 4.69996C106.6 5.79996 108.8 9.29995 109.1 12C111.6 4.69995 123.5 5.99995 125.8 12Z" fill="#D98448"/>
<path d="M25.4 36.4002C29.7 28.7002 39 32.1002 40.3 36.8002C44.2 35.3002 49.9 37.8002 50.5 41.9002C52.7 39.3002 56.5 38.6002 59.3 38.8002C62.1 39.0002 64.7 40.4002 66.3 42.2002C69.5 38.1002 78 39.7001 78.5 44.1001C80.4 41.6001 83.4 39.9001 86.7 39.6001C91.1 39.2001 95.1 41.0002 97.6 43.4002C98.7 39.0002 102.6 37.3002 105.6 37.0002C109.1 36.6002 114.2 38.1002 115.7 43.3002C116.4 39.8002 122 38.1002 124 42.0002C124.6 38.0002 127.2 35.2002 131.8 34.2002C134.5 33.6002 136.9 33.8002 138.7 35.0002C139.7 32.5002 142.3 30.2002 145.3 29.8002C142.8 27.4002 138 27.7001 136.6 30.6001C136.6 23.2001 129.8 21.0002 125.6 24.0002C123.3 18.0002 111.4 16.7002 108.9 24.0002C108.6 21.3002 106.4 17.8002 102.2 16.7002C99.6 16.0002 97.3 16.3002 95.4 17.2002C89.9 8.70018 76.1 12.4002 74.7 20.4002C72.4 16.4002 65.4 17.3002 63.7 21.9002C62.6 20.5002 60.8 19.4001 58.6 19.1001C53.8 18.4001 49.9 21.1001 49.2 25.1001C44.5 18.9001 35.2 22.2002 33.7 27.7002C29.4 26.1002 23.7 29.9002 25.1 35.3002L25 35.2002C25.2 35.5002 25.3 35.9002 25.4 36.4002Z" fill="#B85E37"/>
<path d="M88.3 52.6998C119.338 52.6998 144.5 45.8945 144.5 37.4998C144.5 29.1051 119.338 22.2998 88.3 22.2998C57.2616 22.2998 32.1 29.1051 32.1 37.4998C32.1 45.8945 57.2616 52.6998 88.3 52.6998Z" fill="#663629"/>
<path d="M162.3 34.0998C164.9 34.8998 166.9 37.4998 166.7 40.9998C166.3 46.6998 162.6 48.3998 158.8 47.7998C158.8 48.7998 158.6 49.8998 158.1 50.9998C156.3 54.7998 150.1 56.2998 144.1 53.6998C142.6 61.6998 132.1 62.0998 128 59.4998C125.9 64.1998 119.1 65.4998 115.5 62.4998C113.9 67.0998 105.5 68.0998 102.6 63.3998C99.9 67.3998 95.2 69.3998 87.6 68.5998C83.4 68.1998 80.8 66.7998 79.3 65.0998C72.8 71.2998 61.8 67.2998 60.1 61.8998C58.4 64.2998 54.4 65.7998 49.5 64.8998C46.8 64.3998 44 62.5998 42.8 59.8998C38.8 64.6998 29.1 62.1998 28.4 56.3998C23.7 58.0998 15.1 57.5998 12.4 53.4998C11.4 52.0998 10.9 50.6998 10.7 49.2998C4.7 49.7998 0.800002 47.0998 0.600002 42.5998C0.400002 38.9998 3.30001 35.8998 6.40001 35.3998C7.70001 35.1998 9 35.2998 10.2 35.9998C10.4 33.6998 13 29.7998 18 29.7998C21.3 29.7998 25 31.5998 25.5 36.2998C29.8 28.5998 39.1 31.9998 40.4 36.6998C44.3 35.1998 50 37.6998 50.6 41.7998C52.8 39.1998 56.6 38.4998 59.4 38.6998C62.2 38.8998 64.8 40.2998 66.4 42.0998C69.6 37.9998 78.1 39.5998 78.6 43.9998C80.5 41.4998 83.5 39.7998 86.8 39.4998C91.2 39.0998 95.2 40.8998 97.7 43.2998C98.8 38.8998 102.7 37.1998 105.7 36.8998C109.2 36.4998 114.3 37.9998 115.8 43.1998C116.5 39.6998 122.1 37.9998 124.1 41.8998C124.7 37.8998 127.3 35.0998 131.9 34.0998C134.6 33.4998 137 33.6998 138.8 34.8998C139.8 32.2998 142.6 29.7998 145.9 29.5998C150.1 29.2998 154.9 30.6998 156.1 35.2998C158 33.7998 160.3 33.4998 162.3 34.0998Z" fill="#E8984D"/>
<path d="M162.8 34.2998C162.4 39.4998 158.9 41.0998 155.3 40.5998C155.3 41.5998 155.1 42.5998 154.6 43.5998C152.9 47.2998 147 48.6998 141.3 46.0998C139.9 53.6998 129.9 54.0998 126 51.5998C124 56.0998 117.5 57.2998 114 54.4998C112.5 58.8998 104.5 59.7998 101.7 55.2998C99.1 59.0998 94.6 60.9998 87.4 60.2998C83.4 59.8998 81 58.5998 79.5 56.8998C73.3 62.7998 62.8 58.8998 61.2 53.7998C59.5 56.0998 55.7 57.4998 51.1 56.6998C48.5 56.1998 45.9 54.4998 44.7 51.8998C40.9 56.4998 31.6 54.0998 31 48.5998C26.5 50.1998 18.4 49.7998 15.8 45.8998C14.9 44.4998 14.4 43.1998 14.1 41.8998C8.5 42.2998 4.90001 39.8998 4.50001 35.8998C2.20001 37.0998 0.400006 39.5998 0.500006 42.4998C0.700006 46.9998 4.6 49.6998 10.6 49.1998C10.8 50.4998 11.4 51.8998 12.3 53.3998C15 57.4998 23.6 57.9998 28.3 56.2998C29 62.0998 38.7 64.4998 42.7 59.7998C43.9 62.4998 46.7 64.2998 49.4 64.7998C54.3 65.6998 58.3 64.1998 60 61.7998C61.7 67.1998 72.7 71.1998 79.2 64.9998C80.7 66.6998 83.3 68.0998 87.5 68.4998C95.1 69.2998 99.8 67.2998 102.5 63.2998C105.5 67.9998 113.8 67.0998 115.4 62.3998C119.1 65.3998 125.9 63.9998 127.9 59.3998C132 61.9998 142.5 61.4998 144 53.5998C150 56.2998 156.2 54.7998 158 50.8998C158.5 49.7998 158.7 48.6998 158.7 47.6998C162.5 48.2998 166.2 46.5998 166.6 40.8998C166.9 37.6998 165.2 35.2998 162.8 34.2998Z" fill="#D98448"/>
<path d="M23.1 37.7994C23 37.6994 22.8 37.5994 22.7 37.4994C22.3 37.0994 21.8 36.8994 21.3 36.7994C21.5 36.2994 21.6 35.7994 21.5 35.2994C21.3 33.9994 20.9 33.1994 19.9 32.3994C19.1 31.7994 18 31.8994 17 31.9994C16.2 32.0994 15.4 32.6994 14.8 33.2994C13.4 34.5994 12.6 36.7994 13.6 38.4994C14.4 39.8994 16.2 40.3994 17.7 40.0994C17.7 40.4994 17.7 40.9994 17.9 41.3994C18.2 41.9994 18.3 42.1994 18.7 42.6994C19.1 43.1994 19.9 43.3994 20.5 43.3994C20.7 43.3994 21.2 43.4994 20.6 43.3994C21.7 43.6994 22.9 43.1994 23.5 42.1994C23.9 41.4994 23.9 40.7994 23.9 39.9994C23.9 39.3994 23.8 38.7994 23.5 38.3994C23.5 38.1994 23.3 37.9994 23.1 37.7994Z" fill="#F2B46D"/>
<path d="M41.8 43.6994C41.7 43.5994 41.7 43.5994 41.6 43.5994C41.3 43.2994 41 42.9994 40.6 42.7994C40.3 41.7994 39.6 40.9994 38.7 40.3994C38.1 39.9994 37.3 39.7994 36.5 39.8994C36.5 39.6994 36.5 39.4994 36.5 39.2994C36.4 38.1994 36 37.3994 35.3 36.4994C34.1 35.1994 31.8 35.1994 30.6 36.4994C29.7 37.3994 29.6 38.5994 30.1 39.5994C29.9 40.4994 30.2 41.3994 30.8 42.0994C31.3 42.6994 32.3 42.8994 33 42.8994C32.6 43.7994 32.5 44.8994 32.8 45.7994C33.3 47.5994 35 48.2994 36.6 48.1994C37.2 48.2994 37.8 48.2994 38.5 48.2994H38.6C39.6 48.6994 40.8 48.5994 41.7 47.6994C42.8 46.6994 43 44.6994 41.8 43.6994Z" fill="#F2B46D"/>
<path d="M56.4 42.5994C55.4 42.7994 54.4 43.2995 53.6 43.8995C53.4 43.6995 53.1 43.5995 52.8 43.4995C54 43.9995 53.3 43.6995 53 43.4995C52.3 43.0995 51.7 42.9995 50.9 42.8995C50.3 42.7995 49.5 43.0995 48.9 43.3995C48.3 43.7995 47.5 44.4995 47.4 45.2995C47.3 46.0995 47.3 46.2994 47.4 47.0994C47.5 48.0994 48.6 48.8995 49.5 49.1995C49.8 49.2995 50.1 49.2995 50.4 49.2995H50.5C51.2 49.4995 51.7 49.3995 52.3 49.1995C52.5 49.5995 52.8 49.9995 53.1 50.2995C53.5 51.1995 54.2 51.9995 55.3 52.2995C57.3 52.9995 59.8 52.5995 61.4 51.3995C63.9 49.4995 64.8 46.2995 62.6 43.8995C61.2 42.2995 58.4 42.1994 56.4 42.5994Z" fill="#F2B46D"/>
<path d="M44.4 39.2998C43.3 39.2998 42.3 40.2998 42.3 41.3998C42.3 42.5998 43.3 43.4998 44.4 43.4998C45.5 43.4998 46.5 42.4998 46.5 41.3998C46.5 40.1998 45.5 39.2998 44.4 39.2998Z" fill="#F2B46D"/>
<path d="M99 49.7998C98 49.7998 97.1 50.6998 97.1 51.6998C97.1 52.6998 98 53.5998 99 53.5998C100 53.5998 100.9 52.6998 100.9 51.6998C101 50.6998 100.1 49.7998 99 49.7998Z" fill="#F2B46D"/>
<path d="M25.5 43.7999C24.6 44.0999 24.1 45.0999 24.8 45.8999C25.5 46.5999 26.6 46.0999 26.8 45.2999C26.8 45.2999 26.8 45.2999 26.9 45.1999C27.5 44.3999 26.3 43.1999 25.5 43.7999Z" fill="#F2B46D"/>
<path d="M75 46.6996C74.2 46.3996 73.6 46.1996 72.8 46.0996C72 46.0996 71.2 46.3996 70.5 46.7996C68.7 47.7996 67.7 50.2996 68.9 52.0996C69.3 52.6996 69.7 53.0997 70.3 53.3997C70.7 53.8997 71.3 54.1997 71.9 54.3997C72.8 54.5997 73.6 54.3996 74.5 53.9996L74.6 53.8997C75.2 53.3997 75.3 53.2996 74.8 53.6996C75.1 53.4996 75.4 53.2996 75.6 53.0996C76.5 52.2996 77 51.3996 77.1 50.0996C77.2 48.7996 76.2 47.2996 75 46.6996Z" fill="#F2B46D"/>
<path d="M94.8 46.3998C93.5 45.0998 91.7 44.4998 90 44.2998C87.8 44.0998 85.9 44.6997 84.6 46.5997C84.4 46.7997 84.3 47.0998 84.2 47.2998C83.2 46.8998 82 46.7998 81 46.9998C80.8 46.9998 80.5 47.0998 80.3 47.1998C78.8 47.6998 77.8 49.2998 78 50.8998C78.2 52.5998 79.2 53.9998 81 54.3998C82.5 54.6998 83.9 54.2998 85.1 53.3998C85.9 54.1998 86.9 54.8997 88.1 55.0997C88.4 55.1997 88.7 55.1998 89 55.1998C89.7 55.2998 90.3 55.2997 91 55.0997C91.1 55.0997 91.2 55.0997 91.3 55.0997C95.4 55.1997 97.7 49.2998 94.8 46.3998Z" fill="#F2B46D"/>
<path d="M111 43.4997C111 43.2997 111 43.1997 110.9 42.9997C110.6 42.1997 109.8 41.3997 108.9 41.4997C107.9 41.5997 107 41.9997 106.4 42.8997C106.1 43.3997 106 43.9997 106.1 44.4997C104.4 44.5997 103 45.8997 103 47.5997C103 47.6997 102.9 47.8997 102.9 47.9997C102.7 49.2997 103.2 50.7997 104.7 51.0997C105.6 51.2997 106.4 51.3997 107.3 51.1997C109 50.8997 110 49.2997 110.1 47.6997C110.1 47.2997 110 46.7997 109.8 46.4997C110.6 45.9997 111.1 45.1997 111 44.2997C111 44.2997 111 44.2997 111 44.1997C111.1 43.8997 111 43.2997 111 43.4997Z" fill="#F2B46D"/>
<path d="M142.1 38.9995C141.4 38.9995 140.8 39.1995 140.3 39.5995C140.3 39.4995 140.3 39.4995 140.2 39.3995C139.9 38.5995 140.1 39.1995 140.2 39.3995C140.1 38.9995 139.8 38.4995 139.6 38.0995C138.4 36.2995 136.5 35.5995 134.4 35.8995C135.6 35.6995 134.2 35.8995 133.8 35.9995C133.2 36.1995 132.6 36.4995 132.1 36.9995C131.2 37.8995 130.8 39.2995 131.1 40.5995C131.1 40.6995 131.1 40.7995 131.1 40.8995C130.6 40.8995 130.1 40.8995 129.7 41.0995C128.8 41.3995 128.3 41.8995 127.7 42.4995C127.4 42.3995 127.1 42.2995 126.7 42.2995C125.1 42.2995 123.8 43.4995 123.5 44.9995C123.2 44.6995 122.8 44.4995 122.5 44.2995C121.4 43.6995 120.3 43.5995 119.1 43.8995C117.8 44.1995 116.8 45.4995 116.8 46.8995C116.4 47.4995 116.4 48.3995 116.5 49.0995C116.7 49.8995 117.3 50.5995 118 50.9995C118.8 51.4995 119.8 51.6995 120.7 51.5995C121.7 51.4995 123 51.1995 123.7 50.3995C124.1 49.8995 124.5 49.3995 124.7 48.6995C124.7 48.4995 124.8 48.3995 124.8 48.1995C125.4 48.5995 126 48.8995 126.8 48.8995C127.3 48.8995 127.8 48.7995 128.2 48.5995C128.4 48.6995 128.6 48.7995 128.7 48.8995C129 49.3995 129.6 49.9995 130.2 50.0995C131.1 50.1995 131.8 50.3995 132.7 50.1995C134 49.8995 134.9 48.6995 135.3 47.4995C135.5 47.0995 135.5 46.5995 135.5 46.1995C136.1 46.1995 136.7 46.0995 137.3 45.9995C138.3 45.7995 139.2 45.0995 139.8 44.2995C140.3 44.8995 141.1 45.2995 142 45.2995C143.6 45.2995 145 43.8995 145 42.2995C145 40.6995 143.8 38.9995 142.1 38.9995Z" fill="#F2B46D"/>
<path d="M152.5 34.0996C152 33.0996 151.1 32.5996 150.1 32.1996C149.3 31.8996 148.1 31.7996 147.3 32.0996C145.9 32.5996 144.9 33.6996 144.9 35.2996C144.9 35.8996 145.1 36.4996 145.4 36.8996C145.5 37.5996 145.7 38.0996 146.2 38.6996C146.5 39.0996 147 39.3996 147.4 39.5996C148.3 39.9996 149.4 40.3996 150.4 39.9996C151.6 39.4996 152.4 38.6996 152.9 37.4996C153.1 36.2996 153 35.0996 152.5 34.0996Z" fill="#F2B46D"/>
<path d="M162.3 34.0998C164.9 34.8998 166.9 37.4998 166.7 40.9998C166.3 46.6998 162.6 48.3998 158.8 47.7998C158.8 48.7998 158.6 49.8998 158.1 50.9998C156.3 54.7998 150.1 56.2998 144.1 53.6998C142.6 61.6998 132.1 62.0998 128 59.4998C125.9 64.1998 119.1 65.4998 115.5 62.4998C113.9 67.0998 105.5 68.0998 102.6 63.3998C99.9 67.3998 95.2 69.3998 87.6 68.5998C83.4 68.1998 80.8 66.7998 79.3 65.0998C72.8 71.2998 61.8 67.2998 60.1 61.8998C58.4 64.2998 54.4 65.7998 49.5 64.8998C46.8 64.3998 44 62.5998 42.8 59.8998C38.8 64.6998 29.1 62.1998 28.4 56.3998C23.7 58.0998 15.1 57.5998 12.4 53.4998C11.4 52.0998 10.9 50.6998 10.7 49.2998C4.7 49.7998 0.800002 47.0998 0.600002 42.5998C0.400002 38.9998 3.30001 35.8998 6.40001 35.3998C7.70001 35.1998 9 35.2998 10.2 35.9998C10.4 33.6998 13 29.7998 18 29.7998C21.3 29.7998 25 31.5998 25.5 36.2998C29.8 28.5998 39.1 31.9998 40.4 36.6998C44.3 35.1998 50 37.6998 50.6 41.7998C52.8 39.1998 56.6 38.4998 59.4 38.6998C62.2 38.8998 64.8 40.2998 66.4 42.0998C69.6 37.9998 78.1 39.5998 78.6 43.9998C80.5 41.4998 83.5 39.7998 86.8 39.4998C91.2 39.0998 95.2 40.8998 97.7 43.2998C98.8 38.8998 102.7 37.1998 105.7 36.8998C109.2 36.4998 114.3 37.9998 115.8 43.1998C116.5 39.6998 122.1 37.9998 124.1 41.8998C124.7 37.8998 127.3 35.0998 131.9 34.0998C134.6 33.4998 137 33.6998 138.8 34.8998C139.8 32.2998 142.6 29.7998 145.9 29.5998C150.1 29.2998 154.9 30.6998 156.1 35.2998C158 33.7998 160.3 33.4998 162.3 34.0998Z" fill="#E8984D"/>
<path d="M162.8 34.2998C162.4 39.4998 158.9 41.0998 155.3 40.5998C155.3 41.5998 155.1 42.5998 154.6 43.5998C152.9 47.2998 147 48.6998 141.3 46.0998C139.9 53.6998 129.9 54.0998 126 51.5998C124 56.0998 117.5 57.2998 114 54.4998C112.5 58.8998 104.5 59.7998 101.7 55.2998C99.1 59.0998 94.6 60.9998 87.4 60.2998C83.4 59.8998 81 58.5998 79.5 56.8998C73.3 62.7998 62.8 58.8998 61.2 53.7998C59.5 56.0998 55.7 57.4998 51.1 56.6998C48.5 56.1998 45.9 54.4998 44.7 51.8998C40.9 56.4998 31.6 54.0998 31 48.5998C26.5 50.1998 18.4 49.7998 15.8 45.8998C14.9 44.4998 14.4 43.1998 14.1 41.8998C8.5 42.2998 4.90001 39.8998 4.50001 35.8998C2.20001 37.0998 0.400006 39.5998 0.500006 42.4998C0.700006 46.9998 4.6 49.6998 10.6 49.1998C10.8 50.4998 11.4 51.8998 12.3 53.3998C15 57.4998 23.6 57.9998 28.3 56.2998C29 62.0998 38.7 64.4998 42.7 59.7998C43.9 62.4998 46.7 64.2998 49.4 64.7998C54.3 65.6998 58.3 64.1998 60 61.7998C61.7 67.1998 72.7 71.1998 79.2 64.9998C80.7 66.6998 83.3 68.0998 87.5 68.4998C95.1 69.2998 99.8 67.2998 102.5 63.2998C105.5 67.9998 113.8 67.0998 115.4 62.3998C119.1 65.3998 125.9 63.9998 127.9 59.3998C132 61.9998 142.5 61.4998 144 53.5998C150 56.2998 156.2 54.7998 158 50.8998C158.5 49.7998 158.7 48.6998 158.7 47.6998C162.5 48.2998 166.2 46.5998 166.6 40.8998C166.9 37.6998 165.2 35.2998 162.8 34.2998Z" fill="#D98448"/>
<path d="M23.1 37.7994C23 37.6994 22.8 37.5994 22.7 37.4994C22.3 37.0994 21.8 36.8994 21.3 36.7994C21.5 36.2994 21.6 35.7994 21.5 35.2994C21.3 33.9994 20.9 33.1994 19.9 32.3994C19.1 31.7994 18 31.8994 17 31.9994C16.2 32.0994 15.4 32.6994 14.8 33.2994C13.4 34.5994 12.6 36.7994 13.6 38.4994C14.4 39.8994 16.2 40.3994 17.7 40.0994C17.7 40.4994 17.7 40.9994 17.9 41.3994C18.2 41.9994 18.3 42.1994 18.7 42.6994C19.1 43.1994 19.9 43.3994 20.5 43.3994C20.7 43.3994 21.2 43.4994 20.6 43.3994C21.7 43.6994 22.9 43.1994 23.5 42.1994C23.9 41.4994 23.9 40.7994 23.9 39.9994C23.9 39.3994 23.8 38.7994 23.5 38.3994C23.5 38.1994 23.3 37.9994 23.1 37.7994Z" fill="#F2B46D"/>
<path d="M41.8 43.6994C41.7 43.5994 41.7 43.5994 41.6 43.5994C41.3 43.2994 41 42.9994 40.6 42.7994C40.3 41.7994 39.6 40.9994 38.7 40.3994C38.1 39.9994 37.3 39.7994 36.5 39.8994C36.5 39.6994 36.5 39.4994 36.5 39.2994C36.4 38.1994 36 37.3994 35.3 36.4994C34.1 35.1994 31.8 35.1994 30.6 36.4994C29.7 37.3994 29.6 38.5994 30.1 39.5994C29.9 40.4994 30.2 41.3994 30.8 42.0994C31.3 42.6994 32.3 42.8994 33 42.8994C32.6 43.7994 32.5 44.8994 32.8 45.7994C33.3 47.5994 35 48.2994 36.6 48.1994C37.2 48.2994 37.8 48.2994 38.5 48.2994H38.6C39.6 48.6994 40.8 48.5994 41.7 47.6994C42.8 46.6994 43 44.6994 41.8 43.6994Z" fill="#F2B46D"/>
<path d="M56.4 42.5994C55.4 42.7994 54.4 43.2995 53.6 43.8995C53.4 43.6995 53.1 43.5995 52.8 43.4995C54 43.9995 53.3 43.6995 53 43.4995C52.3 43.0995 51.7 42.9995 50.9 42.8995C50.3 42.7995 49.5 43.0995 48.9 43.3995C48.3 43.7995 47.5 44.4995 47.4 45.2995C47.3 46.0995 47.3 46.2994 47.4 47.0994C47.5 48.0994 48.6 48.8995 49.5 49.1995C49.8 49.2995 50.1 49.2995 50.4 49.2995H50.5C51.2 49.4995 51.7 49.3995 52.3 49.1995C52.5 49.5995 52.8 49.9995 53.1 50.2995C53.5 51.1995 54.2 51.9995 55.3 52.2995C57.3 52.9995 59.8 52.5995 61.4 51.3995C63.9 49.4995 64.8 46.2995 62.6 43.8995C61.2 42.2995 58.4 42.1994 56.4 42.5994Z" fill="#F2B46D"/>
<path d="M44.4 39.2998C43.3 39.2998 42.3 40.2998 42.3 41.3998C42.3 42.5998 43.3 43.4998 44.4 43.4998C45.5 43.4998 46.5 42.4998 46.5 41.3998C46.5 40.1998 45.5 39.2998 44.4 39.2998Z" fill="#F2B46D"/>
<path d="M99 49.7998C98 49.7998 97.1 50.6998 97.1 51.6998C97.1 52.6998 98 53.5998 99 53.5998C100 53.5998 100.9 52.6998 100.9 51.6998C101 50.6998 100.1 49.7998 99 49.7998Z" fill="#F2B46D"/>
<path d="M25.5 43.7999C24.6 44.0999 24.1 45.0999 24.8 45.8999C25.5 46.5999 26.6 46.0999 26.8 45.2999C26.8 45.2999 26.8 45.2999 26.9 45.1999C27.5 44.3999 26.3 43.1999 25.5 43.7999Z" fill="#F2B46D"/>
<path d="M75 46.6996C74.2 46.3996 73.6 46.1996 72.8 46.0996C72 46.0996 71.2 46.3996 70.5 46.7996C68.7 47.7996 67.7 50.2996 68.9 52.0996C69.3 52.6996 69.7 53.0997 70.3 53.3997C70.7 53.8997 71.3 54.1997 71.9 54.3997C72.8 54.5997 73.6 54.3996 74.5 53.9996L74.6 53.8997C75.2 53.3997 75.3 53.2996 74.8 53.6996C75.1 53.4996 75.4 53.2996 75.6 53.0996C76.5 52.2996 77 51.3996 77.1 50.0996C77.2 48.7996 76.2 47.2996 75 46.6996Z" fill="#F2B46D"/>
<path d="M94.8 46.3998C93.5 45.0998 91.7 44.4998 90 44.2998C87.8 44.0998 85.9 44.6997 84.6 46.5997C84.4 46.7997 84.3 47.0998 84.2 47.2998C83.2 46.8998 82 46.7998 81 46.9998C80.8 46.9998 80.5 47.0998 80.3 47.1998C78.8 47.6998 77.8 49.2998 78 50.8998C78.2 52.5998 79.2 53.9998 81 54.3998C82.5 54.6998 83.9 54.2998 85.1 53.3998C85.9 54.1998 86.9 54.8997 88.1 55.0997C88.4 55.1997 88.7 55.1998 89 55.1998C89.7 55.2998 90.3 55.2997 91 55.0997C91.1 55.0997 91.2 55.0997 91.3 55.0997C95.4 55.1997 97.7 49.2998 94.8 46.3998Z" fill="#F2B46D"/>
<path d="M111 43.4997C111 43.2997 111 43.1997 110.9 42.9997C110.6 42.1997 109.8 41.3997 108.9 41.4997C107.9 41.5997 107 41.9997 106.4 42.8997C106.1 43.3997 106 43.9997 106.1 44.4997C104.4 44.5997 103 45.8997 103 47.5997C103 47.6997 102.9 47.8997 102.9 47.9997C102.7 49.2997 103.2 50.7997 104.7 51.0997C105.6 51.2997 106.4 51.3997 107.3 51.1997C109 50.8997 110 49.2997 110.1 47.6997C110.1 47.2997 110 46.7997 109.8 46.4997C110.6 45.9997 111.1 45.1997 111 44.2997C111 44.2997 111 44.2997 111 44.1997C111.1 43.8997 111 43.2997 111 43.4997Z" fill="#F2B46D"/>
<path d="M142.1 38.9995C141.4 38.9995 140.8 39.1995 140.3 39.5995C140.3 39.4995 140.3 39.4995 140.2 39.3995C139.9 38.5995 140.1 39.1995 140.2 39.3995C140.1 38.9995 139.8 38.4995 139.6 38.0995C138.4 36.2995 136.5 35.5995 134.4 35.8995C135.6 35.6995 134.2 35.8995 133.8 35.9995C133.2 36.1995 132.6 36.4995 132.1 36.9995C131.2 37.8995 130.8 39.2995 131.1 40.5995C131.1 40.6995 131.1 40.7995 131.1 40.8995C130.6 40.8995 130.1 40.8995 129.7 41.0995C128.8 41.3995 128.3 41.8995 127.7 42.4995C127.4 42.3995 127.1 42.2995 126.7 42.2995C125.1 42.2995 123.8 43.4995 123.5 44.9995C123.2 44.6995 122.8 44.4995 122.5 44.2995C121.4 43.6995 120.3 43.5995 119.1 43.8995C117.8 44.1995 116.8 45.4995 116.8 46.8995C116.4 47.4995 116.4 48.3995 116.5 49.0995C116.7 49.8995 117.3 50.5995 118 50.9995C118.8 51.4995 119.8 51.6995 120.7 51.5995C121.7 51.4995 123 51.1995 123.7 50.3995C124.1 49.8995 124.5 49.3995 124.7 48.6995C124.7 48.4995 124.8 48.3995 124.8 48.1995C125.4 48.5995 126 48.8995 126.8 48.8995C127.3 48.8995 127.8 48.7995 128.2 48.5995C128.4 48.6995 128.6 48.7995 128.7 48.8995C129 49.3995 129.6 49.9995 130.2 50.0995C131.1 50.1995 131.8 50.3995 132.7 50.1995C134 49.8995 134.9 48.6995 135.3 47.4995C135.5 47.0995 135.5 46.5995 135.5 46.1995C136.1 46.1995 136.7 46.0995 137.3 45.9995C138.3 45.7995 139.2 45.0995 139.8 44.2995C140.3 44.8995 141.1 45.2995 142 45.2995C143.6 45.2995 145 43.8995 145 42.2995C145 40.6995 143.8 38.9995 142.1 38.9995Z" fill="#F2B46D"/>
<path d="M152.5 34.0996C152 33.0996 151.1 32.5996 150.1 32.1996C149.3 31.8996 148.1 31.7996 147.3 32.0996C145.9 32.5996 144.9 33.6996 144.9 35.2996C144.9 35.8996 145.1 36.4996 145.4 36.8996C145.5 37.5996 145.7 38.0996 146.2 38.6996C146.5 39.0996 147 39.3996 147.4 39.5996C148.3 39.9996 149.4 40.3996 150.4 39.9996C151.6 39.4996 152.4 38.6996 152.9 37.4996C153.1 36.2996 153 35.0996 152.5 34.0996Z" fill="#F2B46D"/>
</svg>
