<svg width="167" height="70" viewBox="0 0 167 70" fill="none" xmlns="http://www.w3.org/2000/svg">
<path d="M125.7 12.7002C129.9 9.60018 136.7 11.9002 136.7 19.3002C138.7 15.2002 147.4 16.2002 147 23.1002C149.7 21.3002 153.5 22.9002 153.3 26.8002C157 24.8002 163.7 28.9002 162.2 34.9002C160.2 34.3002 157.9 34.6002 155.9 36.2002C154.7 31.7002 149.9 30.2002 145.7 30.5002C142.4 30.7002 139.7 33.2002 138.6 35.8002C136.8 34.6002 134.4 34.4002 131.7 35.0002C127.1 36.0002 124.5 38.9002 123.9 42.8002C121.9 39.0002 116.2 40.6002 115.6 44.1002C114.1 38.9002 109 37.4002 105.5 37.8002C102.5 38.1002 98.6 39.8002 97.5 44.2002C95 41.8002 91 40.0002 86.6 40.4002C83.3 40.7002 80.2 42.4002 78.4 44.9002C77.9 40.5002 69.4 38.8002 66.2 43.0002C64.7 41.2002 62.1 39.8002 59.2 39.6002C56.4 39.4002 52.6 40.1002 50.4 42.7002C49.8 38.6002 44.1 36.1002 40.2 37.6002C39 32.9002 29.7 29.5002 25.3 37.2002C24.8 32.5002 21.1 30.7002 17.8 30.7002C12.8 30.7002 10.1 34.5002 10 36.9002C8.8 36.2002 7.50001 36.1002 6.20001 36.3002C4.60001 30.4002 11.6 25.9002 15.5 28.5002C14.5 22.5002 21.8 20.0002 25.2 24.0002C23.8 18.6002 29.4 14.8002 33.8 16.4002C35.3 10.8002 44.6 7.60015 49.3 13.8002C50 9.80015 53.9 7.20015 58.7 7.80015C60.9 8.10015 62.7 9.20017 63.8 10.6002C65.5 6.10017 72.5 5.10017 74.8 9.10017C76.3 1.00017 90 -2.69984 95.6 5.90016C97.4 5.00016 99.7 4.70016 102.4 5.40016C106.6 6.50016 108.8 10.0002 109.1 12.7002C111.5 5.40018 123.4 6.80018 125.7 12.7002Z" fill="#D98448"/>
<path d="M25.3 37.1004C29.6 29.4004 38.9 32.8004 40.2 37.5004C44.1 36.0004 49.8 38.5004 50.4 42.6004C52.6 40.0004 56.4 39.3004 59.2 39.5004C62 39.7004 64.6 41.1004 66.2 42.9004C69.4 38.8004 77.9 40.4004 78.4 44.8004C80.3 42.3004 83.3 40.6004 86.6 40.3004C91 39.9004 95 41.7004 97.5 44.1004C98.6 39.7004 102.5 38.0004 105.5 37.7004C109 37.3004 114.1 38.8004 115.6 44.0004C116.3 40.5004 121.9 38.8004 123.9 42.7004C124.5 38.7004 127.1 35.9004 131.7 34.9004C134.4 34.3004 136.8 34.5004 138.6 35.7004C139.6 33.2004 142.2 30.9004 145.2 30.5004C142.7 28.1004 137.9 28.4004 136.5 31.3004C136.5 23.9004 129.7 21.7004 125.5 24.7004C123.2 18.7004 111.3 17.4004 108.8 24.7004C108.5 22.0004 106.3 18.5004 102.1 17.4004C99.5 16.7004 97.2 17.0004 95.3 17.9004C89.8 9.40038 76 13.1004 74.5 21.1004C72.2 17.1004 65.2 18.0004 63.5 22.6004C62.4 21.2004 60.6 20.1004 58.4 19.8004C53.6 19.1004 49.7 21.8004 49 25.8004C44.3 19.6004 35 22.9004 33.5 28.4004C29.2 26.8004 23.5 30.6004 24.9 36.0004L24.8 35.9004C25.1 36.2004 25.2 36.6004 25.3 37.1004Z" fill="#B85E37"/>
<path d="M88.2 53.5006C119.238 53.5006 144.4 46.6953 144.4 38.3006C144.4 29.9058 119.238 23.1006 88.2 23.1006C57.1616 23.1006 32 29.9058 32 38.3006C32 46.6953 57.1616 53.5006 88.2 53.5006Z" fill="#663629"/>
<path d="M162.2 34.8004C164.8 35.6005 166.8 38.2005 166.6 41.7005C166.2 47.4005 162.5 49.1005 158.7 48.5005C158.7 49.5005 158.5 50.6005 158 51.7005C156.2 55.5005 150 57.0005 144 54.4005C142.5 62.4005 132 62.8005 127.9 60.2005C125.8 64.9005 119 66.2005 115.4 63.2005C113.8 67.8005 105.4 68.8005 102.5 64.1005C99.8 68.1005 95.1 70.1004 87.5 69.3004C83.3 68.9004 80.7 67.5005 79.2 65.8004C72.7 72.0005 61.7 68.0005 60 62.6005C58.3 65.0005 54.3 66.5005 49.4 65.6005C46.7 65.1005 43.9 63.3005 42.7 60.6005C38.7 65.4005 29 62.9005 28.3 57.1005C23.6 58.8005 15 58.3005 12.3 54.2005C11.3 52.8005 10.8 51.4005 10.6 50.0005C4.60002 50.5005 0.700011 47.8004 0.500011 43.3004C0.300011 39.7004 3.2 36.6005 6.3 36.1005C7.6 35.9005 8.90002 36.0005 10.1 36.7005C10.3 34.4005 12.9 30.5005 17.9 30.5005C21.2 30.5005 24.9 32.3005 25.4 37.0005C29.7 29.3005 39 32.7005 40.3 37.4005C44.2 35.9005 49.9 38.4005 50.5 42.5005C52.7 39.9005 56.5 39.2005 59.3 39.4005C62.1 39.6005 64.7 41.0004 66.3 42.8004C69.5 38.7004 78 40.3005 78.5 44.7005C80.4 42.2005 83.4 40.5005 86.7 40.2005C91.1 39.8005 95.1 41.6005 97.6 44.0005C98.7 39.6005 102.6 37.9005 105.6 37.6005C109.1 37.2005 114.2 38.7005 115.7 43.9005C116.4 40.4005 122 38.7005 124 42.6005C124.6 38.6005 127.2 35.8004 131.8 34.8004C134.5 34.2004 136.9 34.4005 138.7 35.6005C139.7 33.0005 142.5 30.5004 145.8 30.3004C150 30.0004 154.8 31.4005 156 36.0005C157.9 34.5005 160.2 34.2004 162.2 34.8004Z" fill="#E8984D"/>
<path d="M162.7 35C162.3 40.2 158.8 41.8 155.2 41.3C155.2 42.3 155 43.3 154.5 44.3C152.8 48 146.9 49.4 141.2 46.8C139.8 54.4 129.8 54.8 125.9 52.3C123.9 56.8 117.4 58 113.9 55.2C112.4 59.6 104.4 60.5 101.6 56C99 59.8 94.5 61.7 87.3 61C83.3 60.6 80.9 59.3 79.4 57.6C73.2 63.5 62.7 59.6 61.1 54.5C59.4 56.8 55.6 58.2 51 57.4C48.4 56.9 45.8 55.2 44.6 52.6C40.8 57.2 31.5 54.8 30.9 49.3C26.4 50.9 18.3 50.5 15.7 46.6C14.8 45.2 14.3 43.9 14 42.6C8.40001 43 4.8 40.6 4.4 36.6C2.1 37.8 0.3 40.3 0.4 43.2C0.6 47.7 4.50001 50.4 10.5 49.9C10.7 51.2 11.3 52.6 12.2 54.1C14.9 58.2 23.5 58.7 28.2 57C28.9 62.8 38.6 65.2 42.6 60.5C43.8 63.2 46.6 65 49.3 65.5C54.2 66.4 58.2 64.9 59.9 62.5C61.6 67.9 72.6 71.9 79.1 65.7C80.6 67.4 83.2 68.8 87.4 69.2C95 70 99.7 68 102.4 64C105.4 68.7 113.7 67.8 115.3 63.1C119 66.1 125.8 64.7 127.8 60.1C131.9 62.7 142.4 62.2 143.9 54.3C149.9 57 156.1 55.5 157.9 51.6C158.4 50.5 158.6 49.4 158.6 48.4C162.4 49 166.1 47.3 166.5 41.6C166.8 38.4 165.1 36 162.7 35Z" fill="#D98448"/>
<path d="M22.6 38.2002C22.7 38.3002 22.7 38.3002 22.6 38.2002C22.7 38.2002 22.7 38.3002 22.6 38.2002Z" fill="#F2B46D"/>
<path d="M23 38.5006C22.9 38.4006 22.7 38.3006 22.6 38.2006C22.2 37.8006 21.7 37.6006 21.2 37.5006C21.4 37.0006 21.5 36.5006 21.4 36.0006C21.2 34.7006 20.8 33.9006 19.8 33.1006C19 32.5006 17.9 32.6006 16.9 32.7006C16.1 32.8006 15.3 33.4006 14.7 34.0006C13.3 35.3006 12.5 37.5006 13.5 39.2006C14.3 40.6006 16.1 41.1006 17.6 40.8006C17.6 41.2006 17.6 41.7006 17.8 42.1006C18.1 42.7006 18.2 42.9006 18.6 43.4006C19 43.9006 19.8 44.1006 20.4 44.1006C20.6 44.1006 21.1 44.2006 20.5 44.1006C21.6 44.4006 22.8 43.9006 23.4 42.9006C23.8 42.2006 23.8 41.5006 23.8 40.7006C23.8 40.1006 23.7 39.5006 23.4 39.1006C23.4 38.9006 23.2 38.7006 23 38.5006Z" fill="#F2B46D"/>
<path d="M41.7 44.4006C41.6 44.3006 41.6 44.3006 41.5 44.3006C41.2 44.0006 40.9 43.7006 40.5 43.5006C40.2 42.5006 39.5 41.7006 38.6 41.1006C38 40.7006 37.2 40.5006 36.4 40.6006C36.4 40.4006 36.4 40.2006 36.4 40.0006C36.3 38.9006 35.9 38.1006 35.2 37.2006C34 35.9006 31.7 35.9006 30.5 37.2006C29.6 38.1006 29.5 39.3006 30 40.3006C29.8 41.2006 30.1 42.1006 30.7 42.8006C31.2 43.4006 32.2 43.6006 32.9 43.6006C32.5 44.5006 32.4 45.6006 32.7 46.5006C33.2 48.3006 34.9 49.0006 36.5 48.9006C37.1 49.0006 37.7 49.0006 38.4 49.0006H38.5C39.5 49.4006 40.7 49.3006 41.6 48.4006C42.7 47.4006 42.9 45.4006 41.7 44.4006Z" fill="#F2B46D"/>
<path d="M56.3 43.3998C55.3 43.5998 54.3 44.0998 53.5 44.6998C53.3 44.4998 53 44.3998 52.7 44.2998C53.9 44.7998 53.2 44.4998 52.9 44.2998C52.2 43.8998 51.6 43.7998 50.8 43.6998C50.2 43.5998 49.4 43.8998 48.8 44.1998C48.2 44.5998 47.4 45.2998 47.3 46.0998C47.2 46.8998 47.2 47.0998 47.3 47.8998C47.4 48.8998 48.5 49.6998 49.4 49.9998C49.7 50.0998 50 50.0998 50.3 50.0998H50.4C51.1 50.2998 51.6 50.1998 52.2 49.9998C52.4 50.3998 52.7 50.7998 53 51.0998C53.4 51.9998 54.1 52.7998 55.2 53.0998C57.2 53.7998 59.7 53.3998 61.3 52.1998C63.8 50.2998 64.7 47.0998 62.5 44.6998C61.1 42.9998 58.3 42.8998 56.3 43.3998Z" fill="#F2B46D"/>
<path d="M44.3 40C43.2 40 42.2 41 42.2 42.1C42.2 43.2 43.2 44.2 44.3 44.2C45.4 44.2 46.4 43.2 46.4 42.1C46.4 41 45.4 40 44.3 40Z" fill="#F2B46D"/>
<path d="M99 50.5C98 50.5 97.1 51.4 97.1 52.4C97.1 53.4 98 54.3 99 54.3C100 54.3 100.9 53.4 100.9 52.4C100.9 51.4 100 50.5 99 50.5Z" fill="#F2B46D"/>
<path d="M25.4 44.5001C24.5 44.8001 24 45.8001 24.7 46.6001C25.4 47.3001 26.5 46.8001 26.7 46.0001C26.7 46.0001 26.7 46 26.8 45.9C27.5 45.1 26.2 43.9001 25.4 44.5001Z" fill="#F2B46D"/>
<path d="M74.9 47.5004C74.1 47.2004 73.5 47.0004 72.7 46.9004C71.9 46.9004 71.1 47.2004 70.4 47.6004C68.6 48.6004 67.6 51.1004 68.8 52.9004C69.2 53.5004 69.6 53.9004 70.2 54.2004C70.6 54.7004 71.2 55.0004 71.8 55.2004C72.7 55.4004 73.5 55.2004 74.4 54.8004L74.5 54.7004C75.1 54.2004 75.2 54.1004 74.7 54.5004C75 54.3004 75.3 54.1004 75.5 53.9004C76.4 53.1004 76.9 52.2004 77 50.9004C77.1 49.5004 76.1 48.0004 74.9 47.5004Z" fill="#F2B46D"/>
<path d="M94.8 47.1005C93.5 45.8005 91.7 45.2004 90 45.0004C87.8 44.8004 85.9 45.4004 84.6 47.3004C84.4 47.5004 84.3 47.8004 84.2 48.0004C83.2 47.6004 82 47.5005 81 47.7005C80.8 47.7005 80.5 47.8004 80.3 47.9004C78.8 48.4004 77.8 50.0005 78 51.6005C78.2 53.3005 79.2 54.7005 81 55.1005C82.5 55.4005 83.9 55.0005 85.1 54.1005C85.9 54.9005 86.9 55.6004 88.1 55.8004C88.4 55.9004 88.7 55.9004 89 55.9004C89.7 56.0004 90.3 56.0004 91 55.8004C91.1 55.8004 91.2 55.8004 91.3 55.8004C95.4 56.0004 97.6 50.1005 94.8 47.1005Z" fill="#F2B46D"/>
<path d="M110.9 44.1999C110.9 43.9999 110.9 43.8999 110.8 43.6999C110.5 42.8999 109.7 42.0999 108.8 42.1999C107.8 42.2999 106.9 42.6999 106.3 43.5999C106 44.0999 105.9 44.6999 106 45.1999C104.3 45.2999 102.9 46.5999 102.9 48.2999C102.9 48.3999 102.8 48.5999 102.8 48.6999C102.6 49.9999 103.1 51.4999 104.6 51.7999C105.5 51.9999 106.3 52.0999 107.2 51.8999C108.9 51.5999 109.9 49.9999 110 48.3999C110 47.9999 109.9 47.4999 109.7 47.1999C110.5 46.6999 111 45.8999 110.9 44.9999C110.9 44.9999 110.9 44.9999 110.9 44.8999C111 44.5999 110.9 43.9999 110.9 44.1999Z" fill="#F2B46D"/>
<path d="M142 39.7002C141.3 39.7002 140.7 39.9002 140.2 40.3002C140.2 40.2002 140.2 40.2002 140.1 40.1002C139.8 39.3002 140 39.9002 140.1 40.1002C140 39.7002 139.7 39.2002 139.5 38.8002C138.3 37.0002 136.4 36.3002 134.3 36.6002C135.5 36.4002 134.1 36.6002 133.7 36.7002C133.1 36.9002 132.5 37.2002 132 37.7002C131.1 38.6002 130.7 40.0002 131 41.3002C131 41.4002 131 41.5002 131 41.6002C130.5 41.6002 130 41.6002 129.6 41.8002C128.7 42.1002 128.2 42.6002 127.6 43.2002C127.3 43.1002 127 43.0002 126.6 43.0002C125 43.0002 123.7 44.2002 123.4 45.7002C123.1 45.4002 122.7 45.2002 122.4 45.0002C121.3 44.4002 120.2 44.3002 119 44.6002C117.7 44.9002 116.7 46.2002 116.7 47.6002C116.3 48.2002 116.3 49.1002 116.4 49.8002C116.6 50.6002 117.2 51.3002 117.9 51.7002C118.7 52.2002 119.7 52.4002 120.6 52.3002C121.6 52.2002 122.9 51.9002 123.6 51.1002C124 50.6002 124.4 50.1002 124.6 49.4002C124.6 49.2002 124.7 49.1002 124.7 48.9002C125.3 49.3002 125.9 49.6002 126.7 49.6002C127.2 49.6002 127.7 49.5002 128.1 49.3002C128.3 49.4002 128.5 49.5002 128.6 49.6002C128.9 50.1002 129.5 50.7002 130.1 50.8002C131 50.9002 131.7 51.1002 132.6 50.9002C133.9 50.6002 134.8 49.4002 135.2 48.2002C135.4 47.8002 135.4 47.3002 135.4 46.9002C136 46.9002 136.6 46.8002 137.2 46.7002C138.2 46.5002 139.1 45.8002 139.7 45.0002C140.2 45.6002 141 46.0002 141.9 46.0002C143.5 46.0002 144.9 44.6002 144.9 43.0002C145 41.0002 143.7 39.7002 142 39.7002Z" fill="#F2B46D"/>
<path d="M152.4 34.8003C151.9 33.8003 151 33.3003 150 32.9003C149.2 32.6003 148 32.5003 147.2 32.8003C145.8 33.3003 144.8 34.4003 144.8 36.0003C144.8 36.6003 145 37.2003 145.3 37.6003C145.4 38.3003 145.6 38.8003 146.1 39.4003C146.4 39.8003 146.9 40.1003 147.3 40.3003C148.2 40.7003 149.3 41.1003 150.3 40.7003C151.5 40.2003 152.3 39.4003 152.8 38.2003C153 37.0003 153 35.8003 152.4 34.8003Z" fill="#F2B46D"/>
<mask id="mask0_16_1369" style="mask-type:luminance" maskUnits="userSpaceOnUse" x="45" y="16" width="77" height="38">
<path d="M120.7 46.6006C117.5 36.7006 111.9 28.9006 104.9 23.7006C98.7 19.1006 91.4 16.6006 83.5 16.6006C74.9 16.6006 67 19.6006 60.5 25.0006C54.3 30.2006 49.3 37.6006 46.3 46.6006C46.1 47.1006 46 47.7006 45.8 48.2006C56.1 51.4006 71.3 53.4006 88.3 53.4006C100.9 53.4006 112.5 52.3006 121.9 50.4006C121.4 49.1006 121 47.8006 120.7 46.6006Z" fill="white"/>
</mask>
<g mask="url(#mask0_16_1369)">
<path d="M83.5 126.201C92.4 126.201 120.8 124.601 127.4 120.401C126.2 91.2006 123.5 60.2006 119.2 47.1006C113.4 29.5006 99.9 18.1006 83.4 18.1006C66.9 18.1006 53.4 29.5006 47.6 47.1006C43.3 60.2006 40.6 91.2006 39.4 120.401C46.1 124.701 74.5 126.201 83.5 126.201Z" fill="#CC6B33"/>
<path d="M45 121.401C46.1 93.9006 48.6 64.6006 52.7 52.3006C58.2 35.7006 70.9 25.0006 86.4 25.0006C102 25.0006 114.7 35.8006 120.1 52.3006C120.8 54.6006 120.3 50.5006 119.1 47.1006C113.3 29.5006 99.8 18.1006 83.3 18.1006C66.8 18.1006 53.3 29.5006 47.5 47.1006C43.2 60.2006 40.5 91.2006 39.3 120.401C41.8 121.901 46.5 122.401 45 121.401Z" fill="#E6965C"/>
<path d="M83.5 127.701C78 127.701 46.4 126.601 38.7 121.601C38.3 121.301 38 120.801 38 120.301C38.7 103.601 40.8 63.1006 46.2 46.6006C52.3 28.1006 66.6 16.6006 83.4 16.6006C100.2 16.6006 114.5 28.1006 120.6 46.6006C126 63.1006 128.2 103.601 128.8 120.301C128.8 120.801 128.6 121.301 128.1 121.601C120.6 126.601 89 127.701 83.5 127.701ZM41 119.501C48.3 123.101 73.9 124.701 83.4 124.701C92.9 124.701 118.6 123.201 125.8 119.501C124.4 85.5006 121.4 58.6006 117.7 47.5006C112 30.3006 98.9 19.6006 83.3 19.6006C67.7 19.6006 54.6 30.3006 48.9 47.5006C45.4 58.6006 42.4 85.5006 41 119.501Z" fill="black"/>
<path d="M51.1 50.1006C56.8 50.9006 67.3 53.0006 74 55.7006C76.3 50.4006 76.8 44.3006 74.9 38.6006C75 41.8006 74.6 44.2006 73.9 46.1006C65.3 42.0006 57.2 39.8006 54.3 39.2006C53 41.6006 51.3 46.5006 51.1 50.1006Z" fill="black"/>
<path d="M115.8 50.1006C110.1 50.9006 99.6 53.0006 92.9 55.7006C90.6 50.4006 90.1 44.3006 92 38.6006C91.9 41.8006 92.3 44.2006 93 46.1006C101.6 42.0006 109.8 39.8006 112.6 39.2006C114 41.6006 115.6 46.5006 115.8 50.1006Z" fill="black"/>
</g>
<path d="M41.4 46.9001L41.3 47.0001C37.8 43.8001 35 40.3001 33.2 37.1001C39.3 36.5001 47.4 38.7001 49.5 39.7001L50.1 40.3C48.1 42.7 45.2 45.0001 41.4 46.9001Z" fill="#FFEABF"/>
<path d="M50.2 40.3001L49.6 39.7002C42.5 35.6002 38.9 31.7001 35.5 26.9001C40.5 26.5001 47.8 27.5001 54 31.0001L54.9 31.2002C54.2 34.2002 52.7 37.4001 50.2 40.3001Z" fill="#FFEABF"/>
<path d="M54.3 21.3999C55.3 24.2999 55.6 27.6999 54.9 31.2999L54 31.0999C47.4 26.3999 43.3 22.0999 39.6 18.7999C44.5 18.0999 49.3 18.4999 54.3 21.3999Z" fill="#FFEABF"/>
<path d="M67.9 49.7998C65.4 54.8998 58 58.3998 48.6 52.6998C45.9 51.0998 43.5 49.1998 41.3 47.0998L41.4 46.9998C45.2 44.9998 48.1 42.6998 50.2 40.2998C52.8 37.3998 54.2 34.2998 54.9 31.1998C55.6 27.6998 55.3 24.1998 54.3 21.2998C56.8 22.6998 59.3 24.6998 61.9 27.4998C67.8 33.9998 70.8 43.9998 67.9 49.7998Z" fill="#CC6B33"/>
<path d="M68.1 34.2998C66.8 31.3998 65 28.7998 63 26.5998C55.8 18.8998 48.6 16.0998 39.5 17.3998C38.9 17.4998 38.4 17.8998 38.3 18.4998C38.1 19.0998 38.3 19.6998 38.7 20.0998C39.7 20.9998 40.7 21.8998 41.8 22.8998C43 23.9998 44.3 25.1998 45.7 26.4998C41.9 25.5998 38.3 25.3998 35.5 25.5998C35 25.5998 34.5 25.9998 34.3 26.3998C34.1 26.8998 34.1 27.4998 34.4 27.8998C36.5 30.8998 38.7 33.5998 41.8 36.1998C39 35.6998 35.9 35.4998 33.2 35.6998C32.7 35.6998 32.2 36.0998 32 36.4998C31.8 36.8998 31.8 37.3998 32 37.7998C32 37.7998 32 37.8998 32.1 37.8998C35.5 43.8998 41.4 49.8998 48 53.8998C54.1 57.6998 58.9 57.3998 61.9 56.5998C65.2 55.6998 68 53.3998 69.5 50.4998C71.3 46.3998 70.9 40.2998 68.1 34.2998ZM43.7 20.4998C43.5 20.2998 43.3 20.0998 43.1 19.9998C46.2 19.9998 49.7 20.4998 53.6 22.7998C54.2 24.7998 54.4 27.0998 54.1 29.3998C49.8 26.0998 46.6 23.1998 43.7 20.4998ZM38.4 28.3998C42.8 28.4998 48.4 29.5998 53.3 32.3998C53.4 32.3998 53.5 32.4998 53.6 32.4998C53 34.4998 52 36.5998 50.4 38.4998C50.4 38.4998 50.4 38.4998 50.3 38.3998C44.5 34.9998 41.2 31.8998 38.4 28.3998ZM48.3 40.7998C46.6 42.4998 44.5 44.0998 41.9 45.4998C39.6 43.2998 37.5 40.8998 35.9 38.4998C40.7 38.5998 46.1 39.9998 48.3 40.7998ZM60.9 53.6998C58.5 54.3998 54.6 54.4998 49.4 51.3998C47.3 50.0998 45.3 48.5998 43.4 46.9998C54.4 40.5998 57.1 31.4998 56 24.2998C57.5 25.3998 59.1 26.7998 60.7 28.5998C62.5 30.5998 64.1 32.9998 65.3 35.4998C67.7 40.6998 68.2 45.8998 66.6 49.0998C65.5 51.2998 63.4 52.9998 60.9 53.6998Z" fill="black"/>
<path d="M125.5 46.9001L125.6 47.0001C129.1 43.8001 131.9 40.3001 133.7 37.1001C127.6 36.5001 119.5 38.7001 117.4 39.7001L116.8 40.3C118.9 42.7 121.7 45.0001 125.5 46.9001Z" fill="#FFEABF"/>
<path d="M116.8 40.3001L117.4 39.7002C124.5 35.6002 128.1 31.7001 131.5 26.9001C126.5 26.5001 119.2 27.5001 113 31.0001L112.1 31.2002C112.7 34.2002 114.2 37.4001 116.8 40.3001Z" fill="#FFEABF"/>
<path d="M112.7 21.3999C111.7 24.2999 111.4 27.6999 112.1 31.2999L113 31.0999C119.6 26.3999 123.7 22.0999 127.4 18.7999C122.5 18.0999 117.6 18.4999 112.7 21.3999Z" fill="#FFEABF"/>
<path d="M99 49.7998C101.5 54.8998 108.9 58.3998 118.3 52.6998C121 51.0998 123.4 49.1998 125.6 47.0998L125.5 46.9998C121.7 44.9998 118.8 42.6998 116.7 40.2998C114.1 37.3998 112.7 34.2998 112 31.1998C111.3 27.6998 111.6 24.1998 112.6 21.2998C110.1 22.6998 107.6 24.6998 105 27.4998C99.1 33.9998 96.1 43.9998 99 49.7998Z" fill="#CC6B33"/>
<path d="M97.6 50.4002C99.1 53.4002 101.8 55.6002 105.2 56.5002C108.2 57.3002 113 57.6002 119.1 53.8002C125.7 49.8002 131.6 43.8002 135 37.8002C135 37.8002 135 37.7002 135.1 37.7002C135.3 37.3002 135.3 36.8002 135.1 36.4002C134.9 35.9002 134.4 35.6002 133.9 35.6002C131.2 35.3002 128.1 35.6002 125.3 36.1002C128.5 33.4002 130.7 30.7002 132.7 27.8002C133 27.4002 133 26.8002 132.8 26.3002C132.6 25.8002 132.1 25.5002 131.6 25.5002C128.8 25.3002 125.2 25.5002 121.4 26.4002C122.8 25.2002 124.1 24.0002 125.3 22.8002C126.4 21.8002 127.4 20.9002 128.4 20.0002C128.8 19.6002 129 19.0002 128.8 18.4002C128.6 17.8002 128.2 17.4002 127.6 17.3002C118.5 16.0002 111.3 18.8002 104.1 26.5002C102.1 28.7002 100.3 31.4002 99 34.2002C96.1 40.3002 95.6 46.4002 97.6 50.4002ZM112.8 29.3002C112.5 27.0002 112.8 24.8002 113.3 22.7002C117.1 20.5002 120.7 19.9002 123.8 19.9002C123.6 20.1002 123.4 20.3002 123.2 20.4002C120.3 23.2002 117.1 26.1002 112.8 29.3002ZM116.6 38.4002C115 36.5002 114 34.5002 113.4 32.4002C113.5 32.4002 113.6 32.4002 113.7 32.3002C118.6 29.5002 124.2 28.4002 128.6 28.3002C125.8 31.9002 122.4 35.0002 116.6 38.4002ZM131.1 38.5002C129.5 40.9002 127.4 43.3002 125.1 45.5002C122.5 44.0002 120.4 42.5002 118.7 40.8002C120.8 40.0002 126.2 38.6002 131.1 38.5002ZM100.3 49.1002C98.7 45.9002 99.2 40.7002 101.6 35.5002C102.8 32.9002 104.4 30.5002 106.2 28.6002C107.8 26.9002 109.4 25.5002 110.9 24.3002C109.8 31.5002 112.5 40.5002 123.5 47.0002C121.6 48.6002 119.6 50.1002 117.5 51.4002C112.3 54.6002 108.4 54.4002 106 53.7002C103.5 53.0002 101.4 51.3002 100.3 49.1002Z" fill="black"/>
<path d="M162.2 34.8004C164.8 35.6005 166.8 38.2005 166.6 41.7005C166.2 47.4005 162.5 49.1005 158.7 48.5005C158.7 49.5005 158.5 50.6005 158 51.7005C156.2 55.5005 150 57.0005 144 54.4005C142.5 62.4005 132 62.8005 127.9 60.2005C125.8 64.9005 119 66.2005 115.4 63.2005C113.8 67.8005 105.4 68.8005 102.5 64.1005C99.8 68.1005 95.1 70.1004 87.5 69.3004C83.3 68.9004 80.7 67.5005 79.2 65.8004C72.7 72.0005 61.7 68.0005 60 62.6005C58.3 65.0005 54.3 66.5005 49.4 65.6005C46.7 65.1005 43.9 63.3005 42.7 60.6005C38.7 65.4005 29 62.9005 28.3 57.1005C23.6 58.8005 15 58.3005 12.3 54.2005C11.3 52.8005 10.8 51.4005 10.6 50.0005C4.60002 50.5005 0.700011 47.8004 0.500011 43.3004C0.300011 39.7004 3.2 36.6005 6.3 36.1005C7.6 35.9005 8.90002 36.0005 10.1 36.7005C10.3 34.4005 12.9 30.5005 17.9 30.5005C21.2 30.5005 24.9 32.3005 25.4 37.0005C29.7 29.3005 39 32.7005 40.3 37.4005C44.2 35.9005 49.9 38.4005 50.5 42.5005C52.7 39.9005 56.5 39.2005 59.3 39.4005C62.1 39.6005 64.7 41.0004 66.3 42.8004C69.5 38.7004 78 40.3005 78.5 44.7005C80.4 42.2005 83.4 40.5005 86.7 40.2005C91.1 39.8005 95.1 41.6005 97.6 44.0005C98.7 39.6005 102.6 37.9005 105.6 37.6005C109.1 37.2005 114.2 38.7005 115.7 43.9005C116.4 40.4005 122 38.7005 124 42.6005C124.6 38.6005 127.2 35.8004 131.8 34.8004C134.5 34.2004 136.9 34.4005 138.7 35.6005C139.7 33.0005 142.5 30.5004 145.8 30.3004C150 30.0004 154.8 31.4005 156 36.0005C157.9 34.5005 160.2 34.2004 162.2 34.8004Z" fill="#E8984D"/>
<path d="M162.7 35C162.3 40.2 158.8 41.8 155.2 41.3C155.2 42.3 155 43.3 154.5 44.3C152.8 48 146.9 49.4 141.2 46.8C139.8 54.4 129.8 54.8 125.9 52.3C123.9 56.8 117.4 58 113.9 55.2C112.4 59.6 104.4 60.5 101.6 56C99 59.8 94.5 61.7 87.3 61C83.3 60.6 80.9 59.3 79.4 57.6C73.2 63.5 62.7 59.6 61.1 54.5C59.4 56.8 55.6 58.2 51 57.4C48.4 56.9 45.8 55.2 44.6 52.6C40.8 57.2 31.5 54.8 30.9 49.3C26.4 50.9 18.3 50.5 15.7 46.6C14.8 45.2 14.3 43.9 14 42.6C8.40001 43 4.8 40.6 4.4 36.6C2.1 37.8 0.3 40.3 0.4 43.2C0.6 47.7 4.50001 50.4 10.5 49.9C10.7 51.2 11.3 52.6 12.2 54.1C14.9 58.2 23.5 58.7 28.2 57C28.9 62.8 38.6 65.2 42.6 60.5C43.8 63.2 46.6 65 49.3 65.5C54.2 66.4 58.2 64.9 59.9 62.5C61.6 67.9 72.6 71.9 79.1 65.7C80.6 67.4 83.2 68.8 87.4 69.2C95 70 99.7 68 102.4 64C105.4 68.7 113.7 67.8 115.3 63.1C119 66.1 125.8 64.7 127.8 60.1C131.9 62.7 142.4 62.2 143.9 54.3C149.9 57 156.1 55.5 157.9 51.6C158.4 50.5 158.6 49.4 158.6 48.4C162.4 49 166.1 47.3 166.5 41.6C166.8 38.4 165.1 36 162.7 35Z" fill="#D98448"/>
<path d="M22.6 38.2002C22.7 38.3002 22.7 38.3002 22.6 38.2002C22.7 38.2002 22.7 38.3002 22.6 38.2002Z" fill="#F2B46D"/>
<path d="M23 38.5006C22.9 38.4006 22.7 38.3006 22.6 38.2006C22.2 37.8006 21.7 37.6006 21.2 37.5006C21.4 37.0006 21.5 36.5006 21.4 36.0006C21.2 34.7006 20.8 33.9006 19.8 33.1006C19 32.5006 17.9 32.6006 16.9 32.7006C16.1 32.8006 15.3 33.4006 14.7 34.0006C13.3 35.3006 12.5 37.5006 13.5 39.2006C14.3 40.6006 16.1 41.1006 17.6 40.8006C17.6 41.2006 17.6 41.7006 17.8 42.1006C18.1 42.7006 18.2 42.9006 18.6 43.4006C19 43.9006 19.8 44.1006 20.4 44.1006C20.6 44.1006 21.1 44.2006 20.5 44.1006C21.6 44.4006 22.8 43.9006 23.4 42.9006C23.8 42.2006 23.8 41.5006 23.8 40.7006C23.8 40.1006 23.7 39.5006 23.4 39.1006C23.4 38.9006 23.2 38.7006 23 38.5006Z" fill="#F2B46D"/>
<path d="M41.7 44.4006C41.6 44.3006 41.6 44.3006 41.5 44.3006C41.2 44.0006 40.9 43.7006 40.5 43.5006C40.2 42.5006 39.5 41.7006 38.6 41.1006C38 40.7006 37.2 40.5006 36.4 40.6006C36.4 40.4006 36.4 40.2006 36.4 40.0006C36.3 38.9006 35.9 38.1006 35.2 37.2006C34 35.9006 31.7 35.9006 30.5 37.2006C29.6 38.1006 29.5 39.3006 30 40.3006C29.8 41.2006 30.1 42.1006 30.7 42.8006C31.2 43.4006 32.2 43.6006 32.9 43.6006C32.5 44.5006 32.4 45.6006 32.7 46.5006C33.2 48.3006 34.9 49.0006 36.5 48.9006C37.1 49.0006 37.7 49.0006 38.4 49.0006H38.5C39.5 49.4006 40.7 49.3006 41.6 48.4006C42.7 47.4006 42.9 45.4006 41.7 44.4006Z" fill="#F2B46D"/>
<path d="M56.3 43.3998C55.3 43.5998 54.3 44.0998 53.5 44.6998C53.3 44.4998 53 44.3998 52.7 44.2998C53.9 44.7998 53.2 44.4998 52.9 44.2998C52.2 43.8998 51.6 43.7998 50.8 43.6998C50.2 43.5998 49.4 43.8998 48.8 44.1998C48.2 44.5998 47.4 45.2998 47.3 46.0998C47.2 46.8998 47.2 47.0998 47.3 47.8998C47.4 48.8998 48.5 49.6998 49.4 49.9998C49.7 50.0998 50 50.0998 50.3 50.0998H50.4C51.1 50.2998 51.6 50.1998 52.2 49.9998C52.4 50.3998 52.7 50.7998 53 51.0998C53.4 51.9998 54.1 52.7998 55.2 53.0998C57.2 53.7998 59.7 53.3998 61.3 52.1998C63.8 50.2998 64.7 47.0998 62.5 44.6998C61.1 42.9998 58.3 42.8998 56.3 43.3998Z" fill="#F2B46D"/>
<path d="M44.3 40C43.2 40 42.2 41 42.2 42.1C42.2 43.2 43.2 44.2 44.3 44.2C45.4 44.2 46.4 43.2 46.4 42.1C46.4 41 45.4 40 44.3 40Z" fill="#F2B46D"/>
<path d="M99 50.5C98 50.5 97.1 51.4 97.1 52.4C97.1 53.4 98 54.3 99 54.3C100 54.3 100.9 53.4 100.9 52.4C100.9 51.4 100 50.5 99 50.5Z" fill="#F2B46D"/>
<path d="M25.4 44.5001C24.5 44.8001 24 45.8001 24.7 46.6001C25.4 47.3001 26.5 46.8001 26.7 46.0001C26.7 46.0001 26.7 46 26.8 45.9C27.5 45.1 26.2 43.9001 25.4 44.5001Z" fill="#F2B46D"/>
<path d="M74.9 47.5004C74.1 47.2004 73.5 47.0004 72.7 46.9004C71.9 46.9004 71.1 47.2004 70.4 47.6004C68.6 48.6004 67.6 51.1004 68.8 52.9004C69.2 53.5004 69.6 53.9004 70.2 54.2004C70.6 54.7004 71.2 55.0004 71.8 55.2004C72.7 55.4004 73.5 55.2004 74.4 54.8004L74.5 54.7004C75.1 54.2004 75.2 54.1004 74.7 54.5004C75 54.3004 75.3 54.1004 75.5 53.9004C76.4 53.1004 76.9 52.2004 77 50.9004C77.1 49.5004 76.1 48.0004 74.9 47.5004Z" fill="#F2B46D"/>
<path d="M94.8 47.1005C93.5 45.8005 91.7 45.2004 90 45.0004C87.8 44.8004 85.9 45.4004 84.6 47.3004C84.4 47.5004 84.3 47.8004 84.2 48.0004C83.2 47.6004 82 47.5005 81 47.7005C80.8 47.7005 80.5 47.8004 80.3 47.9004C78.8 48.4004 77.8 50.0005 78 51.6005C78.2 53.3005 79.2 54.7005 81 55.1005C82.5 55.4005 83.9 55.0005 85.1 54.1005C85.9 54.9005 86.9 55.6004 88.1 55.8004C88.4 55.9004 88.7 55.9004 89 55.9004C89.7 56.0004 90.3 56.0004 91 55.8004C91.1 55.8004 91.2 55.8004 91.3 55.8004C95.4 56.0004 97.6 50.1005 94.8 47.1005Z" fill="#F2B46D"/>
<path d="M110.9 44.1999C110.9 43.9999 110.9 43.8999 110.8 43.6999C110.5 42.8999 109.7 42.0999 108.8 42.1999C107.8 42.2999 106.9 42.6999 106.3 43.5999C106 44.0999 105.9 44.6999 106 45.1999C104.3 45.2999 102.9 46.5999 102.9 48.2999C102.9 48.3999 102.8 48.5999 102.8 48.6999C102.6 49.9999 103.1 51.4999 104.6 51.7999C105.5 51.9999 106.3 52.0999 107.2 51.8999C108.9 51.5999 109.9 49.9999 110 48.3999C110 47.9999 109.9 47.4999 109.7 47.1999C110.5 46.6999 111 45.8999 110.9 44.9999C110.9 44.9999 110.9 44.9999 110.9 44.8999C111 44.5999 110.9 43.9999 110.9 44.1999Z" fill="#F2B46D"/>
<path d="M142 39.7002C141.3 39.7002 140.7 39.9002 140.2 40.3002C140.2 40.2002 140.2 40.2002 140.1 40.1002C139.8 39.3002 140 39.9002 140.1 40.1002C140 39.7002 139.7 39.2002 139.5 38.8002C138.3 37.0002 136.4 36.3002 134.3 36.6002C135.5 36.4002 134.1 36.6002 133.7 36.7002C133.1 36.9002 132.5 37.2002 132 37.7002C131.1 38.6002 130.7 40.0002 131 41.3002C131 41.4002 131 41.5002 131 41.6002C130.5 41.6002 130 41.6002 129.6 41.8002C128.7 42.1002 128.2 42.6002 127.6 43.2002C127.3 43.1002 127 43.0002 126.6 43.0002C125 43.0002 123.7 44.2002 123.4 45.7002C123.1 45.4002 122.7 45.2002 122.4 45.0002C121.3 44.4002 120.2 44.3002 119 44.6002C117.7 44.9002 116.7 46.2002 116.7 47.6002C116.3 48.2002 116.3 49.1002 116.4 49.8002C116.6 50.6002 117.2 51.3002 117.9 51.7002C118.7 52.2002 119.7 52.4002 120.6 52.3002C121.6 52.2002 122.9 51.9002 123.6 51.1002C124 50.6002 124.4 50.1002 124.6 49.4002C124.6 49.2002 124.7 49.1002 124.7 48.9002C125.3 49.3002 125.9 49.6002 126.7 49.6002C127.2 49.6002 127.7 49.5002 128.1 49.3002C128.3 49.4002 128.5 49.5002 128.6 49.6002C128.9 50.1002 129.5 50.7002 130.1 50.8002C131 50.9002 131.7 51.1002 132.6 50.9002C133.9 50.6002 134.8 49.4002 135.2 48.2002C135.4 47.8002 135.4 47.3002 135.4 46.9002C136 46.9002 136.6 46.8002 137.2 46.7002C138.2 46.5002 139.1 45.8002 139.7 45.0002C140.2 45.6002 141 46.0002 141.9 46.0002C143.5 46.0002 144.9 44.6002 144.9 43.0002C145 41.0002 143.7 39.7002 142 39.7002Z" fill="#F2B46D"/>
<path d="M152.4 34.8003C151.9 33.8003 151 33.3003 150 32.9003C149.2 32.6003 148 32.5003 147.2 32.8003C145.8 33.3003 144.8 34.4003 144.8 36.0003C144.8 36.6003 145 37.2003 145.3 37.6003C145.4 38.3003 145.6 38.8003 146.1 39.4003C146.4 39.8003 146.9 40.1003 147.3 40.3003C148.2 40.7003 149.3 41.1003 150.3 40.7003C151.5 40.2003 152.3 39.4003 152.8 38.2003C153 37.0003 153 35.8003 152.4 34.8003Z" fill="#F2B46D"/>
</svg>
