<svg width="177" height="160" viewBox="0 0 177 160" fill="none" xmlns="http://www.w3.org/2000/svg">
<path d="M116.9 37.4999C98.6997 70.1999 49.4996 84.8998 24.5996 63.7998C18.8996 58.4998 18.0997 51.7999 13.4997 49.8999C8.19967 47.6999 3.19965 54.8998 3.09965 64.0998C2.89965 77.1998 17.7997 93.6998 26.4997 98.5998C63.3997 119.1 109.9 105.9 130.4 68.9999C135.5 59.7999 138.5 49.9999 139.6 40.1999C141.9 19.2999 126.7 19.8999 116.9 37.4999Z" fill="#FFFF00"/>
<path d="M63.6 111.1C50.2 111.1 36.9 107.6 25.1 101.1C16.5 96.2999 4.39137e-05 78.8999 0.200044 64.0999C0.300044 54.2999 5.30001 46.6999 11.6 46.6999C12.6 46.6999 13.7 46.8999 14.7 47.2999C18.1 48.6999 19.7 51.5999 21.5 54.6999C22.9 57.0999 24.3 59.4999 26.6 61.6999C33.6 67.5999 43.2 70.7999 54.2 70.7999C78.3 70.7999 103 56.5999 114.4 36.1999C119.5 26.9999 126.2 21.5999 132.4 21.5999C135.1 21.5999 137.4 22.6999 139.2 24.5999C142.1 27.7999 143.2 33.3999 142.4 40.5999C141.2 51.0999 138 61.1999 132.8 70.4999C118.9 95.4999 92.3 111.1 63.6 111.1ZM11.5 52.3999C9.30003 52.3999 6.00006 56.9999 5.90006 64.1999C5.70006 75.3999 19.1 91.2999 27.8 96.0999C38.7 102.2 51.1 105.4 63.5 105.4C90.2 105.4 114.8 90.8999 127.8 67.5999C132.6 58.9999 135.6 49.5999 136.7 39.8999C137.3 34.4999 136.6 30.2999 134.9 28.3999C134.2 27.5999 133.4 27.2999 132.4 27.2999C129.2 27.2999 123.9 30.8999 119.4 38.9999C107.1 61.0999 80.3 76.5999 54.2 76.5999C41.7 76.5999 30.9 72.9999 22.8 66.0999C19.7 63.2999 17.9 60.1999 16.5 57.6999C15.1 55.2999 14 53.3999 12.5 52.6999C12.1 52.4999 11.8 52.3999 11.5 52.3999Z" fill="#FFB300"/>
<path d="M11.6003 56.0999C9.2003 56.5999 7.00034 55.6999 6.70034 54.1999C6.40034 52.6999 8.10032 51.0999 10.5003 50.6999C12.9003 50.1999 15.1003 51.0999 15.4003 52.5999C15.7003 54.0999 14.0003 55.6999 11.6003 56.0999Z" fill="#FFB300"/>
<path d="M8.7002 63.4998C8.7002 63.4998 8.80021 63.5998 8.90021 63.8998C9.00021 64.1998 9.20018 64.5998 9.50018 65.0998C10.0002 66.0998 10.9002 67.4998 12.1002 69.0998C14.6002 72.3998 18.6002 76.7998 24.1002 81.0998C26.9002 83.1998 30.0002 85.2998 33.5002 87.0998C37.0002 88.8998 40.9002 90.3998 44.9002 91.5998C49.0002 92.6998 53.3002 93.3998 57.7002 93.4998C62.2002 93.5998 66.5002 93.0998 71.2002 92.1998C75.7002 91.3998 80.2002 90.1998 84.5002 88.7998C88.8002 87.3998 93.0002 85.6998 96.8002 83.6998C100.7 81.7998 104.3 79.5998 107.5 77.2998C110.7 74.9998 113.7 72.5998 116.3 70.1998C118.8 67.7998 121.1 65.4998 122.9 63.2998C124.7 61.0998 126.3 59.0998 127.5 57.3998C128.7 55.6998 129.6 54.2998 130.2 53.2998C130.8 52.2998 131.1 51.7998 131.1 51.7998C131.1 51.7998 130.9 52.3998 130.6 53.4998C130.2 54.5998 129.7 56.0998 128.8 58.0998C127.1 61.9998 124.1 67.3998 119.3 73.0998C118.1 74.4998 116.8 75.8998 115.4 77.3998C114 78.7998 112.5 80.1998 110.8 81.5998C107.5 84.3998 103.9 86.9998 99.8002 89.2998C95.8002 91.5998 91.4002 93.6998 86.7002 95.2998C82.1002 96.9998 77.3002 98.1998 72.4002 99.1998C67.7002 100.1 62.4002 100.7 57.4002 100.4C52.4002 100.1 47.5002 99.1998 43.0002 97.5998C38.5002 96.0998 34.4002 93.9998 30.8002 91.5998C27.2002 89.2998 24.0002 86.6998 21.4002 84.0998C16.1002 78.8998 12.7002 73.5998 10.8002 69.7998C9.80017 67.8998 9.30018 66.2998 9.00018 65.1998C8.80018 64.5998 8.8002 64.1998 8.7002 63.8998C8.7002 63.5998 8.7002 63.4998 8.7002 63.4998Z" fill="#FFB300"/>
<path d="M65.2998 77.6C65.2998 77.6 66.3998 77.3 68.2998 76.7C69.1998 76.4 70.3998 76.1 71.6998 75.7C72.9998 75.3 74.4998 74.8 76.0998 74.3C76.8998 74.1 77.6998 73.7 78.5998 73.4C79.3998 73.1 80.2998 72.8 81.1998 72.4C82.0998 72 82.9998 71.7 83.8998 71.3C84.7998 70.9 85.6998 70.5 86.6998 70C87.6998 69.6 88.5998 69.1 89.4998 68.6C90.3998 68.1 91.3998 67.6 92.2998 67.1C93.1998 66.6 94.1998 66 95.0998 65.5C96.0998 65 96.8998 64.3 97.8998 63.7C99.7998 62.6 101.5 61.1 103.2 59.9C104.8 58.5 106.5 57.2 108 55.8C108.7 55.1 109.4 54.4 110.2 53.7C110.6 53.4 110.9 53 111.3 52.7C111.6 52.3 111.9 52 112.3 51.6C112.9 50.9 113.6 50.2 114.2 49.5C114.8 48.9 115.4 48.2 115.9 47.5C116.9 46.2 117.9 45 118.8 43.9C119.6 42.8 120.3 41.8 120.9 41C122.1 39.4 122.8 38.5 122.8 38.5C122.8 38.5 122.4 39.6 121.7 41.4C121.3 42.3 120.9 43.5 120.3 44.7C119.6 45.9 118.9 47.3 118 48.8C117.2 50.3 116 51.8 114.9 53.5C114.6 53.9 114.3 54.3 114 54.7C113.7 55.1 113.3 55.5 113 55.9C112.3 56.7 111.6 57.5 110.9 58.3C110.2 59.1 109.3 59.9 108.5 60.6C107.7 61.4 106.9 62.2 106 62.9C104.2 64.3 102.4 65.8 100.4 67.1C99.3998 67.7 98.4998 68.4 97.3998 68.9C96.3998 69.5 95.3998 70 94.3998 70.6C93.3998 71.2 92.2998 71.6 91.2998 72C90.2998 72.5 89.2998 72.9 88.1998 73.3C87.1998 73.7 86.1998 74.1 85.1998 74.4C84.1998 74.7 83.1998 75 82.2998 75.2C80.3998 75.7 78.4998 76.1 76.7998 76.4C75.0998 76.7 73.4998 76.9 72.0998 77C70.6998 77.2 69.4998 77.2 68.4998 77.3C67.4998 77.4 66.6998 77.3 66.1998 77.3C65.5998 77.6 65.2998 77.6 65.2998 77.6Z" fill="white"/>
<path d="M139.7 7.39983L135.9 6.29979C134.6 5.89979 133.2 6.6998 132.8 7.9998L127.8 24.7998C127.4 26.0998 128.2 27.4998 129.5 27.8998L133.3 28.9998C134.6 29.3998 136 28.5998 136.4 27.2998L141.4 10.4998C141.7 9.1998 141 7.79983 139.7 7.39983Z" fill="#FFFF00"/>
<path d="M133 30.8999C132.4 30.8999 131.8 30.7999 131.3 30.6999L130.1 30.2999C126.9 29.3999 125.1 25.9999 126 22.7999L130.2 8.69989C131 6.19989 133.3 4.3999 136 4.3999C136.6 4.3999 137.2 4.49985 137.7 4.59985L138.9 4.99988C142.1 5.89988 143.9 9.29988 143 12.4999L138.8 26.5999C138.1 29.1999 135.7 30.8999 133 30.8999ZM136.1 8.69989C135.3 8.69989 134.7 9.1999 134.5 9.8999L130.3 23.9999C130 24.8999 130.6 25.8999 131.5 26.0999L132.7 26.4999C133.6 26.7999 134.6 26.1999 134.8 25.2999L139 11.1999C139.3 10.2999 138.8 9.29985 137.8 9.09985L136.6 8.69989C136.4 8.69989 136.2 8.69989 136.1 8.69989Z" fill="#FFB300"/>
<path d="M128.401 46.2999C114.501 85.0999 63.8009 109.9 33.0009 91.4999C25.9009 86.7999 23.8009 79.6999 18.5009 78.4999C12.3009 77.0999 8.20095 85.7999 9.70095 95.7999C11.9009 110 31.0009 125.3 41.3009 129C85.0009 144.6 133.101 121.8 148.701 78.0999C152.601 67.1999 154.101 55.9999 153.501 45.1999C152.301 21.8999 135.901 25.2999 128.401 46.2999Z" fill="#FFFF00"/>
<path d="M69.7005 136.7C59.8005 136.7 49.9005 135 40.5005 131.6C30.4005 128 9.40052 112.2 7.00052 96.0999C5.90052 89.0999 7.30049 82.3999 10.6005 78.5999C12.9005 75.8999 16.0005 74.7999 19.3005 75.5999C23.1005 76.4999 25.4005 79.2999 27.9005 82.2999C29.8005 84.5999 31.8005 87.0999 34.8005 88.9999C41.1005 92.7999 48.6005 94.6999 57.1005 94.6999C85.8005 94.6999 116.001 72.9999 125.901 45.1999C130.001 33.5999 137.301 26.0999 144.301 26.0999C146.901 26.0999 155.701 27.3999 156.6 44.7999C157.201 56.3999 155.601 67.7999 151.701 78.8999C139.201 113.5 106.301 136.7 69.7005 136.7ZM17.2005 81.0999C16.9005 81.0999 16.0005 81.0999 14.9005 82.3999C13.1005 84.4999 11.7005 89.2999 12.6005 95.2999C14.5005 107.5 31.9005 122.5 42.4005 126.2C51.2005 129.4 60.4005 131 69.7005 131C103.901 131 134.6 109.3 146.1 77.0999C149.8 66.7999 151.301 56.0999 150.701 45.2999C150.201 37.0999 147.701 31.9999 144.1 31.9999C140.5 31.9999 134.9 36.7999 131.1 47.2999C120.4 77.1999 87.8005 100.6 56.9005 100.6C47.4005 100.6 38.9005 98.3999 31.6005 93.9999C27.8005 91.4999 25.3005 88.4999 23.3005 86.0999C21.3005 83.6999 19.7005 81.7999 17.9005 81.2999C17.6005 81.1999 17.4005 81.0999 17.2005 81.0999Z" fill="#FFB300"/>
<path d="M17.6002 85.4999C15.1002 86.3999 12.6003 85.8999 12.0003 84.3999C11.4003 82.7999 13.0003 80.7999 15.5003 79.8999C18.0003 78.9999 20.5002 79.4999 21.1002 80.9999C21.7002 82.4999 20.1002 84.4999 17.6002 85.4999Z" fill="#FFB300"/>
<path d="M15.8008 93.9999C15.8008 93.9999 15.9008 94.0999 16.1008 94.3999C16.3008 94.6999 16.5008 95.0999 16.9008 95.5999C17.6008 96.5999 18.8008 97.8999 20.4008 99.4999C23.7008 102.7 28.8008 106.7 35.6008 110.4C39.0008 112.2 42.8008 113.9 46.9008 115.3C51.0008 116.7 55.5008 117.6 60.2008 118.2C64.9008 118.7 69.7008 118.6 74.5008 117.9C79.4008 117.2 84.0008 115.8 88.9008 114C93.7008 112.3 98.4008 110.2 102.801 107.9C107.201 105.6 111.401 103 115.301 100.1C119.101 97.2999 122.701 94.2999 125.801 91.1999C128.901 88.0999 131.701 84.9999 134.001 81.8999C136.301 78.7999 138.301 75.7999 139.901 73.0999C141.501 70.3999 142.801 67.8999 143.801 65.7999C144.701 63.6999 145.501 62.0999 145.901 60.8999C146.401 59.6999 146.601 59.0999 146.601 59.0999C146.601 59.0999 146.501 59.7999 146.301 60.9999C146.101 62.1999 145.701 63.9999 145.101 66.2999C143.901 70.7999 141.601 77.1999 137.401 84.1999C136.401 85.9999 135.201 87.6999 133.901 89.4999C132.601 91.2999 131.201 93.0999 129.701 94.7999C126.701 98.3999 123.201 101.9 119.201 105.1C115.201 108.4 110.801 111.3 106.201 114C101.501 116.7 96.5008 118.9 91.4008 120.8C86.4008 122.6 80.9008 124.2 75.4008 124.8C69.9008 125.4 64.5008 125.3 59.3008 124.4C54.2008 123.6 49.3008 122.1 45.0008 120.2C40.6008 118.4 36.8008 116.1 33.4008 113.8C26.7008 109.1 22.1008 104.1 19.3008 100.3C17.9008 98.3999 17.0008 96.7999 16.5008 95.5999C16.2008 94.9999 16.1008 94.5999 15.9008 94.2999C15.9008 94.0999 15.8008 93.9999 15.8008 93.9999Z" fill="#FFB300"/>
<path d="M79.8008 99.0999C79.8008 99.0999 80.9008 98.5999 82.9008 97.6999C83.9008 97.1999 85.1008 96.6999 86.4008 95.9999C87.8008 95.3999 89.3008 94.5999 90.9008 93.6999C91.7008 93.2999 92.6008 92.7999 93.4008 92.2999C94.3008 91.7999 95.2008 91.3999 96.1008 90.7999C97.0008 90.1999 97.9008 89.6999 98.9008 89.0999C99.8008 88.4999 100.801 87.8999 101.701 87.1999C102.701 86.5999 103.601 85.8999 104.501 85.1999C105.401 84.4999 106.401 83.7999 107.301 83.0999C108.201 82.2999 109.201 81.5999 110.101 80.7999C111.001 79.9999 111.901 79.1999 112.801 78.2999C114.701 76.6999 116.201 74.8999 117.901 73.1999C119.401 71.3999 121.001 69.5999 122.401 67.7999C123.101 66.8999 123.701 65.9999 124.401 65.0999C124.701 64.6999 125.101 64.1999 125.401 63.7999C125.701 63.2999 126.001 62.8999 126.301 62.4999C126.901 61.5999 127.401 60.7999 127.901 59.8999C128.501 59.0999 129.001 58.2999 129.401 57.3999C130.301 55.7999 131.101 54.2999 131.901 52.9999C132.601 51.5999 133.101 50.4999 133.601 49.4999C134.601 47.4999 135.201 46.3999 135.201 46.3999C135.201 46.3999 135.001 47.5999 134.501 49.7999C134.201 50.8999 134.001 52.1999 133.501 53.6999C133.001 55.0999 132.401 56.7999 131.701 58.5999C131.101 60.3999 130.101 62.1999 129.101 64.1999C128.901 64.6999 128.601 65.1999 128.401 65.6999C128.101 66.1999 127.801 66.6999 127.501 67.1999C126.901 68.1999 126.301 69.1999 125.601 70.1999C125.001 71.1999 124.201 72.1999 123.501 73.1999C122.801 74.1999 122.001 75.1999 121.201 76.0999C119.501 77.8999 117.801 79.8999 115.901 81.5999C114.901 82.3999 114.001 83.3999 113.001 84.0999C112.001 84.8999 111.001 85.6999 110.001 86.4999C109.001 87.2999 107.901 87.8999 106.901 88.5999C105.901 89.2999 104.901 89.9999 103.801 90.4999C102.801 91.0999 101.801 91.6999 100.701 92.1999C99.7008 92.6999 98.7008 93.1999 97.7008 93.6999C95.7008 94.5999 93.8008 95.3999 92.0008 95.9999C91.1008 96.2999 90.2008 96.5999 89.4008 96.8999C88.6008 97.0999 87.8008 97.3999 87.0008 97.5999C85.5008 98.0999 84.2008 98.2999 83.1008 98.5999C82.0008 98.8999 81.2008 98.9999 80.6008 99.0999C80.1008 98.9999 79.8008 99.0999 79.8008 99.0999Z" fill="white"/>
<path d="M147.7 9.50007L143.3 9.00007C141.8 8.80007 140.4 9.90009 140.2 11.4001L137.8 30.5001C137.6 32.0001 138.7 33.4 140.2 33.6L144.6 34.1C146.1 34.3 147.5 33.2001 147.7 31.7001L150.1 12.6C150.3 11.1 149.2 9.70007 147.7 9.50007Z" fill="#FFFF00"/>
<path d="M143.7 36.0999C143.4 36.0999 143.2 36.0999 142.9 36.0999L141.5 35.8999C139.8 35.6999 138.3 34.7999 137.2 33.4999C136.1 32.0999 135.7 30.4999 135.9 28.7999L137.9 12.6999C138.3 9.19992 141.5 6.69989 145.1 7.09989L146.5 7.2999C148.2 7.4999 149.7 8.39992 150.8 9.69992C151.9 11.0999 152.3 12.6999 152.1 14.3999L150.1 30.4999C149.7 33.6999 147 36.0999 143.7 36.0999ZM144.4 11.2999C143.3 11.2999 142.4 12.0999 142.3 13.0999L140.3 29.1999C140.2 29.7999 140.4 30.2999 140.7 30.6999C141 31.0999 141.5 31.3999 142.1 31.4999L143.5 31.6999C144.7 31.7999 145.7 30.9999 145.8 29.8999L147.8 13.7999C147.9 13.1999 147.7 12.6999 147.4 12.2999C147.1 11.8999 146.6 11.5999 146 11.4999L144.6 11.2999C144.5 11.2999 144.5 11.2999 144.4 11.2999Z" fill="#FFB300"/>
<path d="M142.401 45.2C142.401 87.9 101.501 129.8 65.0008 122.6C56.4008 120.5 51.9008 114.3 46.3008 114.9C39.7008 115.7 38.8008 125.6 43.8008 134.8C50.9008 147.9 74.8008 156.2 86.3008 156.2C134.401 156.2 173.401 117.2 173.401 69.1C173.401 57.1 171.001 45.7 166.601 35.3C157.201 13.1 142.401 22.2 142.401 45.2Z" fill="#FFFF00"/>
<path d="M86.2003 159.1C75.1003 159.1 49.2003 151 41.2003 136.2C37.4003 129.2 36.6003 121.6 39.1003 116.8C40.5003 114.1 42.9003 112.4 45.9003 112C49.8003 111.6 53.1003 113.5 56.6003 115.6C59.3003 117.2 62.1003 118.9 65.7003 119.8C68.1003 120.3 70.8003 120.5 73.4003 120.5C106.1 120.5 139.5 82.5 139.5 45.2C139.5 30.2 145.5 19.7 154 19.7C157.4 19.7 163.8 21.6 169.2 34.2C173.9 45.3 176.2 56.9999 176.2 69.0999C176.2 118.7 135.9 159.1 86.2003 159.1ZM47.1003 117.8C46.9003 117.8 46.8003 117.8 46.6003 117.8C45.9003 117.9 45.0003 118.1 44.3003 119.5C43.0003 122 43.1003 127.5 46.3003 133.5C52.8003 145.6 76.2003 153.3 86.2003 153.3C132.7 153.3 170.5 115.5 170.5 68.9999C170.5 57.6999 168.3 46.6999 163.9 36.2999C161 29.3999 157.3 25.4 154.1 25.4C149.8 25.4 145.3 32.8 145.3 45.2C145.3 86.1 109.7 126.3 73.5003 126.3C70.5003 126.3 67.4003 126 64.5003 125.4C59.9003 124.3 56.5003 122.2 53.7003 120.5C51.0003 119 49.0003 117.8 47.1003 117.8Z" fill="#FFB300"/>
<path d="M47.9003 122.2C45.8003 124 43.1003 124.4 42.0003 123C40.9003 121.7 41.7003 119.1 43.9003 117.4C46.0003 115.6 48.7003 115.2 49.8003 116.6C50.8003 117.8 50.0003 120.4 47.9003 122.2Z" fill="#FFB300"/>
<path d="M49.0996 131.1C49.0996 131.1 49.1996 131.2 49.4996 131.4C49.7996 131.6 50.1996 131.9 50.6996 132.2C51.6996 132.9 53.3996 133.8 55.4996 134.8C59.7996 136.8 66.1996 139 74.0996 140.2C77.9996 140.8 82.3997 141.1 86.8997 141.1C91.3997 141 96.0997 140.4 100.9 139.3C105.6 138.2 110.3 136.4 114.8 134C119.3 131.6 123.4 128.6 127.6 125.2C131.7 121.9 135.5 118.2 139 114.4C142.5 110.6 145.7 106.6 148.5 102.4C151.3 98.2999 153.7 94.0999 155.6 89.9999C157.5 85.8999 159.1 81.7999 160.3 77.9999C161.5 74.1999 162.4 70.5999 163 67.3999C163.6 64.1999 164 61.2999 164.2 58.8999C164.4 56.4999 164.5 54.6999 164.6 53.3999C164.6 52.0999 164.7 51.3999 164.7 51.3999C164.7 51.3999 164.8 52.0999 165 53.2999C165.2 54.5999 165.5 56.4999 165.7 58.8999C166 63.6999 166.1 70.7999 164.4 78.9999C164 81.0999 163.5 83.1999 162.9 85.3999C162.3 87.5999 161.5 89.7999 160.6 92.0999C158.9 96.5999 156.7 101.3 153.9 105.8C151.2 110.3 147.9 114.8 144.2 119C140.6 123.2 136.5 127.1 132.1 130.7C127.9 134.2 123 137.7 117.9 140.2C112.8 142.7 107.4 144.5 102.1 145.5C96.7996 146.5 91.5996 146.7 86.6996 146.4C81.7996 146.1 77.2996 145.3 73.1996 144.2C64.9996 142 58.7996 138.7 54.6996 136C52.6996 134.6 51.1996 133.4 50.2996 132.4C49.7996 132 49.4996 131.6 49.2996 131.3C49.1996 131.2 49.0996 131.1 49.0996 131.1Z" fill="#FFB300"/>
<path d="M113.3 113.8C113.3 113.8 114.2 112.9 115.9 111.3C116.7 110.5 117.7 109.6 118.8 108.4C119.9 107.3 121.1 106 122.4 104.6C123.1 103.9 123.7 103.1 124.4 102.4C125.1 101.6 125.8 100.9 126.5 99.9999C127.2 99.1999 127.9 98.2999 128.6 97.3999C129.3 96.4999 130 95.5999 130.7 94.5999C131.4 93.6999 132.1 92.6999 132.8 91.5999C133.4 90.5999 134.2 89.5999 134.8 88.4999C135.4 87.3999 136.1 86.3999 136.7 85.2999C137.4 84.1999 137.9 83.0999 138.5 81.9999C139.8 79.7999 140.7 77.4999 141.7 75.1999C142.5 72.8999 143.5 70.5999 144.2 68.3999C144.5 67.2999 144.8 66.0999 145.2 65.0999C145.4 64.5999 145.5 63.9999 145.7 63.4999C145.8 62.9999 145.9 62.3999 146.1 61.8999C146.3 60.7999 146.6 59.7999 146.8 58.7999C147.1 57.7999 147.3 56.7999 147.4 55.8999C147.7 53.9999 148 52.2999 148.3 50.6999C148.5 49.0999 148.6 47.7999 148.7 46.6999C148.9 44.3999 149.1 43.0999 149.1 43.0999C149.1 43.0999 149.3 44.3999 149.5 46.6999C149.6 47.7999 149.8 49.1999 149.9 50.7999C149.9 52.3999 149.9 54.1999 149.9 56.1999C149.9 58.1999 149.6 60.2999 149.3 62.4999C149.2 63.0999 149.2 63.5999 149.1 64.1999C149 64.7999 148.9 65.2999 148.7 65.8999C148.5 67.0999 148.2 68.2999 147.9 69.4999C147.7 70.6999 147.2 71.8999 146.8 73.0999C146.4 74.2999 146.1 75.5999 145.6 76.7999C144.6 79.1999 143.6 81.6999 142.3 83.9999C141.7 85.1999 141.1 86.3999 140.4 87.4999C139.7 88.5999 139 89.6999 138.3 90.7999C137.6 91.8999 136.8 92.8999 136 93.8999C135.2 94.8999 134.5 95.8999 133.7 96.8999C132.9 97.7999 132.1 98.7999 131.3 99.6999C130.5 100.5 129.7 101.4 128.9 102.2C127.3 103.8 125.7 105.2 124.2 106.5C123.4 107.1 122.7 107.7 122 108.3C121.3 108.8 120.6 109.3 119.9 109.8C118.6 110.8 117.4 111.5 116.5 112.1C115.6 112.7 114.7 113.1 114.2 113.4C113.6 113.6 113.3 113.8 113.3 113.8Z" fill="white"/>
<path d="M148.5 2.59999L144.1 3.59999C142.6 3.89999 141.6 5.50002 141.9 7.00002L146.3 26.5C146.6 28 148.2 29 149.7 28.7L154.1 27.7C155.6 27.4 156.6 25.8 156.3 24.3L151.9 4.8C151.5 3.2 150 2.29999 148.5 2.59999Z" fill="#FFFF00"/>
<path d="M150.2 30.5999C147.1 30.5999 144.4 28.3999 143.8 25.4999L140.1 9.09991C139.3 5.59991 141.5 1.99995 145.1 1.19995L146.5 0.899963C147 0.799963 147.5 0.699951 147.9 0.699951C151 0.699951 153.7 2.89993 154.3 5.79993L158 22.2C158.4 23.9 158.1 25.7 157.1 27.2C156.2 28.7 154.7 29.6999 153 30.0999L151.6 30.4C151.1 30.5 150.7 30.5999 150.2 30.5999ZM147.9 4.99994C147.7 4.99994 147.6 4.99991 147.4 5.09991L146 5.39996C144.8 5.69996 144 6.89991 144.3 8.09991L148 24.4999C148.2 25.4999 149.2 26.2999 150.2 26.2999C150.4 26.2999 150.5 26.3 150.7 26.2L152.1 25.9C152.7 25.8 153.2 25.4 153.5 24.9C153.8 24.4 153.9 23.8 153.8 23.2L150.1 6.79993C149.9 5.69993 148.9 4.99994 147.9 4.99994Z" fill="#FFB300"/>
</svg>
