<svg width="171" height="176" viewBox="0 0 171 176" fill="none" xmlns="http://www.w3.org/2000/svg">
<path d="M28.7002 171C27.1002 167 25.4002 163 23.5002 158.8C14.2002 137.3 3.7002 113 3.7002 82.0001C3.7002 37.3001 38.7002 3.6001 85.1002 3.6001C131.5 3.6001 166.5 37.3001 166.5 82.0001C166.5 112.9 156 137.3 146.7 158.8C144.9 163 143.2 167 141.5 171L112.2 159C113.9 154.7 115.8 150.4 117.6 146.2C126.4 125.7 134.8 106.4 134.8 82.0001C134.8 58.8001 117.7 35.3002 85.1002 35.3002C52.5002 35.3002 35.4002 58.8001 35.4002 82.0001C35.4002 106.4 43.8002 125.7 52.6002 146.2C54.4002 150.4 56.3002 154.7 58.0002 158.9L28.7002 171Z" fill="#FFE600"/>
<path d="M143.6 175.7L107.6 161L109 157.7C110.7 153.4 112.6 149.1 114.4 144.9C123.1 124.7 131.3 105.7 131.3 82C131.3 60.6 115.5 38.9 85.2002 38.9C54.9002 38.9 39.1002 60.6 39.1002 82C39.1002 105.7 47.3002 124.7 56.0002 144.8C57.8002 149 59.7002 153.3 61.4002 157.6L62.8002 160.9L26.8002 175.6L25.4002 172.3C23.8002 168.4 22.1002 164.4 20.3002 160.2C10.9002 138.4 0.200195 113.7 0.200195 82C0.200195 35.3 36.7002 0 85.2002 0C133.6 0 170.2 35.2 170.2 82C170.2 113.7 159.5 138.4 150.1 160.2C148.3 164.4 146.6 168.4 145 172.3L143.6 175.7ZM85.2002 7.30005C40.9002 7.30005 7.40021 39.4 7.40021 82.1C7.40021 112.3 17.8002 136.3 26.9002 157.5C28.2002 160.6 29.5002 163.5 30.7002 166.4L53.4002 157.2C52.1002 154.1 50.7002 151 49.4002 147.9C40.4002 127 31.9002 107.3 31.9002 82.2C31.9002 57.2 50.2002 31.9 85.2002 31.9C120.2 31.9 138.5 57.2 138.5 82.2C138.5 107.3 130 127 121 147.8C119.7 150.9 118.3 154 117 157.2L139.7 166.5C140.9 163.6 142.2 160.7 143.5 157.6C152.6 136.4 163 112.4 163 82.2C163 39.4 129.5 7.30005 85.2002 7.30005Z" fill="#B58200"/>
<path d="M85.6003 26.4C89.0245 26.4 91.8004 23.6241 91.8004 20.2C91.8004 16.7758 89.0245 14 85.6003 14C82.1762 14 79.4004 16.7758 79.4004 20.2C79.4004 23.6241 82.1762 26.4 85.6003 26.4Z" fill="#B58200"/>
<path d="M21.7998 126.2C21.7998 126.2 21.5998 125.7 21.1998 124.9C20.7998 124 20.1998 122.8 19.5998 121.1C18.8998 119.4 18.1998 117.4 17.4998 115.1C16.6998 112.7 15.9998 110 15.3998 107C15.0998 105.5 14.7998 103.9 14.4998 102.3C14.2998 100.7 13.9998 99 13.7998 97.2C13.3998 93.7 13.2998 90 13.2998 86.1C13.3998 82.2 13.6998 78.2 14.2998 74.2C14.8998 70.2 15.7998 66.1 16.9998 62.1C18.2998 58.1 19.7998 54.2 21.6998 50.5C23.5998 46.8 25.6998 43.4 28.0998 40.3C30.4998 37.2 33.0998 34.4 35.7998 32C38.3998 29.6 41.1998 27.6 43.7998 25.9C46.3998 24.2 48.8998 22.9 51.1998 21.9C53.3998 20.8 55.4998 20.2 57.1998 19.5C58.8998 18.9 60.1998 18.6 61.0998 18.4C61.9998 18.2 62.4998 18 62.4998 18C62.4998 18 60.7998 19 57.7998 20.8C56.2998 21.8 54.4998 22.8 52.5998 24.3C51.5998 25 50.5998 25.7 49.5998 26.6C48.5998 27.5 47.3998 28.2 46.3998 29.3C45.2998 30.3 44.1998 31.2 43.0998 32.4C42.4998 33 41.9998 33.5 41.3998 34.1C40.7998 34.7 40.2998 35.3 39.7998 35.9C37.5998 38.3 35.4998 41.1 33.4998 44.1C31.4998 47.1 29.7998 50.2999 28.1998 53.7C26.6998 57.1 25.2998 60.7001 24.0998 64.3C22.9998 68 22.0998 71.7 21.3998 75.4C20.7998 79.1 20.1998 82.8 19.8998 86.5C19.5998 90.1 19.3998 93.6 19.3998 97C19.3998 100.4 19.3998 103.5 19.5998 106.5C19.6998 108 19.7998 109.4 19.8998 110.7C19.9998 112 20.0998 113.3 20.2998 114.5C20.3998 115.7 20.5998 116.8 20.6998 117.9C20.7998 118.9 20.9998 119.9 21.0998 120.8C21.3998 122.5 21.5998 123.9 21.7998 124.8C21.6998 125.7 21.7998 126.2 21.7998 126.2Z" fill="#FFF385"/>
<g opacity="0.41">
<path d="M134.601 159.7C134.601 159.7 136.201 154.4 138.601 146.5C139.801 142.6 141.201 138 142.601 133.1C143.301 130.7 144.101 128.1 144.801 125.6C145.501 123 146.301 120.4 147.001 117.8C147.801 115.2 148.401 112.6 149.101 110C149.801 107.4 150.401 104.9 151.001 102.4C151.501 99.8999 152.101 97.4999 152.601 95.2999C152.801 94.1999 153.001 93.0999 153.201 91.9999C153.501 90.8999 153.601 89.8999 153.701 88.8999C154.001 86.8999 154.401 85.0999 154.401 83.3999C154.501 82.5999 154.501 81.7999 154.601 81.0999C154.601 80.6999 154.701 80.3999 154.701 80.0999C154.701 79.7999 154.701 79.4998 154.701 79.1998C154.701 76.7998 154.801 75.3999 154.801 75.3999C154.801 75.3999 155.201 76.6999 155.801 79.0999C156.201 80.2999 156.301 81.7999 156.501 83.4999C156.801 85.1999 156.801 87.0998 156.801 89.1998C156.901 91.2998 156.701 93.5999 156.601 95.9999C156.401 98.3999 156.101 100.9 155.701 103.5C155.501 104.8 155.201 106.1 155.001 107.4C154.801 108.7 154.501 110.1 154.201 111.4C153.601 114.1 152.901 116.8 152.201 119.4C151.501 122.1 150.601 124.7 149.801 127.3C148.901 129.9 148.001 132.4 147.101 134.8C146.101 137.2 145.201 139.5 144.201 141.7C143.201 143.9 142.201 145.9 141.301 147.8C140.401 149.7 139.401 151.3 138.601 152.8C137.801 154.3 137.001 155.5 136.301 156.6C135.701 157.6 135.101 158.4 134.701 158.9C134.801 159.4 134.601 159.7 134.601 159.7Z" fill="#B58200"/>
</g>
<path d="M37.6003 44.7999C41.0245 44.7999 43.8004 42.024 43.8004 38.5999C43.8004 35.1757 41.0245 32.3999 37.6003 32.3999C34.1762 32.3999 31.4004 35.1757 31.4004 38.5999C31.4004 42.024 34.1762 44.7999 37.6003 44.7999Z" fill="#B58200"/>
<path d="M140.8 38.5999C140.8 35.1999 138 32.3999 134.6 32.3999C131.2 32.3999 128.4 35.1999 128.4 38.5999C128.4 41.9999 131.2 44.7999 134.6 44.7999C138 44.7999 140.8 42.0999 140.8 38.5999Z" fill="#B58200"/>
<path d="M158.8 83.4C158.8 80 156 77.2 152.6 77.2C149.2 77.2 146.4 80 146.4 83.4C146.4 86.8 149.2 89.6 152.6 89.6C156 89.6 158.8 86.9 158.8 83.4Z" fill="#B58200"/>
<path d="M26.3004 83.4C26.3004 80 23.5003 77.2 20.1003 77.2C16.7003 77.2 13.9004 80 13.9004 83.4C13.9004 86.8 16.7003 89.6 20.1003 89.6C23.5003 89.6 26.3004 86.9 26.3004 83.4Z" fill="#B58200"/>
<path d="M34.0006 126.2C34.0006 122.8 31.2006 120 27.8006 120C24.4006 120 21.6006 122.8 21.6006 126.2C21.6006 129.6 24.4006 132.4 27.8006 132.4C31.2006 132.4 34.0006 129.7 34.0006 126.2Z" fill="#B58200"/>
<path d="M149.2 126.2C149.2 122.8 146.4 120 143 120C139.6 120 136.8 122.8 136.8 126.2C136.8 129.6 139.6 132.4 143 132.4C146.4 132.4 149.2 129.7 149.2 126.2Z" fill="#B58200"/>
</svg>
