<svg width="160" height="158" viewBox="0 0 160 158" fill="none" xmlns="http://www.w3.org/2000/svg">
<path d="M145.9 106.5C151.4 101.5 154.8 94.3999 154.8 86.4999C154.8 76.2999 149.1 67.3999 140.7 62.7999C145.1 57.9999 147.8 51.5999 147.8 44.4999C147.8 29.5999 135.7 17.3999 120.7 17.3999C109.1 17.3999 99.2 24.6999 95.4 34.9999C93.1 34.3999 90.7 33.9999 88.3 33.9999C76.3 33.9999 66.1 41.8999 62.6 52.6999C59.4 51.2999 55.8 50.5999 52.1 50.5999C37.2 50.5999 25 62.6999 25 77.6999C25 92.5999 37.1 104.8 52.1 104.8C57.1 104.8 61.8 103.4 65.9 101C64.9 103.8 64.3 106.8 64.3 110C64.3 124.9 76.4 137.1 91.4 137.1C96 137.1 100.4 135.9 104.2 133.9C106.5 146.6 117.5 156.2 130.8 156.2C145.7 156.2 157.9 144.1 157.9 129.1C157.9 119.6 153.1 111.3 145.9 106.5ZM78.4 86.0999C78.2 86.1999 77.9 86.3999 77.7 86.4999C77.8 86.2999 77.9 86.0999 77.9 85.8999C78 85.9999 78.2 86.0999 78.4 86.0999Z" fill="#310078"/>
<path d="M130.8 157.5C117.6 157.5 106.3 148.5 103.2 135.9C99.5002 137.6 95.5002 138.5 91.4002 138.5C75.7002 138.5 62.9002 125.7 62.9002 110C62.9002 107.9 63.1002 105.9 63.6002 103.8C60.0002 105.4 56.1002 106.2 52.2002 106.2C36.5002 106.2 23.7002 93.4 23.7002 77.7C23.7002 62 36.5002 49.2 52.2002 49.2C55.5002 49.2 58.7002 49.8 61.8002 50.9C66.0002 39.9 76.5002 32.6 88.4002 32.6C90.5002 32.6 92.6002 32.8 94.7002 33.3C99.2002 22.9 109.5 16 120.9 16C136.6 16 149.4 28.8 149.4 44.5C149.4 51 147.1 57.3 143 62.4C151.3 67.6 156.3 76.7 156.3 86.5C156.3 93.9 153.4 101.1 148.2 106.4C155.2 111.8 159.4 120.1 159.4 129C159.4 144.7 146.6 157.5 130.8 157.5ZM105.3 131.5L105.7 133.5C107.9 145.7 118.5 154.6 130.9 154.6C145 154.6 156.5 143.1 156.5 129C156.5 120.5 152.3 112.5 145.1 107.7L143.6 106.7L145 105.5C150.4 100.6 153.5 93.7 153.5 86.5C153.5 77.2 148.4 68.5 140.2 64L138.6 63.1L139.8 61.7C144.2 56.9 146.6 50.8 146.6 44.4C146.6 30.3 135.1 18.8 121 18.8C110.4 18.8 100.8 25.5 97.0002 35.5L96.5002 36.7L95.2002 36.4C92.9002 35.8 90.7002 35.5 88.4002 35.5C77.3002 35.5 67.5002 42.6 64.0002 53.2L63.5002 54.7L62.1002 54.1C58.9002 52.8 55.6002 52.1 52.2002 52.1C38.1002 52.1 26.6002 63.6 26.6002 77.7C26.6002 91.8 38.1002 103.3 52.2002 103.3C56.8002 103.3 61.3002 102.1 65.2002 99.7L68.6002 97.7L67.3002 101.4C66.3002 104.2 65.8002 107 65.8002 109.9C65.8002 124 77.3002 135.5 91.4002 135.5C95.6002 135.5 99.8002 134.4 103.5 132.4L105.3 131.5ZM75.0002 89.9L76.4002 85.9C76.4002 85.8 76.5002 85.7 76.5002 85.6L77.0002 84.1L81.7002 86L79.0002 87.5C78.9002 87.6 78.8002 87.6 78.6002 87.7L75.0002 89.9Z" fill="#310078"/>
<path d="M77.5998 77.5999C77.5998 63.5999 66.1998 52.2 52.1998 52.2C38.1998 52.2 26.7998 63.5999 26.7998 77.5999C26.7998 91.5999 38.1998 103 52.1998 103C66.1998 103 77.5998 91.5999 77.5998 77.5999Z" fill="url(#paint0_radial_104_6729)"/>
<path d="M52.1 104.7C37.2 104.7 25 92.6 25 77.6C25 62.7 37.1 50.5 52.1 50.5C67 50.5 79.2 62.6 79.2 77.6C79.2 92.5 67.1 104.7 52.1 104.7ZM52.1 53.9C39 53.9 28.4 64.6 28.4 77.6C28.4 90.7 39.1 101.3 52.1 101.3C65.2 101.3 75.8 90.6 75.8 77.6C75.9 64.5 65.2 53.9 52.1 53.9Z" fill="#310078"/>
<path opacity="0.51" d="M64.8004 66.4C64.8004 61.1 60.5004 56.7 55.1004 56.7C49.8004 56.7 45.4004 61 45.4004 66.4C45.4004 71.7 49.7004 76.0999 55.1004 76.0999C60.5004 75.9999 64.8004 71.7 64.8004 66.4Z" fill="white"/>
<path opacity="0.51" d="M62.8996 68.9C62.8996 67 61.3996 65.5 59.4996 65.5C57.5996 65.5 56.0996 67 56.0996 68.9C56.0996 70.8 57.5996 72.3 59.4996 72.3C61.3996 72.3 62.8996 70.8 62.8996 68.9Z" fill="white"/>
<path d="M33.7995 77.6001C34.7995 81.3001 36.2995 84.5001 38.4995 87.0001C40.6995 89.4001 43.4995 91.5001 46.4995 92.2001C49.9995 93.2001 53.1995 93.8001 56.4995 93.6001C59.7995 93.3001 63.1995 92.1001 66.5995 90.4001C64.4995 93.6001 61.1995 96.2001 57.1995 97.2001C53.1995 98.4001 48.8995 97.7001 45.2995 96.7001C40.9995 95.5001 37.6995 92.6001 35.5995 89.1001C33.4995 85.6001 32.8995 81.3001 33.7995 77.6001Z" fill="#310078"/>
<path d="M146.2 44.3998C146.2 30.3998 134.8 18.9998 120.8 18.9998C106.8 18.9998 95.4004 30.3998 95.4004 44.3998C95.4004 58.3998 106.8 69.7997 120.8 69.7997C134.9 69.7997 146.2 58.3998 146.2 44.3998Z" fill="url(#paint1_radial_104_6729)"/>
<path d="M120.8 71.4998C105.9 71.4998 93.7002 59.3998 93.7002 44.3998C93.7002 29.4998 105.8 17.2998 120.8 17.2998C135.7 17.2998 147.9 29.3998 147.9 44.3998C147.9 59.2998 135.8 71.4998 120.8 71.4998ZM120.8 20.6998C107.7 20.6998 97.1002 31.3998 97.1002 44.3998C97.1002 57.4998 107.8 68.0998 120.8 68.0998C133.9 68.0998 144.5 57.3998 144.5 44.3998C144.6 31.2998 133.9 20.6998 120.8 20.6998Z" fill="#310078"/>
<path opacity="0.51" d="M133.501 33.1998C133.501 27.8998 129.201 23.4998 123.801 23.4998C118.501 23.4998 114.101 27.7998 114.101 33.1998C114.101 38.4998 118.401 42.8998 123.801 42.8998C129.201 42.7998 133.501 38.4998 133.501 33.1998Z" fill="white"/>
<path opacity="0.51" d="M131.6 35.6998C131.6 33.7998 130.1 32.2998 128.2 32.2998C126.3 32.2998 124.8 33.7998 124.8 35.6998C124.8 37.5998 126.3 39.0998 128.2 39.0998C130.1 39.0998 131.6 37.5998 131.6 35.6998Z" fill="white"/>
<path d="M102.5 44.3999C103.5 48.0999 105 51.2999 107.2 53.7999C109.4 56.1999 112.2 58.2999 115.2 58.9999C118.7 59.9999 121.9 60.5999 125.2 60.3999C128.5 60.0999 131.9 58.8999 135.3 57.1999C133.2 60.3999 129.9 62.9999 125.9 63.9999C121.9 65.1999 117.6 64.4999 114 63.4999C109.7 62.2999 106.4 59.3999 104.3 55.8999C102.2 52.3999 101.6 48.0999 102.5 44.3999Z" fill="#310078"/>
<path d="M156.2 128.9C156.2 114.9 144.8 103.5 130.8 103.5C116.8 103.5 105.4 114.9 105.4 128.9C105.4 142.9 116.8 154.3 130.8 154.3C144.9 154.3 156.2 143 156.2 128.9Z" fill="url(#paint2_radial_104_6729)"/>
<path d="M130.8 156C115.9 156 103.7 143.9 103.7 128.9C103.7 114 115.8 101.8 130.8 101.8C145.7 101.8 157.9 113.9 157.9 128.9C157.9 143.9 145.8 156 130.8 156ZM130.8 105.2C117.7 105.2 107.1 115.9 107.1 128.9C107.1 142 117.8 152.6 130.8 152.6C143.9 152.6 154.5 141.9 154.5 128.9C154.6 115.8 143.9 105.2 130.8 105.2Z" fill="#310078"/>
<path opacity="0.51" d="M143.501 117.7C143.501 112.4 139.201 108 133.801 108C128.501 108 124.101 112.3 124.101 117.7C124.101 123 128.401 127.4 133.801 127.4C139.201 127.4 143.501 123 143.501 117.7Z" fill="white"/>
<path opacity="0.51" d="M141.6 120.2C141.6 118.3 140.1 116.8 138.2 116.8C136.3 116.8 134.8 118.3 134.8 120.2C134.8 122.1 136.3 123.6 138.2 123.6C140.1 123.7 141.6 122.1 141.6 120.2Z" fill="white"/>
<path d="M112.5 128.9C113.5 132.6 115 135.8 117.2 138.3C119.4 140.7 122.2 142.8 125.2 143.5C128.7 144.5 131.9 145.1 135.2 144.9C138.5 144.6 141.9 143.4 145.3 141.7C143.2 144.9 139.9 147.5 135.9 148.5C131.9 149.7 127.6 149 124 148C119.7 146.8 116.4 143.9 114.3 140.4C112.2 136.9 111.6 132.6 112.5 128.9Z" fill="#310078"/>
<path d="M113.8 60.9999C113.8 46.9999 102.4 35.5999 88.4 35.5999C74.4 35.5999 63 46.9999 63 60.9999C63 74.9999 74.4 86.3999 88.4 86.3999C102.4 86.3999 113.8 74.9999 113.8 60.9999Z" fill="url(#paint3_radial_104_6729)"/>
<path d="M88.3998 88.0999C73.4998 88.0999 61.2998 75.9999 61.2998 60.9999C61.2998 46.0999 73.3998 33.8999 88.3998 33.8999C103.3 33.8999 115.5 45.9999 115.5 60.9999C115.4 75.8999 103.3 88.0999 88.3998 88.0999ZM88.3998 37.2999C75.2998 37.2999 64.6998 47.9999 64.6998 60.9999C64.6998 74.0999 75.3998 84.6999 88.3998 84.6999C101.5 84.6999 112.1 73.9999 112.1 60.9999C112.1 47.8999 101.5 37.2999 88.3998 37.2999Z" fill="#310078"/>
<path opacity="0.51" d="M101.1 49.7999C101.1 44.4999 96.8002 40.0999 91.4002 40.0999C86.1002 40.0999 81.7002 44.3999 81.7002 49.7999C81.7002 55.0999 86.0002 59.4999 91.4002 59.4999C96.7002 59.3999 101.1 55.0999 101.1 49.7999Z" fill="white"/>
<path opacity="0.51" d="M99.0998 52.2999C99.0998 50.3999 97.5998 48.8999 95.6998 48.8999C93.7998 48.8999 92.2998 50.3999 92.2998 52.2999C92.2998 54.1999 93.7998 55.6999 95.6998 55.6999C97.5998 55.6999 99.0998 54.1999 99.0998 52.2999Z" fill="white"/>
<path d="M70.0996 61C71.0996 64.7 72.5996 67.9 74.7996 70.4C76.9996 72.8 79.7996 74.9 82.7996 75.6C86.2996 76.6 89.4996 77.2 92.7996 77C96.0996 76.7 99.4996 75.5 102.9 73.8C100.8 77 97.4996 79.6 93.4996 80.6C89.4996 81.8 85.1996 81.1 81.5996 80.1C77.2996 78.9 73.9996 76 71.8996 72.5C69.6996 69 69.0996 64.7 70.0996 61Z" fill="#310078"/>
<path d="M153.2 86.3998C153.2 72.3998 141.8 60.9998 127.8 60.9998C113.8 60.9998 102.4 72.3998 102.4 86.3998C102.4 100.4 113.8 111.8 127.8 111.8C141.8 111.8 153.2 100.5 153.2 86.3998Z" fill="url(#paint4_radial_104_6729)"/>
<path d="M127.8 113.5C112.9 113.5 100.7 101.4 100.7 86.3998C100.7 71.4998 112.8 59.2998 127.8 59.2998C142.7 59.2998 154.9 71.3998 154.9 86.3998C154.8 101.3 142.7 113.5 127.8 113.5ZM127.8 62.6998C114.7 62.6998 104.1 73.3998 104.1 86.3998C104.1 99.4998 114.8 110.1 127.8 110.1C140.9 110.1 151.5 99.3998 151.5 86.3998C151.5 73.2998 140.9 62.6998 127.8 62.6998Z" fill="#310078"/>
<path opacity="0.51" d="M140.501 75.1998C140.501 69.8998 136.201 65.4998 130.801 65.4998C125.501 65.4998 121.101 69.7998 121.101 75.1998C121.101 80.4998 125.401 84.8998 130.801 84.8998C136.101 84.8998 140.501 80.4998 140.501 75.1998Z" fill="white"/>
<path opacity="0.51" d="M138.5 77.6998C138.5 75.7998 137 74.2998 135.1 74.2998C133.2 74.2998 131.7 75.7998 131.7 77.6998C131.7 79.5998 133.2 81.0998 135.1 81.0998C137 81.0998 138.5 79.5998 138.5 77.6998Z" fill="white"/>
<path d="M109.5 86.3999C110.5 90.0999 112 93.2999 114.2 95.7999C116.4 98.1999 119.2 100.3 122.2 101C125.7 102 128.9 102.6 132.2 102.4C135.5 102.1 138.9 100.9 142.3 99.1999C140.2 102.4 136.9 105 132.9 106C128.9 107.2 124.6 106.5 121 105.5C116.7 104.3 113.4 101.4 111.3 97.8999C109.1 94.3999 108.5 90.0999 109.5 86.3999Z" fill="#310078"/>
<path d="M116.8 109.9C116.8 95.9 105.4 84.5 91.4 84.5C77.4 84.5 66 95.9 66 109.9C66 123.9 77.4 135.3 91.4 135.3C105.4 135.3 116.8 123.9 116.8 109.9Z" fill="url(#paint5_radial_104_6729)"/>
<path d="M91.3998 136.9C76.4998 136.9 64.2998 124.8 64.2998 109.8C64.2998 94.8999 76.3998 82.7 91.3998 82.7C106.3 82.7 118.5 94.7999 118.5 109.8C118.5 124.8 106.3 136.9 91.3998 136.9ZM91.3998 86.0999C78.2998 86.0999 67.6998 96.7999 67.6998 109.8C67.6998 122.9 78.3998 133.5 91.3998 133.5C104.5 133.5 115.1 122.8 115.1 109.8C115.2 96.7999 104.5 86.0999 91.3998 86.0999Z" fill="#310078"/>
<path opacity="0.51" d="M104.1 98.5999C104.1 93.2999 99.8002 88.8999 94.4002 88.8999C89.1002 88.8999 84.7002 93.1999 84.7002 98.5999C84.7002 103.9 89.0002 108.3 94.4002 108.3C99.8002 108.3 104.1 104 104.1 98.5999Z" fill="white"/>
<path opacity="0.51" d="M102.199 101.2C102.199 99.2998 100.699 97.7998 98.7994 97.7998C96.8994 97.7998 95.3994 99.2998 95.3994 101.2C95.3994 103.1 96.8994 104.6 98.7994 104.6C100.599 104.6 102.199 103.1 102.199 101.2Z" fill="white"/>
<path d="M73.1002 109.9C74.1002 113.6 75.6002 116.8 77.8002 119.3C80.0002 121.7 82.8002 123.8 85.8002 124.5C89.3002 125.5 92.5002 126.1 95.8002 125.9C99.1002 125.6 102.5 124.4 105.9 122.7C103.8 125.9 100.5 128.5 96.5002 129.5C92.5002 130.7 88.2002 130 84.6002 129C80.3002 127.8 77.0002 124.9 74.9002 121.4C72.7002 117.9 72.2002 113.5 73.1002 109.9Z" fill="#310078"/>
<path d="M77.6004 37.1998C77.6004 37.1998 48.9004 46.2997 33.8004 40.2997C18.7004 34.2997 3.90039 8.19976 3.90039 8.19976C3.90039 8.19976 32.6004 -0.90028 47.7004 5.09972C62.8004 10.9997 77.6004 37.1998 77.6004 37.1998Z" fill="#00803F"/>
<path d="M46.8002 44.5999C41.3002 44.5999 36.6002 43.8999 33.0002 42.3999C17.3002 36.1999 2.6002 10.3999 2.0002 9.29987L0.700195 6.99988L3.2002 6.19989C3.9002 5.99989 20.0002 0.899902 34.6002 0.899902C40.1002 0.899902 44.8002 1.59985 48.4002 3.09985C64.1002 9.29985 78.8002 35.0999 79.4002 36.1999L80.7002 38.4999L78.2002 39.2999C77.5002 39.4999 61.4002 44.5999 46.8002 44.5999ZM7.1002 9.49988C11.1002 15.9999 22.9002 33.7999 34.5002 38.2999C37.7002 39.4999 41.8002 40.1999 46.7002 40.1999C57.3002 40.1999 69.1002 37.2999 74.2002 35.8999C70.2002 29.3999 58.4002 11.5999 46.8002 7.09985C43.6002 5.89985 39.5002 5.19989 34.6002 5.19989C24.0002 5.19989 12.2002 8.09988 7.1002 9.49988Z" fill="#004723"/>
<path d="M19.3008 14.7C39.2008 14.7 56.5008 22.8 71.8008 36.4L19.3008 14.7Z" fill="#00803F"/>
<path d="M71.7006 38.4999C71.2006 38.4999 70.7006 38.2999 70.3006 37.9999C54.3006 23.7999 37.6006 16.7999 19.3006 16.7999C18.1006 16.7999 17.1006 15.7999 17.1006 14.5999C17.1006 13.3999 18.1006 12.3999 19.3006 12.3999C38.5006 12.3999 56.6006 19.8999 73.2006 34.6999C74.1006 35.4999 74.2006 36.8999 73.4006 37.7999C72.9006 38.2999 72.3006 38.4999 71.7006 38.4999Z" fill="#005C2D"/>
<path d="M33.5 33.5998C32.7 33.5998 32 33.1999 31.6 32.3999C31 31.2999 31.4 29.9998 32.5 29.4998C34.2 28.5998 49.1 20.9999 60.2 24.8999C61.3 25.2999 61.9 26.4999 61.5 27.6999C61.1 28.7999 59.9 29.3998 58.7 28.9998C49.2 25.6998 35 32.9998 34.4 33.2998C34.2 33.4998 33.8 33.5998 33.5 33.5998Z" fill="#005C2D"/>
<defs>
<radialGradient id="paint0_radial_104_6729" cx="0" cy="0" r="1" gradientUnits="userSpaceOnUse" gradientTransform="translate(52.141 77.6102) scale(25.4099 25.4099)">
<stop stop-color="#921CEC"/>
<stop offset="0.1819" stop-color="#8719E0"/>
<stop offset="0.5111" stop-color="#6B10C0"/>
<stop offset="0.9472" stop-color="#3E038D"/>
<stop offset="1" stop-color="#380186"/>
</radialGradient>
<radialGradient id="paint1_radial_104_6729" cx="0" cy="0" r="1" gradientUnits="userSpaceOnUse" gradientTransform="translate(120.833 44.412) scale(25.4098 25.4098)">
<stop stop-color="#921CEC"/>
<stop offset="0.1819" stop-color="#8719E0"/>
<stop offset="0.5111" stop-color="#6B10C0"/>
<stop offset="0.9472" stop-color="#3E038D"/>
<stop offset="1" stop-color="#380186"/>
</radialGradient>
<radialGradient id="paint2_radial_104_6729" cx="0" cy="0" r="1" gradientUnits="userSpaceOnUse" gradientTransform="translate(130.84 128.94) scale(25.4099 25.4099)">
<stop stop-color="#921CEC"/>
<stop offset="0.1819" stop-color="#8719E0"/>
<stop offset="0.5111" stop-color="#6B10C0"/>
<stop offset="0.9472" stop-color="#3E038D"/>
<stop offset="1" stop-color="#380186"/>
</radialGradient>
<radialGradient id="paint3_radial_104_6729" cx="0" cy="0" r="1" gradientUnits="userSpaceOnUse" gradientTransform="translate(88.3741 61.0102) scale(25.4099 25.4099)">
<stop stop-color="#921CEC"/>
<stop offset="0.1819" stop-color="#8719E0"/>
<stop offset="0.5111" stop-color="#6B10C0"/>
<stop offset="0.9472" stop-color="#3E038D"/>
<stop offset="1" stop-color="#380186"/>
</radialGradient>
<radialGradient id="paint4_radial_104_6729" cx="0" cy="0" r="1" gradientUnits="userSpaceOnUse" gradientTransform="translate(127.774 86.4221) scale(25.4099 25.4099)">
<stop stop-color="#921CEC"/>
<stop offset="0.1819" stop-color="#8719E0"/>
<stop offset="0.5111" stop-color="#6B10C0"/>
<stop offset="0.9472" stop-color="#3E038D"/>
<stop offset="1" stop-color="#380186"/>
</radialGradient>
<radialGradient id="paint5_radial_104_6729" cx="0" cy="0" r="1" gradientUnits="userSpaceOnUse" gradientTransform="translate(91.4045 109.868) scale(25.4099 25.4099)">
<stop stop-color="#921CEC"/>
<stop offset="0.1819" stop-color="#8719E0"/>
<stop offset="0.5111" stop-color="#6B10C0"/>
<stop offset="0.9472" stop-color="#3E038D"/>
<stop offset="1" stop-color="#380186"/>
</radialGradient>
</defs>
</svg>
