<svg width="168" height="165" viewBox="0 0 168 165" fill="none" xmlns="http://www.w3.org/2000/svg">
<path d="M87.2004 156.8C129.34 156.8 163.5 122.639 163.5 80.4999C163.5 38.3606 129.34 4.19995 87.2004 4.19995C45.0611 4.19995 10.9004 38.3606 10.9004 80.4999C10.9004 122.639 45.0611 156.8 87.2004 156.8Z" fill="#FF9500"/>
<path d="M87.2008 160.4C43.2008 160.4 7.30078 124.6 7.30078 80.4999C7.30078 36.3999 43.1008 0.599854 87.2008 0.599854C131.201 0.599854 167.101 36.3999 167.101 80.4999C167.101 124.6 131.301 160.4 87.2008 160.4ZM87.2008 7.8999C47.1008 7.8999 14.5008 40.4999 14.5008 80.5999C14.5008 120.7 47.1008 153.3 87.2008 153.3C127.301 153.3 159.901 120.7 159.901 80.5999C159.901 40.4999 127.301 7.8999 87.2008 7.8999Z" fill="#D96500"/>
<path d="M126.57 123.754C141.484 101.505 131.337 68.562 103.905 50.1728C76.4731 31.7835 42.1447 34.9119 27.2304 57.1602C12.316 79.4085 22.4635 112.352 49.8955 130.741C77.3274 149.13 111.656 146.002 126.57 123.754Z" fill="#FF8000"/>
<path opacity="0.46" d="M134.5 82.8998C145 74.3998 146.6 58.9998 138.1 48.5998C129.6 38.0998 114.2 36.4998 103.8 44.9998C93.3002 53.4998 91.7002 68.8998 100.2 79.3998C108.7 89.6998 124 91.3998 134.5 82.8998Z" fill="#FFF2D4"/>
<path d="M97.0001 27.1C100.4 25.3 101 22 98.2002 19.7C95.4002 17.4 90.4001 17.1 87.0001 18.9C83.6001 20.7 83.0001 24 85.8001 26.3C88.5001 28.6 93.5001 28.9 97.0001 27.1Z" fill="#00803F"/>
<path d="M107.601 134.8C103.901 135.3 100.201 135.6 96.4009 135.6C61.6009 135.6 31.9008 113.3 21.0008 82.2C19.3008 93.3 23.2009 104.9 29.2009 114.4C35.4009 124.2 44.1009 132.3 54.2009 138.1C64.2009 143.9 75.8008 147.6 87.7009 147.7C99.5009 147.8 112.201 143.6 119.201 134.5C115.001 134.9 111.201 135 107.601 134.8Z" fill="#D96500"/>
</svg>
