<svg width="192" height="183" viewBox="0 0 192 183" fill="none" xmlns="http://www.w3.org/2000/svg">
<path d="M188.7 70.5999L125.8 59.8999L96.2002 3.3999L66.7002 59.8999L3.7002 70.5999L48.4002 116.2L39.1002 179.3L96.2002 150.9L153.4 179.3L144.1 116.2L188.7 70.5999Z" fill="url(#paint0_linear_104_6820)"/>
<path d="M39.1 182.2C38.5 182.2 37.9 182 37.4 181.6C36.5 181 36.1 179.9 36.2 178.8L45.3 117.1L1.6 72.5C0.800003 71.7 0.59999 70.6 0.89999 69.6C1.19999 68.6 2.10001 67.7999 3.20001 67.7L64.7 57.3L93.6 2C94.1 1.1 95.1 0.5 96.2 0.5C97.3 0.5 98.3 1.1 98.8 2L127.7 57.3L189.2 67.7C190.3 67.8999 191.1 68.6 191.5 69.6C191.8 70.6 191.6 71.7 190.8 72.5L147.1 117.1L156.2 178.8C156.4 179.9 155.9 180.9 155 181.6C154.1 182.2 153 182.3 152 181.8L96.1 154L40.2 181.8C39.9 182.1 39.5 182.2 39.1 182.2ZM9.6 72.5L50.4 114.2C51 114.8 51.3 115.7 51.2 116.6L42.7 174.3L94.9 148.4C95.7 148 96.7 148 97.5 148.4L149.7 174.3L141.2 116.6C141.1 115.7 141.4 114.8 142 114.2L182.8 72.5L125.3 62.8C124.4 62.7001 123.6 62.1 123.2 61.3L96.2 9.59998L69.2 61.3C68.8 62.1 68 62.7001 67.1 62.8L9.6 72.5Z" fill="#995C00"/>
<path d="M96.1998 29.7L117.8 70.9L163.7 78.7L131.1 112L137.9 158L96.1998 137.3L54.4998 158L61.2998 112L28.7998 78.7L74.6998 70.9L96.1998 29.7Z" fill="#FFE600"/>
<path d="M139.7 160.5L96.1998 138.9L52.6998 160.5L59.7998 112.4L25.7998 77.7L73.6998 69.6L96.1998 26.5L118.7 69.6L166.6 77.7L132.6 112.4L139.7 160.5ZM96.1998 135.7L136.1 155.5L129.6 111.5L160.7 79.7L116.8 72.3L96.1998 32.9L75.5998 72.3L31.6998 79.7L62.7998 111.5L56.2998 155.5L96.1998 135.7Z" fill="#995C00"/>
<path d="M96.2004 56L108.9 80.3L136 84.9L116.8 104.5L120.8 131.7L96.2004 119.5L71.6003 131.7L75.6003 104.5L56.4004 84.9L83.5004 80.3L96.2004 56Z" fill="#FFF066"/>
<defs>
<linearGradient id="paint0_linear_104_6820" x1="34.3534" y1="30.6386" x2="152.59" y2="170.816" gradientUnits="userSpaceOnUse">
<stop stop-color="#E3B323"/>
<stop offset="0.0787879" stop-color="#F6E953"/>
<stop offset="0.0881857" stop-color="#F7EC6A"/>
<stop offset="0.1033" stop-color="#F7EF89"/>
<stop offset="0.1191" stop-color="#F8F2A1"/>
<stop offset="0.1358" stop-color="#F9F4B3"/>
<stop offset="0.1538" stop-color="#F9F6BD"/>
<stop offset="0.1758" stop-color="#F9F6C0"/>
<stop offset="0.2198" stop-color="#F5EC97"/>
<stop offset="0.2695" stop-color="#F1E270"/>
<stop offset="0.3091" stop-color="#EFDB57"/>
<stop offset="0.3333" stop-color="#EED94E"/>
<stop offset="0.5939" stop-color="#A17834"/>
<stop offset="0.8485" stop-color="#F6C822"/>
<stop offset="1" stop-color="#A17834"/>
</linearGradient>
</defs>
</svg>
