<svg width="174" height="193" viewBox="0 0 174 193" fill="none" xmlns="http://www.w3.org/2000/svg">
<path d="M41.8004 192.8C40.0004 192.8 38.5004 191.4 38.4004 189.7L37.8004 183.4C37.7004 182.2 37.6004 180.9 37.6004 179.4C37.6004 178 37.5004 176 37.5004 173.3C37.5004 158.4 39.6004 144.7 43.8004 132.6C48.0004 120.5 54.7004 108.7 63.8004 97.3998C68.4004 91.7998 76.7004 83.5998 89.1004 72.5998C90.0004 71.7998 90.9004 70.9998 91.7004 70.1998C86.6004 69.7998 81.1004 69.0998 75.1004 67.8998C64.2004 65.7998 62.0004 65.6998 61.9004 65.6998C58.3004 65.6998 55.9004 66.3998 54.9004 67.8998C54.1004 68.9998 52.2004 72.5998 52.2004 82.6998C52.2004 85.0998 52.2004 86.8998 52.3004 88.1998C52.3004 89.3998 52.4004 90.4998 52.5004 91.3998L53.1004 98.8998C53.2004 99.8998 52.9004 100.8 52.2004 101.5C51.5004 102.2 50.6004 102.6 49.7004 102.6H3.90039C2.00039 102.6 0.400391 101.1 0.400391 99.0998V7.19983C0.400391 5.29983 1.90039 3.69983 3.90039 3.69983H49.4004C50.3004 3.69983 51.2004 4.09983 51.9004 4.69983C52.3004 5.09983 52.6004 5.59983 52.8004 6.19983C60.0004 2.29983 68.3004 0.299805 77.5004 0.299805C87.9004 0.299805 99.6004 2.7998 112.3 7.7998C121.8 11.5998 126.4 12.9998 128.5 13.5998V7.09979C128.5 5.19979 130.1 3.59979 132 3.59979H168.9C170.6 3.59979 172.1 4.89979 172.3 6.59979L173.1 12.4998C173.2 13.3998 173.3 14.2998 173.4 15.2998C173.5 16.1998 173.5 17.4998 173.5 19.1998C173.5 32.4998 165.2 52.0998 148 79.1998C145.9 82.3998 144.4 84.9998 143.4 86.7998C132.5 104.8 125.1 120.3 121.4 133.2C117.7 146 115.8 160.4 115.8 175.8V189.1C115.8 191 114.2 192.6 112.3 192.6H41.8004V192.8Z" fill="url(#paint0_linear_104_6625)"/>
<path d="M48.1008 182.4C48.0008 181.4 47.9008 180.3 47.9008 179C47.9008 177.7 47.8008 175.8 47.8008 173.3C47.8008 159.5 49.7008 147 53.5008 136C57.3008 125 63.4008 114.3 71.8008 104C76.0008 98.8999 84.1008 90.9999 95.9008 80.3999C107.801 69.7999 116.701 61.0999 122.601 54.3999C118.401 56.2999 114.201 57.6999 110.201 58.6999C106.201 59.6999 102.101 60.1999 98.1008 60.1999C92.1008 60.1999 85.1008 59.3999 77.1008 57.7999C69.1008 56.1999 64.0008 55.3999 61.9008 55.3999C54.8008 55.3999 49.7008 57.4999 46.5008 61.7999C43.4008 66.0999 41.8008 73.0999 41.8008 82.7999C41.8008 85.2999 41.8008 87.2999 41.9008 88.6999C41.9008 90.0999 42.0008 91.2999 42.1008 92.3999H10.8008V14.2999H42.4008L42.1008 31.3999C46.0008 24.5999 50.8008 19.3999 56.7008 15.9999C62.6008 12.5999 69.5008 10.8999 77.4008 10.8999C86.6008 10.8999 96.9008 13.1999 108.401 17.6999C119.901 22.1999 127.001 24.4999 129.601 24.4999C132.601 24.4999 134.801 23.7999 136.401 22.2999C138.001 20.8999 138.801 18.7999 138.801 16.0999V14.1999H162.801C162.901 14.7999 163.001 15.4999 163.001 16.1999C163.001 16.8999 163.101 17.9999 163.101 19.3999C163.101 30.5999 155.101 48.6999 139.201 73.8999C137.001 77.2999 135.401 79.9999 134.301 81.8999C123.001 100.5 115.301 116.7 111.301 130.6C107.301 144.4 105.301 159.6 105.301 176.1V182.4H48.1008Z" fill="url(#paint1_linear_104_6625)"/>
<path d="M77.4008 10.7998C69.5008 10.7998 62.6008 12.4998 56.7008 15.8998C50.8008 19.2998 45.9008 24.3998 42.1008 31.2998L42.4008 14.1998H10.8008V92.2998H42.0008C41.9008 91.1998 41.8008 89.9998 41.8008 88.5998C41.7008 87.1998 41.7008 85.2998 41.7008 82.6998C41.7008 72.9998 43.3008 65.9998 46.4008 61.6998C49.5008 57.3998 54.7008 55.2998 61.8008 55.2998C64.0008 55.2998 69.0008 56.0998 77.0008 57.6998C78.6008 57.9998 80.0008 58.2998 81.5008 58.4998C94.2008 45.3998 107.201 32.7998 119.701 21.8998C116.501 20.7998 112.701 19.3998 108.201 17.5998C96.9008 13.0998 86.5008 10.7998 77.4008 10.7998Z" fill="url(#paint2_linear_104_6625)"/>
<path d="M76.1006 182.4H105.301V176.1C105.301 167.8 105.801 159.9 106.801 152.2C95.6006 162 84.8006 173 76.1006 182.4Z" fill="url(#paint3_linear_104_6625)"/>
<path d="M105.3 184.8H48.1004C46.9004 184.8 45.8004 183.8 45.7004 182.6C45.6004 181.6 45.5004 180.4 45.5004 179C45.5004 177.7 45.4004 175.7 45.4004 173.2C45.4004 159.2 47.4004 146.3 51.3004 135.1C55.2004 123.9 61.5004 112.9 70.0004 102.3C74.4004 96.9998 82.3004 89.1999 94.4004 78.3999C102.2 71.3999 108.7 65.2998 114 59.9998C113 60.2998 111.9 60.5998 110.9 60.7998C106.7 61.7998 102.4 62.3999 98.2004 62.3999C92.0004 62.3999 84.8004 61.5998 76.7004 59.9998C67.0004 58.0998 63.3004 57.6998 61.9004 57.6998C55.5004 57.6998 51.1004 59.4998 48.5004 63.0998C45.7004 66.8998 44.2004 73.4998 44.2004 82.5998C44.2004 85.0998 44.2004 86.9999 44.3004 88.3999C44.3004 89.7999 44.4004 90.8998 44.5004 91.9998C44.6004 92.6998 44.3004 93.2998 43.9004 93.7998C43.4004 94.2998 42.8004 94.5998 42.1004 94.5998H10.8004C9.50039 94.5998 8.40039 93.4998 8.40039 92.1998V14.0998C8.40039 12.7998 9.50039 11.6998 10.8004 11.6998H42.4004C43.0004 11.6998 43.7004 11.9999 44.1004 12.3999C44.6004 12.8999 44.8004 13.4998 44.8004 14.0998L44.7004 23.1998C47.9004 19.2998 51.5004 16.0998 55.6004 13.7998C68.9004 6.09982 87.4004 6.59982 109.4 15.2998C124 21.0998 128.4 21.8999 129.8 21.8999C132.1 21.8999 133.9 21.3999 135 20.3999C136.1 19.3999 136.6 17.9998 136.6 15.9998V14.0998C136.6 12.7998 137.7 11.6998 139 11.6998H163C164.2 11.6998 165.2 12.5998 165.4 13.7998C165.5 14.4998 165.6 15.1998 165.6 15.9998C165.6 16.7998 165.7 17.8999 165.7 19.3999C165.7 31.0999 157.8 49.3998 141.5 75.1998C139.4 78.5998 137.8 81.1998 136.7 83.0998C125.5 101.5 117.8 117.7 113.9 131.3C110 144.9 108 159.9 108 176.1V182.4C107.7 183.8 106.6 184.8 105.3 184.8ZM50.3004 180H102.8V176.1C102.8 159.5 104.9 144 108.9 130C112.9 116 120.8 99.3998 132.2 80.6998C133.3 78.7998 134.9 76.1998 137.1 72.6998C152.7 47.9998 160.6 30.0998 160.6 19.4998C160.6 18.2998 160.6 17.2998 160.6 16.5998H141.2C141.1 19.6998 140 22.2998 138.1 24.0998C136.1 25.9998 133.2 26.8999 129.7 26.8999C127.8 26.8999 123.4 26.1999 107.6 19.8999C87.1004 11.7999 70.0004 11.0998 58.0004 18.0998C52.5004 21.2998 47.9004 26.1998 44.3004 32.5998C43.8004 33.5998 42.6004 33.9998 41.6004 33.6998C40.5004 33.3998 39.8004 32.3998 39.8004 31.2998L40.0004 16.5998H13.3004V89.8999H39.6004C39.6004 89.4999 39.6004 89.0998 39.6004 88.6998C39.6004 87.2998 39.5004 85.2998 39.5004 82.7998C39.5004 72.4998 41.2004 65.0999 44.7004 60.3999C48.3004 55.4999 54.1004 52.9998 62.0004 52.9998C64.3004 52.9998 69.5004 53.7999 77.7004 55.3999C85.5004 56.8999 92.4004 57.6998 98.3004 57.6998C102.1 57.6998 106 57.1998 109.9 56.2998C113.8 55.3998 117.8 53.9998 121.9 52.0998C122.9 51.5998 124.1 51.9999 124.8 52.8999C125.5 53.7999 125.4 55.0999 124.7 55.8999C118.7 62.6999 109.7 71.4998 97.8004 82.0998C86.1004 92.5998 78.0004 100.4 73.9004 105.4C65.8004 115.5 59.8004 126 56.0004 136.7C52.3004 147.4 50.4004 159.7 50.4004 173.2C50.4004 175.7 50.4004 177.6 50.5004 178.9C50.3004 179.3 50.3004 179.7 50.3004 180Z" fill="#B0141B"/>
<defs>
<linearGradient id="paint0_linear_104_6625" x1="0.345191" y1="96.6371" x2="173.398" y2="96.6371" gradientUnits="userSpaceOnUse">
<stop stop-color="#E3B323"/>
<stop offset="0.0787879" stop-color="#F6E953"/>
<stop offset="0.0881857" stop-color="#F7EC6A"/>
<stop offset="0.1033" stop-color="#F7EF89"/>
<stop offset="0.1191" stop-color="#F8F2A1"/>
<stop offset="0.1358" stop-color="#F9F4B3"/>
<stop offset="0.1538" stop-color="#F9F6BD"/>
<stop offset="0.1758" stop-color="#F9F6C0"/>
<stop offset="0.2198" stop-color="#F5EC97"/>
<stop offset="0.2695" stop-color="#F1E270"/>
<stop offset="0.3091" stop-color="#EFDB57"/>
<stop offset="0.3333" stop-color="#EED94E"/>
<stop offset="0.5939" stop-color="#A17834"/>
<stop offset="0.8485" stop-color="#F6C822"/>
<stop offset="1" stop-color="#A17834"/>
</linearGradient>
<linearGradient id="paint1_linear_104_6625" x1="86.8713" y1="-42.5574" x2="86.8713" y2="191.037" gradientUnits="userSpaceOnUse">
<stop offset="0.00606061" stop-color="#660002"/>
<stop offset="0.503" stop-color="#EC1C24"/>
<stop offset="0.5758" stop-color="#E01921"/>
<stop offset="0.7076" stop-color="#C01319"/>
<stop offset="0.8819" stop-color="#8D080C"/>
<stop offset="1" stop-color="#660002"/>
</linearGradient>
<linearGradient id="paint2_linear_104_6625" x1="25.797" y1="-10.0292" x2="73.5924" y2="71.3238" gradientUnits="userSpaceOnUse">
<stop stop-color="white"/>
<stop offset="1" stop-color="white"/>
</linearGradient>
<linearGradient id="paint3_linear_104_6625" x1="123.176" y1="205.988" x2="98.7664" y2="176.239" gradientUnits="userSpaceOnUse">
<stop stop-color="white"/>
<stop offset="1" stop-color="white"/>
</linearGradient>
</defs>
</svg>
