<svg width="126" height="151" viewBox="0 0 126 151" fill="none" xmlns="http://www.w3.org/2000/svg">
<path d="M62.9008 21.7999C57.0008 21.7999 52.3008 16.9998 52.3008 11.1998C52.3008 5.29983 57.1008 0.599854 62.9008 0.599854C68.8008 0.599854 73.5008 5.39983 73.5008 11.1998C73.5008 16.9998 68.7008 21.7999 62.9008 21.7999ZM62.9008 6.29993C60.2008 6.29993 58.0008 8.49983 58.0008 11.1998C58.0008 13.8998 60.2008 16.0999 62.9008 16.0999C65.6008 16.0999 67.8008 13.8998 67.8008 11.1998C67.7008 8.49983 65.6008 6.29993 62.9008 6.29993Z" fill="#BD8400"/>
<path d="M62.9008 147.2C95.8169 147.2 122.501 140.753 122.501 132.8C122.501 124.847 95.8169 118.4 62.9008 118.4C29.9846 118.4 3.30078 124.847 3.30078 132.8C3.30078 140.753 29.9846 147.2 62.9008 147.2Z" fill="#EDB21C"/>
<path d="M62.9006 136.2C71.6267 136.2 78.7006 129.126 78.7006 120.4C78.7006 111.674 71.6267 104.6 62.9006 104.6C54.1745 104.6 47.1006 111.674 47.1006 120.4C47.1006 129.126 54.1745 136.2 62.9006 136.2Z" fill="#FCFF00"/>
<path d="M62.9007 118.4C94.2007 118.4 119.901 124.3 122.301 131.7C124.601 122 122.501 108.6 119.501 97.2998C115.901 83.6998 100.201 69.5997 97.4007 55.1997C97.3007 54.0997 97.2007 52.8998 97.0007 51.7998C97.0007 51.6998 97.0007 51.5998 97.0007 51.4998C93.8007 31.3998 79.8007 16.1997 63.0007 16.1997C46.1007 16.1997 32.1007 31.3998 29.0007 51.4998C28.8007 52.7998 28.6007 54.0998 28.5007 55.3998C25.6007 69.6998 10.1007 83.6997 6.40065 97.1997C3.40065 108.5 1.30067 121.9 3.60067 131.6C5.90067 124.2 31.6007 118.4 62.9007 118.4Z" fill="#FFE600"/>
<path opacity="0.41" d="M122.4 107.1C122.4 106.9 122.5 106.7 122.5 106.5C122.5 105.9 122.3 105.4 122.1 104.8C118.6 97.5999 93.5004 92.0999 62.9004 92.0999C32.4004 92.0999 7.30039 97.5999 3.80039 104.8C3.50039 105.4 3.30039 106 3.30039 106.6C3.30039 106.8 3.30038 107.1 3.40038 107.3C2.40038 114.6 2.10038 121.7 3.50038 127.6C4.80038 123.6 12.8004 120.1 24.7004 117.7C35.0004 115.6 48.4004 114.3 62.9004 114.3C77.5004 114.3 90.8004 115.6 101.1 117.7C113 120.1 121 123.7 122.3 127.6C123.7 121.6 123.5 114.4 122.4 107.1Z" fill="#BD8400"/>
<path d="M122.4 111.3C122.4 111.1 122.5 110.9 122.5 110.7C122.5 110.1 122.3 109.6 122.1 109C118.6 101.8 93.5004 96.2998 62.9004 96.2998C32.4004 96.2998 7.30039 101.8 3.80039 109C3.50039 109.6 3.30039 110.2 3.30039 110.8C3.30039 111 3.30038 111.3 3.40038 111.5C2.40038 118.8 2.10038 126 3.50038 131.8C4.80038 127.8 12.8004 124.3 24.7004 121.9C35.0004 119.8 48.4004 118.5 62.9004 118.5C77.5004 118.5 90.8004 119.8 101.1 121.9C113 124.3 121 127.9 122.3 131.8C123.7 125.8 123.5 118.6 122.4 111.3Z" fill="#FFEE4D"/>
<path opacity="0.54" d="M78.1241 56.1645C81.0698 40.1409 73.154 25.2571 60.4438 22.9205C47.7336 20.584 35.042 31.6795 32.0963 47.7031C29.1506 63.7266 37.0664 78.6105 49.7766 80.947C62.4868 83.2836 75.1785 72.1881 78.1241 56.1645Z" fill="#FDFF47"/>
<path d="M57.7008 122.7C57.7008 120.4 55.8008 118.5 53.5008 118.5C51.2008 118.5 49.3008 120.4 49.3008 122.7C49.3008 125 51.2008 126.9 53.5008 126.9C55.8008 126.9 57.7008 125 57.7008 122.7Z" fill="#FFFCD4"/>
<g opacity="0.41">
<path d="M77.7002 29.5999C77.7002 29.5999 77.9002 29.6999 78.4002 29.9999C78.8002 30.2999 79.5002 30.6999 80.3002 31.2999C81.1002 31.8999 82.0002 32.6998 83.0002 33.6998C84.0002 34.6998 85.0002 35.8999 86.0002 37.3999C87.0002 38.8999 87.9002 40.5999 88.7002 42.3999C89.5002 44.2999 90.1002 46.2999 90.6002 48.3999C91.7002 52.5999 92.3002 56.9998 93.6002 60.6998C94.2002 62.3998 95.3002 64.4998 96.2002 66.1998C97.2002 67.9998 98.2002 69.7999 99.3002 71.5999C101.4 75.0999 103.4 78.4999 104.9 81.4999C106.5 84.4999 107.6 87.0999 108.2 88.9999C108.5 89.8999 108.7 90.6998 108.9 91.1998C109 91.6998 109.1 91.9999 109.1 91.9999C109.1 91.9999 108.4 91.0999 107.2 89.5999C106.6 88.8999 105.8 87.8999 105 86.8999C104.1 85.8999 103.1 84.6999 102.1 83.3999C99.9002 80.8999 97.5002 77.8999 95.0002 74.4999C93.8002 72.7999 92.5002 70.9999 91.4002 68.9999C90.2002 66.8999 89.2002 64.9999 88.3002 62.5999C87.5002 60.2999 87.1002 57.8998 86.7002 55.6998C86.4002 53.4998 86.1002 51.3999 85.9002 49.3999C85.6002 47.3999 85.3002 45.4999 84.9002 43.7999C84.5002 42.0999 84.0002 40.3999 83.4002 38.8999C82.8002 37.3999 82.2002 36.0999 81.5002 34.9999C80.9002 33.8999 80.2002 32.8999 79.7002 32.0999C79.1002 31.2999 78.7002 30.6999 78.4002 30.2999C77.9002 29.8999 77.7002 29.5999 77.7002 29.5999Z" fill="#B58200"/>
</g>
<path opacity="0.58" d="M62.5004 54.4C69.3004 48.9 70.4004 38.8999 64.8004 32.0999C59.3004 25.2999 49.3004 24.2 42.5004 29.8C35.7004 35.3 34.6004 45.2999 40.2004 52.0999C45.7004 58.7999 55.7004 59.9 62.5004 54.4Z" fill="#FFFCD4"/>
<path d="M62.9004 150.1C32.8004 150.1 0.400391 144.7 0.400391 132.8C0.400391 132.5 0.700397 124.8 1.0004 117.9C1.5004 107.4 1.7004 103.9 2.1004 102.4C2.5004 100.4 3.0004 98.3998 3.6004 96.3998C5.4004 89.4998 10.1004 82.5998 14.6004 75.9998C19.3004 68.9998 24.1004 61.7998 25.6004 54.9998C25.7004 53.7998 25.9004 52.4997 26.1004 51.1997C26.1004 51.0997 26.1004 51.0998 26.1004 50.9998C29.5004 29.0998 45.0004 13.1997 63.0004 13.1997C80.9004 13.1997 96.3004 28.8997 99.8004 50.5997C99.9004 50.7997 99.9004 51.0998 99.9004 51.2998C99.9004 51.2998 99.9004 51.2998 99.9004 51.3998C100.1 52.4998 100.2 53.5997 100.3 54.6997C101.8 62.0997 106.9 69.7998 111.8 77.3998C115.9 83.5998 120.1 89.9998 122.3 96.2998C125.1 104.4 125.5 132.5 125.5 132.8C125.3 144.7 93.0004 150.1 62.9004 150.1ZM7.6004 104.1C7.2004 106.9 6.20039 130.9 6.20039 132.9C6.20039 136.8 26.2004 144.4 62.9004 144.4C99.6004 144.4 119.6 136.8 119.6 132.8C119.6 128.6 118.9 104.5 116.8 98.1997C114.9 92.6997 111.1 86.7997 107 80.5997C101.7 72.5997 96.3004 64.2997 94.6004 55.6997C94.6004 55.5997 94.6004 55.4998 94.6004 55.3998C94.5004 54.3998 94.4004 53.2997 94.2004 52.1997C94.2004 52.0997 94.2004 52.0998 94.2004 51.9998V51.8998C91.2004 32.7998 78.1004 18.9998 63.0004 18.9998C47.9004 18.9998 34.8004 32.7998 31.8004 51.8998C31.8004 51.8998 31.8004 51.8998 31.8004 51.9998C31.6004 53.2998 31.5004 54.4997 31.4004 55.6997C31.4004 55.7997 31.4004 55.8998 31.4004 55.9998C29.8004 63.9998 24.5004 71.7998 19.5004 79.2998C15.1004 85.8998 10.9004 92.0998 9.3004 97.9998C8.8004 99.8998 8.30039 101.9 7.90039 103.8C7.60039 103.9 7.6004 104 7.6004 104.1Z" fill="#BD8400"/>
</svg>
