<svg width="164" height="202" viewBox="0 0 164 202" fill="none" xmlns="http://www.w3.org/2000/svg">
<path d="M104 39.7997C104 39.7997 92.3005 5.09968 68.1005 6.79968C43.9005 8.39968 44.0005 0.199707 44.0005 0.199707C44.0005 0.199707 39.2005 12.6997 62.0005 26.2997C84.8005 39.7997 93.8005 28.6997 104 39.7997Z" fill="#00803F"/>
<path d="M42.0998 127.9L37.7998 127.4C39.7998 109.6 61.6998 57.5995 101.2 40.5995L105 38.9995L104.2 43.0995C98.9998 68.4995 113.1 95.1995 120 108C121.1 110.1 122.1 111.899 122.7 113.299L118.8 115.2C118.2 113.9 117.2 112.099 116.1 110.099C109.4 97.4995 95.8998 71.9995 99.1998 46.4995C66.2998 62.9995 44.2998 108.2 42.0998 127.9Z" fill="#00A651"/>
<path d="M104.101 38.0998C104.101 38.0998 67.8006 11.3998 44.6006 30.0998C21.4006 48.7998 15.6006 40.4998 15.6006 40.4998C15.6006 40.4998 19.6006 56.4998 52.1006 54.0998C84.7006 51.6998 85.9006 34.0998 104.101 38.0998Z" fill="#00A651"/>
<path d="M25.4004 41.5995C36.0004 41.4995 53.0004 30.8995 66.1004 29.8995C91.7004 27.8995 104.1 38.1995 104.1 38.1995C95.9004 27.8995 79.0004 20.0995 59.9004 23.4995C45.4004 26.0995 29.5004 40.7995 25.4004 41.5995Z" fill="#28E082"/>
<path d="M76.7006 161.9C76.7006 141.6 60.2006 125.2 39.9006 125.2C19.6006 125.2 3.10059 141.7 3.10059 161.9C3.10059 182.2 19.6006 198.7 39.9006 198.7C60.2006 198.7 76.7006 182.3 76.7006 161.9Z" fill="url(#paint0_radial_104_6659)"/>
<path d="M39.9002 201.1C18.3002 201.1 0.700195 183.5 0.700195 161.9C0.700195 140.3 18.3002 122.7 39.9002 122.7C61.5002 122.7 79.1002 140.3 79.1002 161.9C79.1002 183.5 61.5002 201.1 39.9002 201.1ZM39.9002 127.6C21.0002 127.6 5.60019 143 5.60019 161.9C5.60019 180.8 21.0002 196.2 39.9002 196.2C58.8002 196.2 74.2002 180.8 74.2002 161.9C74.3002 143 58.9002 127.6 39.9002 127.6Z" fill="#570016"/>
<path opacity="0.51" d="M58.2998 145.7C58.2998 138 51.9998 131.7 44.2998 131.7C36.5998 131.7 30.2998 138 30.2998 145.7C30.2998 153.4 36.5998 159.7 44.2998 159.7C51.9998 159.7 58.2998 153.4 58.2998 145.7Z" fill="white"/>
<path opacity="0.51" d="M55.5002 149.4C55.5002 146.7 53.3002 144.4 50.6002 144.4C47.9002 144.4 45.7002 146.6 45.7002 149.4C45.7002 152.1 47.9002 154.3 50.6002 154.3C53.3002 154.3 55.5002 152.1 55.5002 149.4Z" fill="white"/>
<path d="M159.301 138.4C153.301 119 132.701 108.2 113.301 114.2C93.9005 120.2 83.1005 140.8 89.1005 160.2C95.1005 179.6 115.701 190.4 135.101 184.4C154.501 178.4 165.301 157.8 159.301 138.4Z" fill="url(#paint1_radial_104_6659)"/>
<path d="M124.2 188.5C107 188.5 92.0004 177.4 86.8004 161C80.4004 140.4 91.9004 118.4 112.5 112C116.3 110.8 120.2 110.2 124.2 110.2C141.4 110.2 156.4 121.3 161.6 137.7C168 158.3 156.5 180.3 135.9 186.7C132 187.9 128.1 188.5 124.2 188.5ZM124.2 115C120.7 115 117.3 115.5 114 116.6C95.9004 122.2 85.8004 141.5 91.4004 159.6C95.9004 174 109.1 183.7 124.2 183.7C127.7 183.7 131.1 183.2 134.4 182.1C152.5 176.5 162.6 157.2 157 139.1C152.5 124.7 139.3 115 124.2 115Z" fill="#570016"/>
<path opacity="0.51" d="M136.9 128.4C134.6 121 126.8 116.9 119.4 119.2C112 121.5 107.9 129.3 110.2 136.7C112.5 144.1 120.3 148.2 127.7 145.9C135.1 143.6 139.2 135.8 136.9 128.4Z" fill="white"/>
<path opacity="0.51" d="M135.3 132.7C134.5 130.1 131.7 128.6 129.1 129.4C126.5 130.2 125 133 125.8 135.6C126.6 138.2 129.4 139.7 132 138.9C134.6 138.1 136.1 135.3 135.3 132.7Z" fill="white"/>
<path d="M13.4998 161.9C14.8998 167.3 17.0998 171.9 20.2998 175.5C23.4998 179 27.5998 182 31.7998 183C36.8998 184.5 41.4998 185.4 46.2998 185C51.0998 184.6 55.9998 182.9 60.8998 180.3C57.8998 184.9 52.9998 188.6 47.2998 190.2C41.5998 191.9 35.1998 191 30.0998 189.5C23.8998 187.8 19.0998 183.6 16.0998 178.5C12.8998 173.5 12.0998 167.2 13.4998 161.9Z" fill="#820000"/>
<path d="M97.3002 148.9C98.7002 154.3 100.9 158.9 104.1 162.5C107.3 166 111.4 169 115.6 170C120.7 171.5 125.3 172.4 130.1 172C134.9 171.6 139.8 169.9 144.7 167.3C141.7 171.9 136.8 175.6 131.1 177.2C125.4 178.9 119 178 113.9 176.5C107.7 174.8 102.9 170.6 99.9002 165.5C96.8002 160.4 95.9002 154.2 97.3002 148.9Z" fill="#820000"/>
<path d="M95.9999 44.8997C92.9999 41.8997 99.9999 30.9997 103.7 30.1997C107.4 29.4997 114.3 29.7997 112.5 34.1997C110.7 38.6997 105.5 54.4997 95.9999 44.8997Z" fill="#633F00"/>
<path opacity="0.51" d="M108.7 31.9996C108.7 31.9996 108.4 31.9995 108 32.0995C107.6 32.1995 107 32.3996 106.4 32.6996C105.1 33.2996 103.6 34.4996 102.3 35.7996C100.9 37.0996 99.7 38.5996 98.7 39.7996C98.2 40.3996 97.8 40.8996 97.5 41.1996C97.2 41.4996 97 41.6996 97 41.6996C97 41.6996 97 41.3996 97.1 40.9996C97.2 40.4996 97.3 39.8995 97.6 39.0995C97.9 38.2995 98.2 37.4995 98.8 36.5995C99.3 35.6995 100 34.8995 100.8 34.0995C101.6 33.3995 102.5 32.6996 103.4 32.1996C104.3 31.6996 105.3 31.4996 106.1 31.3996C106.9 31.2996 107.6 31.3995 108.1 31.5995C108.3 31.6995 108.5 31.7996 108.6 31.7996C108.6 31.9996 108.7 31.9996 108.7 31.9996Z" fill="white"/>
<defs>
<radialGradient id="paint0_radial_104_6659" cx="0" cy="0" r="1" gradientUnits="userSpaceOnUse" gradientTransform="translate(39.9296 161.951) scale(36.7503)">
<stop stop-color="#EC1C24"/>
<stop offset="0.1819" stop-color="#E01920"/>
<stop offset="0.5111" stop-color="#C01015"/>
<stop offset="0.9472" stop-color="#8D0304"/>
<stop offset="1" stop-color="#860102"/>
</radialGradient>
<radialGradient id="paint1_radial_104_6659" cx="0" cy="0" r="1" gradientUnits="userSpaceOnUse" gradientTransform="translate(124.186 149.367) rotate(-17.3079) scale(36.7515 36.7515)">
<stop stop-color="#EC1C24"/>
<stop offset="0.1819" stop-color="#E01920"/>
<stop offset="0.5111" stop-color="#C01015"/>
<stop offset="0.9472" stop-color="#8D0304"/>
<stop offset="1" stop-color="#860102"/>
</radialGradient>
</defs>
</svg>
