<svg width="151" height="170" viewBox="0 0 151 170" fill="none" xmlns="http://www.w3.org/2000/svg">
<path d="M100.5 41.5996C91.1998 41.5996 82.4998 44.3996 75.1998 49.1996C67.8998 44.3996 59.1998 41.5996 49.8998 41.5996C24.3998 41.5996 3.7998 62.2996 3.7998 87.6996C3.7998 119 22.9998 165.5 76.4998 165.5C129.5 165.5 146.7 119.1 146.7 87.6996C146.6 62.2996 126 41.5996 100.5 41.5996Z" fill="#C6E000"/>
<path d="M76.5002 169.2C20.5002 169.2 0.200195 120.5 0.200195 87.7996C0.200195 60.3996 22.5002 38.0996 49.9002 38.0996C58.9002 38.0996 67.6002 40.4996 75.2002 44.9996C82.9002 40.4996 91.6002 38.0996 100.5 38.0996C127.9 38.0996 150.3 60.3996 150.3 87.7996C150.2 127 127.2 169.2 76.5002 169.2ZM49.9002 45.1996C26.4002 45.1996 7.40021 64.2996 7.40021 87.6996C7.40021 117.5 25.8002 161.9 76.5002 161.9C129.1 161.9 143.1 115.3 143.1 87.6996C143.1 64.1996 124 45.1996 100.6 45.1996C92.3002 45.1996 84.2002 47.5996 77.3002 52.1996L75.3002 53.4996L73.3002 52.1996C66.3002 47.6996 58.2002 45.1996 49.9002 45.1996Z" fill="#83AB00"/>
<path d="M131.501 78.9998C131.501 79.3998 131.501 79.8997 131.501 80.2997C131.501 119.1 100.601 150.5 62.6006 150.5C57.8006 150.5 53.1006 150 48.6006 149C56.9006 153.5 66.3006 156.1 76.4006 156.1C108.601 156.1 134.601 130 134.601 97.8998C134.701 91.2998 133.501 84.9998 131.501 78.9998Z" fill="#83AB00"/>
<path opacity="0.51" d="M48.8204 111.582C61.1313 107.65 67.9242 94.4835 63.9929 82.1727C60.0616 69.8618 46.8947 63.0688 34.5838 67.0001C22.2729 70.9314 15.4799 84.0983 19.4112 96.4092C23.3426 108.72 36.5095 115.513 48.8204 111.582Z" fill="white"/>
<path d="M71.8009 55.4996C71.8009 55.4996 73.3009 14.7996 79.1009 5.49956C84.9009 -3.80044 94.2009 6.09953 91.0009 11.5995C87.8009 16.9995 77.5009 48.3996 76.6009 55.4996C75.3009 61.8996 71.7009 58.6996 71.8009 55.4996Z" fill="#875C00"/>
<path d="M74.2004 60.5997C73.4004 60.5997 72.6004 60.1997 71.9004 59.4997C70.9004 58.4997 70.4004 56.8997 70.4004 55.3997C70.5004 53.6997 72.0004 14.1997 77.9004 4.69971C80.2004 0.999707 82.9004 0.199707 84.7004 0.199707C87.4004 0.199707 90.2004 1.99968 91.8004 4.79968C93.3004 7.39968 93.4003 10.1997 92.1003 12.2997C89.1003 17.4997 78.8004 48.6997 77.9004 55.6997C77.2004 59.7997 75.5004 60.5997 74.2004 60.5997ZM84.7004 3.09967C83.1004 3.09967 81.6004 4.19971 80.3004 6.19971C74.8004 15.0997 73.2004 55.0997 73.2004 55.4997C73.1004 56.5997 73.8003 57.4997 74.1003 57.6997C74.2003 57.5997 74.7003 57.0997 75.1003 55.1997C76.1003 47.8997 86.5004 16.2997 89.7004 10.8997C90.4004 9.69972 90.3004 7.99968 89.3004 6.29968C88.3004 4.39968 86.5004 3.09967 84.7004 3.09967Z" fill="#633F00"/>
<path d="M96.0998 50.2995C95.9998 50.3995 95.8998 50.5995 95.7998 50.6995C84.0998 58.5995 70.0998 57.9995 58.7998 51.5995C57.1998 50.6995 55.2998 49.4995 54.2998 47.9995C55.3998 51.3995 57.3998 54.6995 60.1998 57.2995C69.1998 65.7995 83.3998 65.3995 91.8998 56.3995C93.6998 54.4995 95.0998 52.4995 96.0998 50.2995Z" fill="#83AB00"/>
<path opacity="0.51" d="M46.6002 81.1998C46.6002 74.9998 41.6002 69.9998 35.4002 69.9998C29.2002 69.9998 24.2002 74.9998 24.2002 81.1998C24.2002 87.3998 29.2002 92.3998 35.4002 92.3998C41.6002 92.3998 46.6002 87.3998 46.6002 81.1998Z" fill="white"/>
</svg>
