<svg width="189" height="143" viewBox="0 0 189 143" fill="none" xmlns="http://www.w3.org/2000/svg">
<path d="M175.2 2C198.2 49.4 178.3 106.6 130.9 129.5C83.5004 152.5 26.3004 132.6 3.40039 85.2L175.2 2Z" fill="#225E00"/>
<path d="M89.4006 142.7C78.4006 142.7 67.4006 140.9 56.8006 137.2C31.8006 128.5 11.7006 110.6 0.100586 86.8999L6.60059 83.7999C17.3006 105.8 35.9006 122.4 59.1006 130.5C82.3006 138.6 107.201 137.1 129.301 126.4C151.301 115.7 167.901 97.0999 176.001 73.8999C184.101 50.6999 182.601 25.7999 171.901 3.69989L178.401 0.599854C189.901 24.3999 191.501 51.1999 182.801 76.2999C174.101 101.3 156.201 121.4 132.501 133C118.801 139.4 104.201 142.7 89.4006 142.7Z" fill="#225E00"/>
<path d="M10.7012 81.6999C31.7012 125.1 83.9011 143.2 127.301 122.2C170.701 101.2 188.801 48.9999 167.801 5.59985L10.7012 81.6999Z" fill="#FF0000"/>
<path d="M89.401 134.6C79.401 134.6 69.301 132.9 59.501 129.5C36.601 121.5 18.101 105.1 7.50098 83.2999L14.001 80.1999C23.701 100.3 40.701 115.4 61.901 122.8C83.001 130.1 105.701 128.8 125.801 119C167.301 98.8999 184.701 48.6999 164.601 7.19989L171.101 4.09985C181.701 25.8999 183.101 50.5999 175.201 73.4999C167.201 96.3999 150.801 114.9 129.001 125.5C116.401 131.5 102.901 134.6 89.401 134.6Z" fill="#A0D980"/>
<g opacity="0.48">
<path d="M138.201 39.2999C136.501 40.1999 130.801 39.0999 130.801 39.0999C130.801 39.0999 133.201 33.8999 134.901 32.9999C136.601 32.0999 138.801 32.7999 139.701 34.4999C140.601 36.2999 139.901 38.3999 138.201 39.2999Z" fill="black"/>
<path d="M135.801 40.4C133.501 40.4 130.801 39.9 130.601 39.9L129.701 39.7L130.101 38.9C130.401 38.3 132.601 33.4 134.501 32.5C135.101 32.2 135.801 32 136.501 32C138.101 32 139.501 32.9 140.301 34.3C140.801 35.3 140.901 36.5 140.601 37.5C140.301 38.6 139.501 39.5 138.501 40C137.901 40.2 137.101 40.4 135.801 40.4ZM131.901 38.6C132.901 38.7 134.501 39 135.901 39C137.201 39 137.701 38.8 137.901 38.7C138.601 38.4 139.101 37.8 139.301 37.1C139.501 36.4 139.501 35.6 139.101 35C138.401 33.7 136.701 33.1 135.301 33.8C134.301 34.2 132.801 36.7 131.901 38.6Z" fill="black"/>
<path d="M137.101 60.2002C135.201 60.0002 131.001 56.1002 131.001 56.1002C131.001 56.1002 135.801 53.0002 137.801 53.2002C139.701 53.4002 141.201 55.1002 141.001 57.1002C140.801 59.0002 139.101 60.4002 137.101 60.2002Z" fill="black"/>
<path d="M137.501 60.9001C137.401 60.9001 137.201 60.9001 137.101 60.9001C135.001 60.7001 131.001 57.0001 130.601 56.6001L129.901 56.0001L130.701 55.5001C131.201 55.2001 135.801 52.3001 137.901 52.5001C140.201 52.7001 141.901 54.8001 141.701 57.1001C141.501 59.3001 139.701 60.9001 137.501 60.9001ZM132.201 56.2001C133.801 57.6001 136.101 59.4001 137.201 59.5001C138.801 59.7001 140.101 58.5001 140.301 57.0001C140.401 55.5001 139.301 54.1001 137.801 53.9001C136.401 53.9001 133.801 55.3001 132.201 56.2001Z" fill="black"/>
<path d="M127.401 78.4C125.801 77.3 124.301 71.7 124.301 71.7C124.301 71.7 130.001 71.5 131.601 72.7C133.201 73.8 133.501 76.1 132.401 77.6C131.201 79.2 129.001 79.5 127.401 78.4Z" fill="black"/>
<path d="M129.501 79.8001C128.601 79.8001 127.701 79.5001 127.001 79.0001C125.301 77.7001 123.801 72.5001 123.601 72.0001L123.301 71.1001H124.201C124.201 71.1001 124.501 71.1001 125.101 71.1001C127.501 71.1001 130.701 71.3001 132.001 72.2001C133.901 73.6001 134.301 76.2001 132.901 78.1001C132.101 79.1001 130.901 79.8001 129.501 79.8001ZM125.301 72.4001C126.001 74.4001 127.001 77.1001 127.901 77.8001C129.101 78.7001 130.901 78.4001 131.801 77.2001C132.701 75.9001 132.401 74.2001 131.201 73.3001C130.501 72.8001 128.201 72.4001 125.301 72.4001Z" fill="black"/>
<path d="M116.801 88.6002C116.001 86.8002 110.901 84.2002 110.901 84.2002C110.901 84.2002 109.501 89.8002 110.301 91.5002C111.101 93.3002 113.201 94.1002 115.001 93.3002C116.901 92.5002 117.601 90.4002 116.801 88.6002Z" fill="black"/>
<path d="M113.6 94.3001C111.9 94.3001 110.4 93.3001 109.7 91.8001C108.8 89.9001 110.1 84.6001 110.2 84.0001L110.4 83.1001L111.2 83.5001C111.7 83.8001 116.5 86.3001 117.4 88.3001C118.4 90.4001 117.4 93.0001 115.3 93.9001C114.8 94.2001 114.2 94.3001 113.6 94.3001ZM111.5 85.2001C111.1 87.3001 110.7 90.2001 111.1 91.2001C111.7 92.6001 113.4 93.2001 114.8 92.6001C116.2 92.0001 116.8 90.3001 116.2 88.9001C115.7 87.9001 113.3 86.3001 111.5 85.2001Z" fill="black"/>
<path d="M58.6009 77.9C60.4009 77.1 63.0009 72 63.0009 72C63.0009 72 57.4009 70.6 55.7009 71.4C53.9009 72.2 53.1009 74.2999 53.9009 76.0999C54.7009 77.8999 56.8009 78.7 58.6009 77.9Z" fill="black"/>
<path d="M57.1009 78.9C55.4009 78.9 53.901 77.9 53.201 76.4C52.201 74.3 53.2009 71.7 55.3009 70.8C55.8009 70.6 56.4009 70.5 57.3009 70.5C59.7009 70.5 63.0009 71.3 63.1009 71.3L64.0009 71.5L63.6009 72.3C63.3009 72.8 60.8009 77.6 58.8009 78.5C58.3009 78.8 57.7009 78.9 57.1009 78.9ZM57.4009 71.9C56.5009 71.9 56.2009 72 56.0009 72.1C54.6009 72.7 54.0009 74.4 54.6009 75.8C55.1009 76.8 56.101 77.5 57.201 77.5C57.601 77.5 58.0009 77.4 58.4009 77.3C59.4009 76.9 61.0009 74.4 62.0009 72.6C60.8009 72.3 58.9009 71.9 57.4009 71.9Z" fill="black"/>
<path d="M75.6012 90.0002C76.7012 88.4002 76.1012 82.7002 76.1012 82.7002C76.1012 82.7002 70.7012 84.6002 69.6012 86.2002C68.5012 87.8002 69.0012 90.0002 70.7012 91.1002C72.4012 92.1002 74.6012 91.6002 75.6012 90.0002Z" fill="black"/>
<path d="M72.7008 92.3001C71.9008 92.3001 71.1008 92.1001 70.4008 91.6001C69.4008 91.0001 68.8008 90.0001 68.5008 88.9001C68.3008 87.8001 68.5008 86.7001 69.1008 85.7001C70.3008 83.9001 75.4008 82.1001 75.9008 81.9001L76.8008 81.6001L76.9008 82.5001C77.0008 83.1001 77.4008 88.5001 76.3008 90.3001C75.5008 91.6001 74.1008 92.3001 72.7008 92.3001ZM75.5008 83.7001C73.5008 84.5001 70.9008 85.7001 70.3008 86.6001C69.9008 87.2001 69.8008 88.0001 69.9008 88.7001C70.1008 89.4001 70.5008 90.1001 71.1008 90.5001C72.4008 91.3001 74.2008 90.9001 75.0008 89.7001C75.6008 88.7001 75.6008 85.8001 75.5008 83.7001Z" fill="black"/>
<path d="M95.9006 93.6C96.0006 91.7 92.6006 87 92.6006 87C92.6006 87 88.9006 91.4 88.8006 93.3C88.7006 95.2 90.2006 96.9 92.2006 97C94.2006 97.1 95.9006 95.6 95.9006 93.6Z" fill="black"/>
<path d="M92.401 97.7999H92.201C91.101 97.7999 90.001 97.2999 89.201 96.3999C88.401 95.5999 88.001 94.4999 88.101 93.3999C88.201 91.2999 91.601 87.0999 92.001 86.5999L92.601 85.8999L93.101 86.5999C93.501 87.0999 96.601 91.4999 96.501 93.5999C96.601 95.9999 94.701 97.7999 92.401 97.7999ZM92.601 88.1999C91.301 89.8999 89.601 92.2999 89.601 93.3999C89.601 94.0999 89.801 94.8999 90.301 95.3999C90.801 95.8999 91.501 96.2999 92.301 96.2999L92.401 96.9999V96.2999C93.901 96.2999 95.101 95.0999 95.201 93.5999C95.201 92.5999 93.801 89.9999 92.601 88.1999Z" fill="black"/>
</g>
<path opacity="0.31" d="M14.2002 80.2999L17.0002 85.8999L167.1 12.8999L164.9 7.09985L14.2002 80.2999Z" fill="white"/>
</svg>
