<svg width="157" height="151" viewBox="0 0 157 151" fill="none" xmlns="http://www.w3.org/2000/svg">
<path d="M119.8 126.9C149.2 103.1 160 66.2001 147.9 38.4001C152.9 33.0001 153.3 24.6001 148.6 18.7001C143.8 12.8001 135.5 11.5001 129.1 15.2001C104.3 -2.39989 66.0002 0.600124 36.7002 24.4001C7.30017 48.2001 -3.49987 85.1001 8.60013 113C4.10013 118.4 3.80016 126.5 8.50016 132.2C13.1002 137.9 21.1001 139.4 27.3001 136.1C52.0001 153.7 90.4001 150.8 119.8 126.9Z" fill="#FDFF40"/>
<path d="M57.3001 49.1999C25.6001 74.8999 14.0001 113 31.3001 134.4C48.6001 155.8 88.4001 152.3 120.1 126.7C151.8 101 163.4 62.8999 146.1 41.4999C128.7 19.9999 89.0001 23.4999 57.3001 49.1999Z" fill="#FFF200"/>
<path d="M100.3 43.7999C107.1 38.2999 108.2 28.2999 102.6 21.4999C97.1001 14.6999 87.1002 13.5999 80.3002 19.1999C73.5002 24.6999 72.4002 34.6999 78.0002 41.4999C83.5002 48.2999 93.5002 49.3999 100.3 43.7999Z" fill="#FFFCD4"/>
<path d="M139.6 25.9002C141.8 24.1002 142.1 21.0002 140.3 18.8002C138.5 16.6002 135.4 16.3001 133.2 18.1001C131 19.9001 130.7 23.0002 132.5 25.2002C134.3 27.3002 137.4 27.7002 139.6 25.9002Z" fill="#FFFCD4"/>
<path d="M17.5995 124.8C19.7995 123 20.0995 119.9 18.2995 117.7C16.4995 115.5 13.3996 115.2 11.1996 117C8.99957 118.8 8.69956 121.9 10.4996 124.1C12.1996 126.2 15.3995 126.6 17.5995 124.8Z" fill="#FFFCD4"/>
<path d="M26.4004 117.6C35.9004 121.9 44.4004 123.1 52.9004 123.2C61.4004 123.3 69.8004 122.1 78.2004 120.2C86.5004 118.3 94.8004 115.7 102.9 112.3C111 108.8 118.9 104.8 127.2 98.5C125.8 109 119 118.3 110.9 125.1C102.7 131.9 92.8004 136.6 82.3004 138.9C71.9004 141.2 60.7004 141.2 50.2004 138C39.9004 134.9 30.0004 127.6 26.4004 117.6Z" fill="#EDB21C"/>
<path d="M64.7001 150.7C50.6001 150.7 37.6001 147 26.9001 139.9C19.5001 142.8 10.8 140.4 5.80004 134.3C0.700041 128 0.300066 119.1 4.70007 112.5C-7.09993 82.7 5.00005 45.7 34.5001 21.7C51.4001 8.00001 71.7001 0.5 91.7001 0.5C105.7 0.5 118.7 4.20001 129.3 11.2C136.8 7.90001 146 10.1 151.1 16.5C156.4 23.1 156.6 32.2 151.7 39C163.4 68.7 151.3 105.7 121.8 129.6C105.1 143.2 84.7001 150.7 64.7001 150.7ZM27.5001 132.1L29.2001 133.3C39.0001 140.3 51.3001 144 64.7001 144C83.2001 144 102 137 117.6 124.3C145.4 101.8 156.6 67 144.8 39.8L143.9 37.8L145.4 36.2C149.4 31.9 149.6 25.4 145.9 20.9C142.3 16.5 135.7 15.4 130.8 18.2L128.9 19.3L127.1 18C117.3 11 105 7.40002 91.7001 7.40002C73.2001 7.40002 54.4 14.4 38.8 27.1C11 49.6 -0.199934 84.4 11.7001 111.7L12.5001 113.6L11.2001 115.2C7.60007 119.5 7.60003 125.8 11.1 130.1C14.5 134.3 20.9001 135.6 25.7001 133.1L27.5001 132.1Z" fill="#EDB21C"/>
</svg>
