<svg width="168" height="103" viewBox="0 0 168 103" fill="none" xmlns="http://www.w3.org/2000/svg">
<g id="Group">
<g id="Group_2">
<g id="Group_3">
<path id="Vector" d="M126.2 46C130.4 42.9 137.2 45.1999 137.2 52.5999C139.2 48.4999 147.9 49.5 147.5 56.4C150.2 54.6 154 56.1999 153.8 60.0999C157.5 58.0999 164.2 62.2 162.7 68.2C160.7 67.6 158.4 67.9 156.4 69.5C155.2 65 150.4 63.4999 146.2 63.7999C142.9 63.9999 140.2 66.4999 139.1 69.0999C137.3 67.8999 134.9 67.6999 132.2 68.2999C127.6 69.2999 125 72.1999 124.4 76.0999C122.4 72.2999 116.7 73.9 116.1 77.4C114.6 72.2 109.5 70.6999 106 71.0999C103 71.3999 99.1 73.0999 98 77.5C95.5 75.0999 91.5 73.3 87.1 73.7C83.8 74 80.7 75.7 78.9 78.2C78.4 73.8 69.9 72.0999 66.7 76.2999C65.2 74.4999 62.6 73.1 59.7 72.9C56.9 72.7 53.1 73.4 50.9 76C50.3 71.9 44.6 69.4 40.7 70.9C39.5 66.2 30.2 62.7999 25.8 70.5C25.3 65.7999 21.6 64 18.3 64C13.3 64 10.6 67.8 10.5 70.2C9.3 69.5 7.99999 69.3999 6.69999 69.5999C5.09999 63.6999 12.1 59.1999 16 61.7999C15 55.7999 22.3 53.2999 25.7 57.2999C24.3 51.8999 29.9 48.1 34.3 49.7C35.8 44.1 45.1 40.8999 49.8 47.0999C50.5 43.0999 54.4 40.4999 59.2 41.0999C61.4 41.3999 63.2 42.5 64.3 43.9C66 39.4 73 38.4 75.3 42.4C76.8 34.3 90.5 30.6 96.1 39.2C97.9 38.3 100.2 38 102.9 38.7C107.1 39.8 109.3 43.3 109.6 46C112 38.7 123.9 40 126.2 46Z" fill="#D98448"/>
<path id="Vector_2" d="M25.8 70.4002C30.1 62.7002 39.4 66.1002 40.7 70.8002C44.6 69.3002 50.3 71.8002 50.9 75.9002C53.1 73.3002 56.9 72.6002 59.7 72.8002C62.5 73.0002 65.1 74.4002 66.7 76.2002C69.9 72.1002 78.4 73.7001 78.9 78.1001C80.8 75.6001 83.8 73.9001 87.1 73.6001C91.5 73.2001 95.5 75.0002 98 77.4002C99.1 73.0002 103 71.3002 106 71.0002C109.5 70.6002 114.6 72.1002 116.1 77.3002C116.8 73.8002 122.4 72.1002 124.4 76.0002C125 72.0002 127.6 69.2002 132.2 68.2002C134.9 67.6002 137.3 67.8002 139.1 69.0002C140.1 66.5002 142.7 64.2002 145.7 63.8002C143.2 61.4002 138.4 61.7001 137 64.6001C137 57.2001 130.2 55.0002 126 58.0002C123.7 52.0002 111.8 50.7002 109.3 58.0002C109 55.3002 106.8 51.8002 102.6 50.7002C100 50.0002 97.7 50.3002 95.8 51.2002C90.3 42.7002 76.5 46.4002 75 54.4002C72.7 50.4002 65.7 51.3002 64 55.9002C62.9 54.5002 61.1 53.4001 58.9 53.1001C54.1 52.4001 50.2 55.1001 49.5 59.1001C44.8 52.9001 35.5 56.2002 34 61.7002C29.7 60.1002 24 63.9002 25.4 69.3002L25.3 69.2002C25.7 69.5002 25.8 69.9002 25.8 70.4002Z" fill="#B85E37"/>
<path id="Vector_3" d="M88.7 86.6998C119.738 86.6998 144.9 79.8945 144.9 71.4998C144.9 63.1051 119.738 56.2998 88.7 56.2998C57.6616 56.2998 32.5 63.1051 32.5 71.4998C32.5 79.8945 57.6616 86.6998 88.7 86.6998Z" fill="#663629"/>
</g>
<g id="Group_4">
<path id="Vector_4" d="M162.8 68.0998C165.4 68.8998 167.4 71.4998 167.2 74.9998C166.8 80.6998 163.1 82.3998 159.3 81.7998C159.3 82.7998 159.1 83.8998 158.6 84.9998C156.8 88.7998 150.6 90.2998 144.6 87.6998C143.1 95.6998 132.6 96.0998 128.5 93.4998C126.4 98.1998 119.6 99.4998 116 96.4998C114.4 101.1 106 102.1 103.1 97.3998C100.4 101.4 95.7 103.4 88.1 102.6C83.9 102.2 81.3 100.8 79.8 99.0998C73.3 105.3 62.3 101.3 60.6 95.8998C58.9 98.2998 54.9 99.7998 50 98.8998C47.3 98.3998 44.5 96.5998 43.3 93.8998C39.3 98.6998 29.6 96.1998 28.9 90.3998C24.2 92.0998 15.6 91.5998 12.9 87.4998C11.9 86.0998 11.4 84.6998 11.2 83.2998C5.19999 83.7998 1.3 81.0998 1.1 76.5998C0.900002 72.9998 3.79999 69.8998 6.89999 69.3998C8.19999 69.1998 9.49999 69.2998 10.7 69.9998C10.9 67.6998 13.5 63.7998 18.5 63.7998C21.8 63.7998 25.5 65.5998 26 70.2998C30.3 62.5998 39.6 65.9998 40.9 70.6998C44.8 69.1998 50.5 71.6998 51.1 75.7998C53.3 73.1998 57.1 72.4998 59.9 72.6998C62.7 72.8998 65.3 74.2998 66.9 76.0998C70.1 71.9998 78.6 73.5998 79.1 77.9998C81 75.4998 84 73.7998 87.3 73.4998C91.7 73.0998 95.7 74.8998 98.2 77.2998C99.3 72.8998 103.2 71.1998 106.2 70.8998C109.7 70.4998 114.8 71.9998 116.3 77.1998C117 73.6998 122.6 71.9998 124.6 75.8998C125.2 71.8998 127.8 69.0998 132.4 68.0998C135.1 67.4998 137.5 67.6998 139.3 68.8998C140.3 66.2998 143.1 63.7998 146.4 63.5998C150.6 63.2998 155.4 64.6998 156.6 69.2998C158.4 67.7998 160.8 67.4998 162.8 68.0998Z" fill="#E8984D"/>
<path id="Vector_5" d="M163.2 68.2998C162.8 73.4998 159.3 75.0998 155.7 74.5998C155.7 75.5998 155.5 76.5998 155 77.5998C153.3 81.2998 147.4 82.6998 141.7 80.0998C140.3 87.6998 130.3 88.0998 126.4 85.5998C124.4 90.0998 117.9 91.2998 114.4 88.4998C112.9 92.8998 104.9 93.7998 102.1 89.2998C99.5 93.0998 95 94.9998 87.8 94.2998C83.8 93.8998 81.4 92.5998 79.9 90.8998C73.7 96.7998 63.2 92.8998 61.6 87.7998C59.9 90.0998 56.1 91.4998 51.5 90.6998C48.9 90.1998 46.3 88.4998 45.1 85.8998C41.3 90.4998 32 88.0998 31.4 82.5998C26.9 84.1998 18.8 83.7998 16.2 79.8998C15.3 78.4998 14.8 77.1998 14.5 75.8998C8.90001 76.2998 5.3 73.8998 4.9 69.8998C2.6 71.0998 0.8 73.5998 0.9 76.4998C1.1 80.9998 5.00001 83.6998 11 83.1998C11.2 84.4998 11.8 85.8998 12.7 87.3998C15.4 91.4998 24 91.9998 28.7 90.2998C29.4 96.0998 39.1 98.4998 43.1 93.7998C44.3 96.4998 47.1 98.2998 49.8 98.7998C54.7 99.6998 58.7 98.1998 60.4 95.7998C62.1 101.2 73.1 105.2 79.6 98.9998C81.1 100.7 83.7 102.1 87.9 102.5C95.5 103.3 100.2 101.3 102.9 97.2998C105.9 102 114.2 101.1 115.8 96.3998C119.5 99.3998 126.3 97.9998 128.3 93.3998C132.4 95.9998 142.9 95.4998 144.4 87.5998C150.4 90.2998 156.6 88.7998 158.4 84.8998C158.9 83.7998 159.1 82.6998 159.1 81.6998C162.9 82.2998 166.6 80.5998 167 74.8998C167.4 71.6998 165.6 69.2998 163.2 68.2998Z" fill="#D98448"/>
<g id="Group_5">
<path id="Vector_6" d="M23.6 71.7994C23.5 71.6994 23.3 71.5994 23.2 71.4994C22.8 71.0994 22.3 70.8994 21.8 70.7994C22 70.2994 22.1 69.7994 22 69.2994C21.8 67.9994 21.4 67.1994 20.4 66.3994C19.6 65.7994 18.5 65.8994 17.5 65.9994C16.7 66.0994 15.9 66.6994 15.3 67.2994C13.9 68.5994 13.1 70.7994 14.1 72.4994C14.9 73.8994 16.7 74.3994 18.2 74.0994C18.2 74.4994 18.2 74.9994 18.4 75.3994C18.7 75.9994 18.8 76.1994 19.2 76.6994C19.6 77.1994 20.4 77.3994 21 77.3994C21.2 77.3994 21.7 77.4994 21.1 77.3994C22.2 77.6994 23.4 77.1994 24 76.1994C24.4 75.4994 24.4 74.7994 24.4 73.9994C24.4 73.3994 24.3 72.7994 24 72.3994C23.9 72.1994 23.8 71.9994 23.6 71.7994Z" fill="#F2B46D"/>
<path id="Vector_7" d="M42.2 77.6994C42.1 77.5994 42.1 77.5994 42 77.5994C41.7 77.2994 41.4 76.9994 41 76.7994C40.7 75.7994 40 74.9994 39.1 74.3994C38.5 73.9994 37.7 73.7994 36.9 73.8994C36.9 73.6994 36.9 73.4994 36.9 73.2994C36.8 72.1994 36.4 71.3994 35.7 70.4994C34.5 69.1994 32.2 69.1994 31 70.4994C30.1 71.3994 30 72.5994 30.5 73.5994C30.3 74.4994 30.6 75.3994 31.2 76.0994C31.7 76.6994 32.7 76.8994 33.4 76.8994C33 77.7994 32.9 78.8994 33.2 79.7994C33.7 81.5994 35.4 82.2994 37 82.1994C37.6 82.2994 38.2 82.2994 38.9 82.2994H39C40 82.6994 41.2 82.5994 42.1 81.6994C43.2 80.6994 43.4 78.6994 42.2 77.6994Z" fill="#F2B46D"/>
<path id="Vector_8" d="M56.9 76.5994C55.9 76.7994 54.9 77.2995 54.1 77.8995C53.9 77.6995 53.6 77.5995 53.3 77.4995C54.5 77.9995 53.8 77.6995 53.5 77.4995C52.8 77.0995 52.2 76.9995 51.4 76.8995C50.8 76.7995 50 77.0995 49.4 77.3995C48.8 77.7995 48 78.4995 47.9 79.2995C47.8 80.0995 47.8 80.2994 47.9 81.0994C48 82.0994 49.1 82.8995 50 83.1995C50.3 83.2995 50.6 83.2995 50.9 83.2995H51C51.7 83.4995 52.2 83.3995 52.8 83.1995C53 83.5995 53.3 83.9995 53.6 84.2995C54 85.1995 54.7 85.9995 55.8 86.2995C57.8 86.9995 60.3 86.5995 61.9 85.3995C64.4 83.4995 65.3 80.2995 63.1 77.8995C61.7 76.2995 58.9 76.1994 56.9 76.5994Z" fill="#F2B46D"/>
<path id="Vector_9" d="M44.8 73.2998C43.7 73.2998 42.7 74.2998 42.7 75.3998C42.7 76.5998 43.7 77.4998 44.8 77.4998C45.9 77.4998 46.9 76.4998 46.9 75.3998C46.9 74.1998 46 73.2998 44.8 73.2998Z" fill="#F2B46D"/>
<path id="Vector_10" d="M99.5 83.7998C98.5 83.7998 97.6 84.6998 97.6 85.6998C97.6 86.6998 98.5 87.5998 99.5 87.5998C100.5 87.5998 101.4 86.6998 101.4 85.6998C101.4 84.6998 100.5 83.7998 99.5 83.7998Z" fill="#F2B46D"/>
<path id="Vector_11" d="M26 77.7999C25.9 77.7999 25.9 77.8999 26 77.7999C25.1 78.0999 24.6 79.0999 25.3 79.8999C26 80.5999 27.1 80.0999 27.3 79.2999C27.3 79.2999 27.3 79.2999 27.4 79.1999C28 78.3999 26.8 77.1999 26 77.7999Z" fill="#F2B46D"/>
<path id="Vector_12" d="M75.4 80.6996C74.6 80.3996 74 80.1996 73.2 80.0996C72.4 80.0996 71.6 80.3996 70.9 80.7996C69.1 81.7996 68.1 84.2996 69.3 86.0996C69.7 86.6996 70.1 87.0997 70.7 87.3997C71.1 87.8997 71.7 88.1997 72.3 88.3997C73.2 88.5997 74 88.3996 74.9 87.9996L75 87.8997C75.6 87.3997 75.7 87.2996 75.2 87.6996C75.5 87.4996 75.8 87.2996 76 87.0996C76.9 86.2996 77.4 85.3996 77.5 84.0996C77.7 82.7996 76.6 81.2996 75.4 80.6996Z" fill="#F2B46D"/>
<path id="Vector_13" d="M95.3 80.3998C94 79.0998 92.2 78.4998 90.5 78.2998C88.3 78.0998 86.4 78.6997 85.1 80.5997C84.9 80.7997 84.8 81.0998 84.7 81.2998C83.7 80.8998 82.5 80.7998 81.5 80.9998C81.3 80.9998 81 81.0998 80.8 81.1998C79.3 81.6998 78.3 83.2998 78.5 84.8998C78.7 86.5998 79.7 87.9998 81.5 88.3998C83 88.6998 84.4 88.2998 85.6 87.3998C86.4 88.1998 87.4 88.8997 88.6 89.0997C88.9 89.1997 89.2 89.1998 89.5 89.1998C90.2 89.2998 90.8 89.2997 91.5 89.0997C91.6 89.0997 91.7 89.0997 91.8 89.0997C95.9 89.1997 98.1 83.2998 95.3 80.3998Z" fill="#F2B46D"/>
<path id="Vector_14" d="M111.5 77.4997C111.5 77.2997 111.5 77.1997 111.4 76.9997C111.1 76.1997 110.3 75.3997 109.4 75.4997C108.4 75.5997 107.5 75.9997 106.9 76.8997C106.6 77.3997 106.5 77.9997 106.6 78.4997C104.9 78.5997 103.5 79.8997 103.5 81.5997C103.5 81.6997 103.4 81.8997 103.4 81.9997C103.2 83.2997 103.7 84.7997 105.2 85.0997C106.1 85.2997 106.9 85.3997 107.8 85.1997C109.5 84.8997 110.5 83.2997 110.6 81.6997C110.6 81.2997 110.5 80.7997 110.3 80.4997C111.1 79.9997 111.6 79.1997 111.5 78.2997C111.5 78.2997 111.5 78.2997 111.5 78.1997C111.5 77.8997 111.4 77.2997 111.5 77.4997Z" fill="#F2B46D"/>
<path id="Vector_15" d="M142.6 72.9995C141.9 72.9995 141.3 73.1995 140.8 73.5995C140.8 73.4995 140.8 73.4995 140.7 73.3995C140.4 72.5995 140.6 73.1995 140.7 73.3995C140.6 72.9995 140.3 72.4995 140.1 72.0995C138.9 70.2995 137 69.5995 134.9 69.8995C136.1 69.6995 134.7 69.8995 134.3 69.9995C133.7 70.1995 133.1 70.4995 132.6 70.9995C131.7 71.8995 131.3 73.2995 131.6 74.5995C131.6 74.6995 131.6 74.7995 131.6 74.8995C131.1 74.8995 130.6 74.8995 130.2 75.0995C129.3 75.3995 128.8 75.8995 128.2 76.4995C127.9 76.3995 127.6 76.2995 127.2 76.2995C125.6 76.2995 124.3 77.4995 124 78.9995C123.7 78.6995 123.3 78.4995 123 78.2995C121.9 77.6995 120.8 77.5995 119.6 77.8995C118.3 78.1995 117.3 79.4995 117.3 80.8995C116.9 81.4995 116.9 82.3995 117 83.0995C117.2 83.8995 117.8 84.5995 118.5 84.9995C119.3 85.4995 120.3 85.6995 121.2 85.5995C122.2 85.4995 123.5 85.1995 124.2 84.3995C124.6 83.8995 125 83.3995 125.2 82.6995C125.2 82.4995 125.3 82.3995 125.3 82.1995C125.9 82.5995 126.5 82.8995 127.3 82.8995C127.8 82.8995 128.3 82.7995 128.7 82.5995C128.9 82.6995 129.1 82.7995 129.2 82.8995C129.5 83.3995 130.1 83.9995 130.7 84.0995C131.6 84.1995 132.3 84.3995 133.2 84.1995C134.5 83.8995 135.4 82.6995 135.8 81.4995C136 81.0995 136 80.5995 136 80.1995C136.6 80.1995 137.2 80.0995 137.8 79.9995C138.8 79.7995 139.7 79.0995 140.3 78.2995C140.8 78.8995 141.6 79.2995 142.5 79.2995C144.1 79.2995 145.5 77.8995 145.5 76.2995C145.5 74.6995 144.2 72.9995 142.6 72.9995Z" fill="#F2B46D"/>
<path id="Vector_16" d="M152.9 68.0996C152.4 67.0996 151.5 66.5996 150.5 66.1996C149.7 65.8996 148.5 65.7996 147.7 66.0996C146.3 66.5996 145.3 67.6996 145.3 69.2996C145.3 69.8996 145.5 70.4996 145.8 70.8996C145.9 71.5996 146.1 72.0996 146.6 72.6996C146.9 73.0996 147.4 73.3996 147.8 73.5996C148.7 73.9996 149.8 74.3996 150.8 73.9996C152 73.4996 152.8 72.6996 153.3 71.4996C153.6 70.2996 153.5 69.0996 152.9 68.0996Z" fill="#F2B46D"/>
</g>
</g>
</g>
<g id="Group_6">
<g id="Clip path group">
<mask id="mask0_16_1479" style="mask-type:luminance" maskUnits="userSpaceOnUse" x="40" y="0" width="89" height="87">
<g id="SVGID_6_">
<path id="Vector_17" d="M126.4 60.2001C125.2 48.4001 123.5 37.4001 121.2 30.6001C115.1 12.1001 100.8 0.600098 84 0.600098C67.2 0.600098 52.9 12.1001 46.8 30.6001C44.3 38.1001 42.6 50.5001 41.3 63.4001C40.8 68.7001 40.3 74.0001 40 79.2001C49.7 83.8001 67.9 86.9001 88.8 86.9001C104.2 86.9001 118.2 85.2001 128.3 82.5001C127.8 75.3001 127.2 67.6001 126.4 60.2001Z" fill="white"/>
</g>
</mask>
<g mask="url(#mask0_16_1479)">
<g id="Group_7">
<g id="Group_8">
<g id="Group_9">
<path id="Vector_18" d="M84 110.2C92.9 110.2 121.3 108.6 127.9 104.4C126.7 75.2001 124 44.2001 119.7 31.1001C113.9 13.5001 100.4 2.1001 83.9 2.1001C67.4 2.1001 53.9 13.5001 48.1 31.1001C43.8 44.2001 41.1 75.2001 39.9 104.4C46.7 108.6 75.1 110.2 84 110.2Z" fill="#CC6B33"/>
</g>
<path id="Vector_19" d="M84 92C66.4 92 51 82.6 42.3 68.5C41.3 79.8 40.5 92.3 40.1 104.4C46.7 108.7 75.1 110.2 84 110.2C92.9 110.2 121.3 108.6 127.9 104.4C127.4 92.3 126.7 79.9 125.7 68.5C117 82.6 101.6 92 84 92Z" fill="#BA582F"/>
<g id="Group_10">
<path id="Vector_20" d="M45.6 105.4C46.7 77.9001 49.2 48.6001 53.3 36.3001C58.8 19.7001 71.5 9.00012 87 9.00012C102.6 9.00012 115.3 19.8001 120.7 36.3001C121.4 38.6001 120.9 34.5001 119.7 31.1001C113.9 13.5001 100.4 2.1001 83.9 2.1001C67.4 2.1001 53.9 13.5001 48.1 31.1001C43.8 44.2001 41.1 75.2001 39.9 104.4C42.4 105.8 47.1 106.4 45.6 105.4Z" fill="#E6965C"/>
</g>
<g id="Group_11">
<path id="Vector_21" d="M84 111.7C78.5 111.7 46.9 110.6 39.2 105.6C38.8 105.3 38.5 104.8 38.5 104.3C39.2 87.6001 41.3 47.1001 46.7 30.6001C52.8 12.1001 67.1 0.600098 83.9 0.600098C100.7 0.600098 115 12.1001 121.1 30.6001C126.5 47.1001 128.7 87.6001 129.3 104.3C129.3 104.8 129.1 105.3 128.6 105.6C121.1 110.6 89.5 111.7 84 111.7ZM41.6 103.5C48.9 107.1 74.5 108.7 84 108.7C93.5 108.7 119.2 107.2 126.4 103.5C125 69.5001 122 42.6001 118.3 31.5001C112.6 14.3001 99.5 3.6001 83.9 3.6001C68.3 3.6001 55.2 14.3001 49.5 31.5001C46 42.6001 43 69.5001 41.6 103.5Z" fill="black"/>
</g>
</g>
<g id="Group_12">
<g id="XMLID_99_">
<g id="Group_13">
<path id="Vector_22" d="M90.3 64.7002C90.3 67.9002 87.5 73.3002 84 73.3002C80.5 73.3002 77.7 67.9002 77.7 64.7002C79.6 65.3002 81.8 65.7002 84 65.7002C86.3 65.6002 88.4 65.3002 90.3 64.7002Z" fill="#F5F5F5"/>
</g>
<g id="Group_14">
<path id="Vector_23" d="M84 46.3003C92 46.3003 98.5 50.6003 98.5 56.0003C98.5 59.8003 95.2 63.1003 90.3 64.7003C88.4 65.3003 86.2 65.7003 84 65.7003C81.7 65.7003 79.6 65.4003 77.7 64.7003C72.9 63.1003 69.5 59.8003 69.5 56.0003C69.5 50.6003 76 46.3003 84 46.3003Z" fill="#FFEABF"/>
</g>
</g>
<g id="Group_15">
<g id="Group_16">
<path id="Vector_24" d="M90.6 52.4003C90.6 54.7003 87.7 57.8003 84 57.8003C80.4 57.8003 77.4 54.8003 77.4 52.4003C77.4 50.1003 80.3 49.3003 84 49.3003C87.6 49.3003 90.6 50.1003 90.6 52.4003Z" fill="black"/>
</g>
<g id="Group_17">
<path id="Vector_25" d="M83.8 51.7002C83.9 52.3002 83.1 52.9001 81.9 53.1001C80.8 53.3001 79.8 52.9001 79.7 52.3001C79.6 51.7001 80.4 51.1002 81.6 50.9002C82.7 50.7002 83.7 51.1002 83.8 51.7002Z" fill="white"/>
</g>
</g>
<path id="Vector_26" d="M99.5 56.0003C99.5 50.1003 92.5 45.3003 84 45.3003C75.5 45.3003 68.5 50.1003 68.5 56.0003C68.5 60.1003 71.8 63.6003 76.7 65.4003C77 68.8003 80 74.3003 84 74.3003C88 74.3003 91 68.8003 91.3 65.4003C96.2 63.6003 99.5 60.0003 99.5 56.0003ZM78.8 66.0003C80.2 66.3003 81.7 66.5003 83.2 66.6003V72.1003C81.2 71.5003 79.3 68.5003 78.8 66.0003ZM84.7 72.2003V66.7003C86.2 66.6003 87.7 66.4003 89.1 66.1003C88.7 68.5003 86.8 71.5003 84.7 72.2003ZM84 64.6003C76.6 64.6003 70.5 60.7003 70.5 55.9003C70.5 51.1003 76.6 47.2003 84 47.2003C91.4 47.2003 97.5 51.1003 97.5 55.9003C97.5 60.8003 91.4 64.6003 84 64.6003Z" fill="black"/>
<g id="Group_18">
<g id="Group_19">
<g id="Group_20">
<path id="Vector_27" d="M74.3 56.9004H66.4C66.1 56.9004 65.9 56.7004 65.9 56.4004C65.9 56.1004 66.1 55.9004 66.4 55.9004H74.3C74.6 55.9004 74.8 56.1004 74.8 56.4004C74.8 56.7004 74.6 56.9004 74.3 56.9004Z" fill="black"/>
</g>
<g id="Group_21">
<path id="Vector_28" d="M66.9 62.9002C66.7 62.9002 66.5 62.8001 66.5 62.6001C66.4 62.4001 66.5 62.1002 66.7 61.9002L74.1 58.0002C74.3 57.9002 74.6 58.0002 74.8 58.2002C74.9 58.4002 74.8 58.7002 74.6 58.9002L67.2 62.8002C67.1 62.9002 67 62.9002 66.9 62.9002Z" fill="black"/>
</g>
<g id="Group_22">
<path id="Vector_29" d="M74.3 55.0003C74.2 55.0003 74.1 55.0003 74.1 54.9003L66.7 51.0003C66.5 50.9003 66.4 50.6003 66.5 50.3003C66.6 50.1003 66.9 50.0003 67.2 50.1003L74.6 54.0003C74.8 54.1003 74.9 54.4003 74.8 54.7003C74.7 54.9003 74.5 55.0003 74.3 55.0003Z" fill="black"/>
</g>
</g>
<g id="Group_23">
<g id="Group_24">
<path id="Vector_30" d="M101.6 56.9004H93.7C93.4 56.9004 93.2 56.7004 93.2 56.4004C93.2 56.1004 93.4 55.9004 93.7 55.9004H101.6C101.9 55.9004 102.1 56.1004 102.1 56.4004C102.1 56.7004 101.8 56.9004 101.6 56.9004Z" fill="black"/>
</g>
<g id="Group_25">
<path id="Vector_31" d="M101.1 62.9002C101 62.9002 100.9 62.9002 100.9 62.8002L93.5 58.9002C93.3 58.8002 93.2 58.5002 93.3 58.2002C93.4 58.0002 93.7 57.9002 94 58.0002L101.4 61.9002C101.6 62.0002 101.7 62.3001 101.6 62.6001C101.4 62.8001 101.3 62.9002 101.1 62.9002Z" fill="black"/>
</g>
<g id="Group_26">
<path id="Vector_32" d="M93.7 55.0003C93.5 55.0003 93.3 54.9003 93.3 54.7003C93.2 54.5003 93.3 54.2003 93.5 54.0003L100.9 50.1003C101.1 50.0003 101.4 50.1003 101.6 50.3003C101.7 50.5003 101.6 50.8003 101.4 51.0003L94 54.9003C93.8 55.0003 93.8 55.0003 93.7 55.0003Z" fill="black"/>
</g>
</g>
</g>
</g>
<g id="Group_27">
<g id="Group_28">
<g id="Group_29">
<g id="Group_30">
<path id="Vector_33" d="M66.2 45.5002C66.2 48.4002 63.8 50.8002 60.9 50.8002C58 50.8002 55.6 48.4002 55.6 45.5002C55.6 42.6002 58 40.2002 60.9 40.2002C63.8 40.2002 66.2 42.5002 66.2 45.5002Z" fill="black"/>
</g>
<g id="Group_31">
<path id="Vector_34" d="M60.9 44.1C60.9 45 60.2 45.7 59.3 45.7C58.4 45.7 57.7 45 57.7 44.1C57.7 43.2 58.4 42.5 59.3 42.5C60.1 42.5 60.9 43.2 60.9 44.1Z" fill="white"/>
</g>
</g>
<g id="Group_32">
<path id="Vector_35" d="M51.7 34.1001C57.4 34.9001 67.9 37.0001 74.6 39.7001C76.9 34.4001 77.4 28.3001 75.5 22.6001C75.6 25.8001 75.2 28.2001 74.5 30.1001C65.9 26.0001 57.8 23.8001 54.9 23.2001C53.5 25.5001 51.9 30.4001 51.7 34.1001Z" fill="black"/>
</g>
</g>
<g id="Group_33">
<g id="Group_34">
<g id="Group_35">
<path id="Vector_36" d="M112.5 45.5003C112.5 48.4003 110.1 50.8003 107.2 50.8003C104.3 50.8003 101.9 48.4003 101.9 45.5003C101.9 42.6003 104.3 40.2003 107.2 40.2003C110.1 40.1003 112.5 42.5003 112.5 45.5003Z" fill="black"/>
</g>
<g id="Group_36">
<path id="Vector_37" d="M107.1 44.1C107.1 45 106.4 45.7 105.5 45.7C104.6 45.7 103.9 45 103.9 44.1C103.9 43.2 104.6 42.5 105.5 42.5C106.4 42.5 107.1 43.2 107.1 44.1Z" fill="white"/>
</g>
</g>
<g id="Group_37">
<path id="Vector_38" d="M116.3 34.1001C110.6 34.9001 100.1 37.0001 93.4 39.7001C91.1 34.4001 90.6 28.3001 92.5 22.6001C92.4 25.8001 92.8 28.2001 93.5 30.1001C102.1 26.0001 110.3 23.8001 113.1 23.2001C114.5 25.5001 116.1 30.4001 116.3 34.1001Z" fill="black"/>
</g>
</g>
</g>
</g>
</g>
</g>
</g>
<g id="Group_38">
<g id="Group_39">
<g id="XMLID_4_">
<g id="Group_40">
<path id="Vector_39" d="M38.7 78.9001L38.6 79.1C34.2 77.4 30.3 75.2 27.4 73C32.8 70.2 41.2 69.1001 43.5 69.2001L44.3 69.5C43.2 72.4 41.4 75.6001 38.7 78.9001Z" fill="#FFEABF"/>
<path id="Vector_40" d="M44.3 69.3998L43.5 69.0997C35.3 67.9997 30.5 65.6997 25.7 62.4997C30.2 60.2997 37.3 58.3998 44.4 59.3998L45.2 59.1998C45.7 62.2998 45.6 65.6998 44.3 69.3998Z" fill="#FFEABF"/>
<path id="Vector_41" d="M40.9 50.4001C42.9 52.7001 44.5 55.7001 45.2 59.3001L44.4 59.5001C36.6 57.6001 31.1 55.2001 26.5 53.5001C30.6 51.0001 35.3 49.6001 40.9 50.4001Z" fill="#FFEABF"/>
<path id="Vector_42" d="M64.3 71.5002C63.9 77.1002 58.3 83.2002 47.5 81.4002C44.4 80.9002 41.4 80.0002 38.6 79.0002L38.7 78.8002C41.5 75.5002 43.3 72.3002 44.3 69.3002C45.6 65.6002 45.8 62.2002 45.2 59.1002C44.6 55.5002 42.9 52.5002 40.9 50.2002C43.7 50.6002 46.8 51.5002 50.2 53.1002C58.3 56.9002 64.8 65.1002 64.3 71.5002Z" fill="#CC6B33"/>
<path id="Vector_43" d="M58.6 57.1C56.3 54.9 53.6 53.1 50.9 51.9C41.4 47.5 33.6 47.6 25.6 52.2C25.1 52.5 24.8 53.1 24.9 53.6C25 54.2 25.4 54.7 25.9 54.9C27.1 55.3 28.4 55.8 29.8 56.3C31.4 56.9 33 57.5 34.8 58.1C31 58.7 27.5 59.9 25 61.2C24.5 61.4 24.2 61.9 24.2 62.5C24.2 63 24.4 63.6 24.9 63.8C27.9 65.8 31 67.5 34.9 68.7C32.1 69.3 29.1 70.2 26.7 71.5C26.3 71.7 26 72.2 25.9 72.7C25.9 73.2 26 73.6 26.4 73.9L26.5 74C31.9 78.3 39.7 81.6 47.3 82.8C54.4 84 58.8 81.9 61.2 80C63.9 77.9 65.6 74.8 65.9 71.5C66.2 67.1 63.5 61.7 58.6 57.1ZM30.9 53.5C30.7 53.4 30.4 53.3 30.2 53.2C33 52 36.5 51.2 40.9 51.8C42.2 53.5 43.2 55.5 43.9 57.7C38.6 56.5 34.5 54.9 30.9 53.5ZM28.9 62.8C33 61.3 38.6 60.2 44.2 60.9C44.3 60.9 44.4 60.9 44.5 60.9C44.7 63 44.5 65.3 43.9 67.7H43.8C37 66.7 32.8 65.1 28.9 62.8ZM42.7 70.6C41.8 72.8 40.4 75.1 38.5 77.4C35.5 76.2 32.7 74.8 30.3 73.2C34.9 71.5 40.4 70.7 42.7 70.6ZM59.3 77.8C57.3 79.3 53.7 81 47.7 80C45.3 79.6 42.9 79 40.5 78.2C48.2 68.1 47.4 58.7 43.6 52.5C45.4 53 47.4 53.7 49.6 54.7C52 55.8 54.4 57.5 56.5 59.4C60.7 63.3 63.1 67.9 62.8 71.5C62.6 73.9 61.4 76.2 59.3 77.8Z" fill="black"/>
</g>
</g>
</g>
<g id="Group_41">
<g id="XMLID_3_">
<g id="Group_42">
<path id="Vector_44" d="M129.3 78.9001L129.4 79.1C133.8 77.4 137.7 75.2 140.6 73C135.2 70.2 126.8 69.1001 124.5 69.2001L123.7 69.5C124.8 72.4 126.6 75.6001 129.3 78.9001Z" fill="#FFEABF"/>
<path id="Vector_45" d="M123.7 69.4003L124.5 69.1002C132.7 68.0002 137.5 65.7002 142.3 62.5002C137.8 60.3002 130.7 58.4003 123.6 59.4003L122.8 59.2002C122.3 62.3002 122.4 65.7003 123.7 69.4003Z" fill="#FFEABF"/>
<path id="Vector_46" d="M127.1 50.4001C125.1 52.7001 123.5 55.7001 122.8 59.3001L123.6 59.5001C131.4 57.6001 136.9 55.2001 141.5 53.5001C137.4 51.0001 132.7 49.6001 127.1 50.4001Z" fill="#FFEABF"/>
<path id="Vector_47" d="M103.7 71.5002C104.1 77.1002 109.7 83.2002 120.5 81.4002C123.6 80.9002 126.6 80.0002 129.4 79.0002L129.3 78.8002C126.5 75.5002 124.7 72.3002 123.7 69.3002C122.4 65.6002 122.2 62.2002 122.8 59.1002C123.4 55.5002 125.1 52.5002 127.1 50.2002C124.3 50.6002 121.2 51.5002 117.8 53.1002C109.7 56.9002 103.2 65.1002 103.7 71.5002Z" fill="#CC6B33"/>
<path id="Vector_48" d="M102.2 71.6001C102.5 74.9001 104.2 78.0001 106.9 80.1001C109.3 82.0001 113.7 84.0001 120.8 82.9001C128.4 81.6001 136.2 78.3001 141.6 74.1001L141.7 74.0001C142 73.7001 142.2 73.2001 142.2 72.8001C142.2 72.3001 141.9 71.8001 141.4 71.6001C139 70.3001 136 69.4001 133.2 68.8001C137.1 67.5001 140.2 65.9001 143.2 63.9001C143.7 63.6001 143.9 63.1001 143.9 62.6001C143.9 62.1001 143.5 61.6001 143.1 61.3001C140.6 60.1001 137.1 58.9001 133.3 58.2001C135.1 57.6001 136.7 57.0001 138.3 56.4001C139.7 55.9001 141 55.4001 142.2 55.0001C142.8 54.8001 143.1 54.3001 143.2 53.7001C143.3 53.1001 143 52.6001 142.5 52.3001C134.6 47.7001 126.8 47.6001 117.2 52.0001C114.5 53.3001 111.8 55.1001 109.5 57.2001C104.5 61.7001 101.8 67.1001 102.2 71.6001ZM124.1 57.8001C124.7 55.6001 125.8 53.6001 127.1 51.9001C131.5 51.3001 135 52.1001 137.8 53.3001C137.6 53.4001 137.3 53.5001 137.1 53.6001C133.5 54.9001 129.4 56.5001 124.1 57.8001ZM124.3 67.7001C123.5 65.3001 123.4 63.1001 123.6 61.0001C123.7 61.0001 123.8 61.0001 123.9 61.0001C129.5 60.3001 135.1 61.4001 139.2 62.9001C135.2 65.1001 131 66.7001 124.3 67.7001ZM137.6 73.2001C135.2 74.8001 132.4 76.3001 129.4 77.4001C127.5 75.1001 126.2 72.8001 125.2 70.6001C127.6 70.7001 133.1 71.5001 137.6 73.2001ZM105.2 71.4001C104.9 67.8001 107.3 63.2001 111.5 59.3001C113.6 57.4001 116 55.7001 118.4 54.6001C120.6 53.6001 122.5 52.9001 124.4 52.4001C120.6 58.6001 119.8 68.1001 127.5 78.1001C125.2 78.9001 122.7 79.5001 120.3 79.9001C114.3 80.9001 110.7 79.3001 108.7 77.7001C106.6 76.2001 105.4 73.9001 105.2 71.4001Z" fill="black"/>
</g>
</g>
</g>
</g>
<g id="Group_43">
<path id="Vector_49" d="M162.8 68.1003C165.4 68.9003 167.4 71.5003 167.2 75.0003C166.8 80.7003 163.1 82.4003 159.3 81.8003C159.3 82.8003 159.1 83.9003 158.6 85.0003C156.8 88.8003 150.6 90.3003 144.6 87.7003C143.1 95.7003 132.6 96.1003 128.5 93.5003C126.4 98.2003 119.6 99.5003 116 96.5003C114.4 101.1 106 102.1 103.1 97.4003C100.4 101.4 95.7 103.4 88.1 102.6C83.9 102.2 81.3 100.8 79.8 99.1003C73.3 105.3 62.3 101.3 60.6 95.9003C58.9 98.3003 54.9 99.8003 50 98.9003C47.3 98.4003 44.5 96.6003 43.3 93.9003C39.3 98.7003 29.6 96.2003 28.9 90.4003C24.2 92.1003 15.6 91.6003 12.9 87.5003C11.9 86.1003 11.4 84.7003 11.2 83.3003C5.19999 83.8003 1.3 81.1003 1.1 76.6003C0.900002 73.0003 3.79999 69.9003 6.89999 69.4003C8.19999 69.2003 9.49999 69.3003 10.7 70.0003C10.9 67.7003 13.5 63.8003 18.5 63.8003C21.8 63.8003 25.5 65.6003 26 70.3003C30.3 62.6003 39.6 66.0003 40.9 70.7003C44.8 69.2003 50.5 71.7003 51.1 75.8003C53.3 73.2003 57.1 72.5003 59.9 72.7003C62.7 72.9003 65.3 74.3003 66.9 76.1003C70.1 72.0003 78.6 73.6003 79.1 78.0003C81 75.5003 84 73.8003 87.3 73.5003C91.7 73.1003 95.7 74.9003 98.2 77.3003C99.3 72.9003 103.2 71.2003 106.2 70.9003C109.7 70.5003 114.8 72.0003 116.3 77.2003C117 73.7003 122.6 72.0003 124.6 75.9003C125.2 71.9003 127.8 69.1003 132.4 68.1003C135.1 67.5003 137.5 67.7003 139.3 68.9003C140.3 66.3003 143.1 63.8003 146.4 63.6003C150.6 63.3003 155.4 64.7003 156.6 69.3003C158.4 67.8003 160.8 67.5003 162.8 68.1003Z" fill="#E8984D"/>
<path id="Vector_50" d="M163.2 68.3003C162.8 73.5003 159.3 75.1003 155.7 74.6003C155.7 75.6003 155.5 76.6003 155 77.6003C153.3 81.3003 147.4 82.7003 141.7 80.1003C140.3 87.7003 130.3 88.1003 126.4 85.6003C124.4 90.1003 117.9 91.3003 114.4 88.5003C112.9 92.9003 104.9 93.8003 102.1 89.3003C99.5 93.1003 95 95.0003 87.8 94.3003C83.8 93.9003 81.4 92.6003 79.9 90.9003C73.7 96.8003 63.2 92.9003 61.6 87.8003C59.9 90.1003 56.1 91.5003 51.5 90.7003C48.9 90.2003 46.3 88.5003 45.1 85.9003C41.3 90.5003 32 88.1003 31.4 82.6003C26.9 84.2003 18.8 83.8003 16.2 79.9003C15.3 78.5003 14.8 77.2003 14.5 75.9003C8.90001 76.3003 5.3 73.9003 4.9 69.9003C2.6 71.1003 0.8 73.6003 0.9 76.5003C1.1 81.0003 5.00001 83.7003 11 83.2003C11.2 84.5003 11.8 85.9003 12.7 87.4003C15.4 91.5003 24 92.0003 28.7 90.3003C29.4 96.1003 39.1 98.5003 43.1 93.8003C44.3 96.5003 47.1 98.3003 49.8 98.8003C54.7 99.7003 58.7 98.2003 60.4 95.8003C62.1 101.2 73.1 105.2 79.6 99.0003C81.1 100.7 83.7 102.1 87.9 102.5C95.5 103.3 100.2 101.3 102.9 97.3003C105.9 102 114.2 101.1 115.8 96.4003C119.5 99.4003 126.3 98.0003 128.3 93.4003C132.4 96.0003 142.9 95.5003 144.4 87.6003C150.4 90.3003 156.6 88.8003 158.4 84.9003C158.9 83.8003 159.1 82.7003 159.1 81.7003C162.9 82.3003 166.6 80.6003 167 74.9003C167.4 71.7003 165.6 69.3003 163.2 68.3003Z" fill="#D98448"/>
<g id="Group_44">
<path id="Vector_51" d="M23.6 71.8004C23.5 71.7004 23.3 71.6004 23.2 71.5004C22.8 71.1004 22.3 70.9004 21.8 70.8004C22 70.3004 22.1 69.8004 22 69.3004C21.8 68.0004 21.4 67.2004 20.4 66.4004C19.6 65.8004 18.5 65.9004 17.5 66.0004C16.7 66.1004 15.9 66.7004 15.3 67.3004C13.9 68.6004 13.1 70.8004 14.1 72.5004C14.9 73.9004 16.7 74.4004 18.2 74.1004C18.2 74.5004 18.2 75.0004 18.4 75.4004C18.7 76.0004 18.8 76.2004 19.2 76.7004C19.6 77.2004 20.4 77.4004 21 77.4004C21.2 77.4004 21.7 77.5004 21.1 77.4004C22.2 77.7004 23.4 77.2004 24 76.2004C24.4 75.5004 24.4 74.8004 24.4 74.0004C24.4 73.4004 24.3 72.8004 24 72.4004C23.9 72.2004 23.8 72.0004 23.6 71.8004Z" fill="#F2B46D"/>
<path id="Vector_52" d="M42.2 77.7004C42.1 77.6004 42.1 77.6004 42 77.6004C41.7 77.3004 41.4 77.0004 41 76.8004C40.7 75.8004 40 75.0004 39.1 74.4004C38.5 74.0004 37.7 73.8004 36.9 73.9004C36.9 73.7004 36.9 73.5004 36.9 73.3004C36.8 72.2004 36.4 71.4004 35.7 70.5004C34.5 69.2004 32.2 69.2004 31 70.5004C30.1 71.4004 30 72.6004 30.5 73.6004C30.3 74.5004 30.6 75.4004 31.2 76.1004C31.7 76.7004 32.7 76.9004 33.4 76.9004C33 77.8004 32.9 78.9004 33.2 79.8004C33.7 81.6004 35.4 82.3004 37 82.2004C37.6 82.3004 38.2 82.3004 38.9 82.3004H39C40 82.7004 41.2 82.6004 42.1 81.7004C43.2 80.7004 43.4 78.7004 42.2 77.7004Z" fill="#F2B46D"/>
<path id="Vector_53" d="M56.9 76.5999C55.9 76.7999 54.9 77.3 54.1 77.9C53.9 77.7 53.6 77.6 53.3 77.5C54.5 78 53.8 77.7 53.5 77.5C52.8 77.1 52.2 77 51.4 76.9C50.8 76.8 50 77.1 49.4 77.4C48.8 77.8 48 78.5 47.9 79.3C47.8 80.1 47.8 80.2999 47.9 81.0999C48 82.0999 49.1 82.9 50 83.2C50.3 83.3 50.6 83.3 50.9 83.3H51C51.7 83.4999 52.2 83.4 52.8 83.2C53 83.6 53.3 83.9999 53.6 84.3C54 85.2 54.7 86 55.8 86.3C57.8 87 60.3 86.6 61.9 85.4C64.4 83.5 65.3 80.3 63.1 77.9C61.7 76.3 58.9 76.1999 56.9 76.5999Z" fill="#F2B46D"/>
<path id="Vector_54" d="M44.8 73.3003C43.7 73.3003 42.7 74.3003 42.7 75.4003C42.7 76.6003 43.7 77.5003 44.8 77.5003C45.9 77.5003 46.9 76.5003 46.9 75.4003C46.9 74.2003 46 73.3003 44.8 73.3003Z" fill="#F2B46D"/>
<path id="Vector_55" d="M99.5 83.8003C98.5 83.8003 97.6 84.7003 97.6 85.7003C97.6 86.7003 98.5 87.6003 99.5 87.6003C100.5 87.6003 101.4 86.7003 101.4 85.7003C101.4 84.7003 100.5 83.8003 99.5 83.8003Z" fill="#F2B46D"/>
<path id="Vector_56" d="M26 77.7999C25.9 77.7999 25.9 77.8999 26 77.7999C25.1 78.0999 24.6 79.0999 25.3 79.8999C26 80.5999 27.1 80.0999 27.3 79.2999C27.3 79.2999 27.3 79.2999 27.4 79.1999C28 78.3999 26.8 77.1999 26 77.7999Z" fill="#F2B46D"/>
<path id="Vector_57" d="M75.4 80.7001C74.6 80.4001 74 80.2001 73.2 80.1001C72.4 80.1001 71.6 80.4001 70.9 80.8001C69.1 81.8001 68.1 84.3001 69.3 86.1001C69.7 86.7001 70.1 87.1001 70.7 87.4001C71.1 87.9001 71.7 88.2001 72.3 88.4001C73.2 88.6001 74 88.4001 74.9 88.0001L75 87.9001C75.6 87.4001 75.7 87.3001 75.2 87.7001C75.5 87.5001 75.8 87.3001 76 87.1001C76.9 86.3001 77.4 85.4001 77.5 84.1001C77.7 82.8001 76.6 81.3001 75.4 80.7001Z" fill="#F2B46D"/>
<path id="Vector_58" d="M95.3 80.4003C94 79.1003 92.2 78.5002 90.5 78.3002C88.3 78.1002 86.4 78.7002 85.1 80.6002C84.9 80.8002 84.8 81.1002 84.7 81.3002C83.7 80.9002 82.5 80.8003 81.5 81.0003C81.3 81.0003 81 81.1003 80.8 81.2003C79.3 81.7003 78.3 83.3003 78.5 84.9003C78.7 86.6003 79.7 88.0003 81.5 88.4003C83 88.7003 84.4 88.3003 85.6 87.4003C86.4 88.2003 87.4 88.9002 88.6 89.1002C88.9 89.2002 89.2 89.2003 89.5 89.2003C90.2 89.3003 90.8 89.3002 91.5 89.1002C91.6 89.1002 91.7 89.1002 91.8 89.1002C95.9 89.2002 98.1 83.3003 95.3 80.4003Z" fill="#F2B46D"/>
<path id="Vector_59" d="M111.5 77.5002C111.5 77.3002 111.5 77.2002 111.4 77.0002C111.1 76.2002 110.3 75.4002 109.4 75.5002C108.4 75.6002 107.5 76.0002 106.9 76.9002C106.6 77.4002 106.5 78.0002 106.6 78.5002C104.9 78.6002 103.5 79.9002 103.5 81.6002C103.5 81.7002 103.4 81.9002 103.4 82.0002C103.2 83.3002 103.7 84.8002 105.2 85.1002C106.1 85.3002 106.9 85.4002 107.8 85.2002C109.5 84.9002 110.5 83.3002 110.6 81.7002C110.6 81.3002 110.5 80.8002 110.3 80.5002C111.1 80.0002 111.6 79.2002 111.5 78.3002C111.5 78.3002 111.5 78.3002 111.5 78.2002C111.5 77.9002 111.4 77.3002 111.5 77.5002Z" fill="#F2B46D"/>
<path id="Vector_60" d="M142.6 73C141.9 73 141.3 73.2 140.8 73.6C140.8 73.5 140.8 73.5 140.7 73.4C140.4 72.6 140.6 73.2 140.7 73.4C140.6 73 140.3 72.5 140.1 72.1C138.9 70.3 137 69.6 134.9 69.9C136.1 69.7 134.7 69.9 134.3 70C133.7 70.2 133.1 70.5 132.6 71C131.7 71.9 131.3 73.3 131.6 74.6C131.6 74.7 131.6 74.8 131.6 74.9C131.1 74.9 130.6 74.9 130.2 75.1C129.3 75.4 128.8 75.9 128.2 76.5C127.9 76.4 127.6 76.3 127.2 76.3C125.6 76.3 124.3 77.5 124 79C123.7 78.7 123.3 78.5 123 78.3C121.9 77.7 120.8 77.6 119.6 77.9C118.3 78.2 117.3 79.5 117.3 80.9C116.9 81.5 116.9 82.4 117 83.1C117.2 83.9 117.8 84.6 118.5 85C119.3 85.5 120.3 85.7 121.2 85.6C122.2 85.5 123.5 85.2 124.2 84.4C124.6 83.9 125 83.4 125.2 82.7C125.2 82.5 125.3 82.4 125.3 82.2C125.9 82.6 126.5 82.9 127.3 82.9C127.8 82.9 128.3 82.8 128.7 82.6C128.9 82.7 129.1 82.8 129.2 82.9C129.5 83.4 130.1 84 130.7 84.1C131.6 84.2 132.3 84.4 133.2 84.2C134.5 83.9 135.4 82.7 135.8 81.5C136 81.1 136 80.6 136 80.2C136.6 80.2 137.2 80.1 137.8 80C138.8 79.8 139.7 79.1 140.3 78.3C140.8 78.9 141.6 79.3 142.5 79.3C144.1 79.3 145.5 77.9 145.5 76.3C145.5 74.7 144.2 73 142.6 73Z" fill="#F2B46D"/>
<path id="Vector_61" d="M152.9 68.1001C152.4 67.1001 151.5 66.6001 150.5 66.2001C149.7 65.9001 148.5 65.8001 147.7 66.1001C146.3 66.6001 145.3 67.7001 145.3 69.3001C145.3 69.9001 145.5 70.5001 145.8 70.9001C145.9 71.6001 146.1 72.1001 146.6 72.7001C146.9 73.1001 147.4 73.4001 147.8 73.6001C148.7 74.0001 149.8 74.4001 150.8 74.0001C152 73.5001 152.8 72.7001 153.3 71.5001C153.6 70.3001 153.5 69.1001 152.9 68.1001Z" fill="#F2B46D"/>
</g>
</g>
</g>
</svg>
