<svg width="167" height="124" viewBox="0 0 167 124" fill="none" xmlns="http://www.w3.org/2000/svg">
<g id="Group">
<g id="Group_2">
<g id="Group_3">
<path id="Vector" d="M125.7 66.9004C129.9 63.8004 136.7 66.1004 136.7 73.5004C138.7 69.4004 147.4 70.4004 147 77.3004C149.7 75.5004 153.5 77.1004 153.3 81.0004C157 79.0004 163.7 83.1004 162.2 89.1004C160.2 88.5004 157.9 88.8004 155.9 90.4004C154.7 85.9004 149.9 84.4004 145.7 84.7004C142.4 84.9004 139.7 87.4004 138.6 90.0004C136.8 88.8004 134.4 88.6004 131.7 89.2004C127.1 90.2004 124.5 93.1004 123.9 97.0004C121.9 93.2004 116.2 94.8004 115.6 98.3004C114.1 93.1004 109 91.6004 105.5 92.0004C102.5 92.3004 98.6 94.0004 97.5 98.4004C95 96.0004 91 94.2004 86.6 94.6004C83.3 94.9004 80.2 96.6004 78.4 99.1004C77.9 94.7004 69.4 93.0004 66.2 97.2004C64.7 95.4004 62.1 94.0004 59.2 93.8004C56.4 93.6004 52.6 94.3004 50.4 96.9004C49.8 92.8004 44.1 90.3004 40.2 91.8004C39 87.1004 29.7 83.7004 25.3 91.4004C24.8 86.7004 21.1 84.9004 17.8 84.9004C12.8 84.9004 10.1 88.7004 10 91.1004C8.8 90.4004 7.50001 90.3004 6.20001 90.5004C4.60001 84.6004 11.6 80.1004 15.5 82.7004C14.5 76.7004 21.8 74.2004 25.2 78.2004C23.8 72.8004 29.4 69.0004 33.8 70.6004C35.3 65.0004 44.6 61.8004 49.3 68.0004C50 64.0004 53.9 61.4004 58.7 62.0004C60.9 62.3004 62.7 63.4004 63.8 64.8004C65.5 60.3004 72.5 59.3004 74.8 63.3004C76.3 55.2004 90 51.5004 95.6 60.1004C97.4 59.2004 99.7 58.9004 102.4 59.6004C106.6 60.7004 108.8 64.2004 109.1 66.9004C111.5 59.6004 123.4 60.9004 125.7 66.9004Z" fill="#D98448"/>
<path id="Vector_2" d="M25.3 91.3006C29.6 83.6006 38.9 87.0006 40.2 91.7006C44.1 90.2006 49.8 92.7006 50.4 96.8006C52.6 94.2006 56.4 93.5006 59.2 93.7006C62 93.9006 64.6 95.3006 66.2 97.1006C69.4 93.0006 77.9 94.6006 78.4 99.0006C80.3 96.5006 83.3 94.8006 86.6 94.5006C91 94.1006 95 95.9006 97.5 98.3006C98.6 93.9006 102.5 92.2006 105.5 91.9006C109 91.5006 114.1 93.0006 115.6 98.2006C116.3 94.7006 121.9 93.0006 123.9 96.9006C124.5 92.9006 127.1 90.1006 131.7 89.1006C134.4 88.5006 136.8 88.7006 138.6 89.9006C139.6 87.4006 142.2 85.1006 145.2 84.7006C142.7 82.3006 137.9 82.6006 136.5 85.5006C136.5 78.1006 129.7 75.9006 125.5 78.9006C123.2 72.9006 111.3 71.6006 108.8 78.9006C108.5 76.2006 106.3 72.7006 102.1 71.6006C99.5 70.9006 97.2 71.2006 95.3 72.1006C89.8 63.6006 76 67.3006 74.5 75.3006C72.2 71.3006 65.2 72.2006 63.5 76.8006C62.4 75.4006 60.6 74.3006 58.4 74.0006C53.6 73.3006 49.7 76.0006 49 80.0006C44.3 73.8006 35 77.1006 33.5 82.6006C29.2 81.0006 23.5 84.8006 24.9 90.2006L24.8 90.1006C25.1 90.4006 25.2 90.8006 25.3 91.3006Z" fill="#B85E37"/>
<path id="Vector_3" d="M88.2 107.6C119.238 107.6 144.4 100.795 144.4 92.4002C144.4 84.0055 119.238 77.2002 88.2 77.2002C57.1616 77.2002 32 84.0055 32 92.4002C32 100.795 57.1616 107.6 88.2 107.6Z" fill="#663629"/>
</g>
<g id="Group_4">
<path id="Vector_4" d="M162.2 89.0002C164.8 89.8002 166.8 92.4002 166.6 95.9002C166.2 101.6 162.5 103.3 158.7 102.7C158.7 103.7 158.5 104.8 158 105.9C156.2 109.7 150 111.2 144 108.6C142.5 116.6 132 117 127.9 114.4C125.8 119.1 119 120.4 115.4 117.4C113.8 122 105.4 123 102.5 118.3C99.8 122.3 95.1 124.3 87.5 123.5C83.3 123.1 80.7 121.7 79.2 120C72.7 126.2 61.7 122.2 60 116.8C58.3 119.2 54.3 120.7 49.4 119.8C46.7 119.3 43.9 117.5 42.7 114.8C38.7 119.6 29 117.1 28.3 111.3C23.6 113 15 112.5 12.3 108.4C11.3 107 10.8 105.6 10.6 104.2C4.60002 104.7 0.700011 102 0.500011 97.5002C0.300011 93.9002 3.2 90.8001 6.3 90.3001C7.6 90.1001 8.90002 90.2002 10.1 90.9002C10.3 88.6002 12.9 84.7002 17.9 84.7002C21.2 84.7002 24.9 86.5002 25.4 91.2002C29.7 83.5002 39 86.9001 40.3 91.6001C44.2 90.1001 49.9 92.6002 50.5 96.7002C52.7 94.1002 56.5 93.4001 59.3 93.6001C62.1 93.8001 64.7 95.2002 66.3 97.0002C69.5 92.9002 78 94.5002 78.5 98.9002C80.4 96.4002 83.4 94.7002 86.7 94.4002C91.1 94.0002 95.1 95.8002 97.6 98.2002C98.7 93.8002 102.6 92.1001 105.6 91.8001C109.1 91.4001 114.2 92.9001 115.7 98.1001C116.4 94.6001 122 92.9001 124 96.8001C124.6 92.8001 127.2 90.0002 131.8 89.0002C134.5 88.4002 136.9 88.6001 138.7 89.8001C139.7 87.2001 142.5 84.7002 145.8 84.5002C150 84.2002 154.8 85.6002 156 90.2002C157.9 88.7002 160.2 88.4002 162.2 89.0002Z" fill="#E8984D"/>
<path id="Vector_5" d="M162.7 89.2002C162.3 94.4002 158.8 96.0002 155.2 95.5002C155.2 96.5002 155 97.5002 154.5 98.5002C152.8 102.2 146.9 103.6 141.2 101C139.8 108.6 129.8 109 125.9 106.5C123.9 111 117.4 112.2 113.9 109.4C112.4 113.8 104.4 114.7 101.6 110.2C99 114 94.5 115.9 87.3 115.2C83.3 114.8 80.9 113.5 79.4 111.8C73.2 117.7 62.7 113.8 61.1 108.7C59.4 111 55.6 112.4 51 111.6C48.4 111.1 45.8 109.4 44.6 106.8C40.8 111.4 31.5 109 30.9 103.5C26.4 105.1 18.3 104.7 15.7 100.8C14.8 99.4002 14.3 98.1002 14 96.8002C8.40001 97.2002 4.8 94.8002 4.4 90.8002C2.1 92.0002 0.3 94.5002 0.4 97.4002C0.6 101.9 4.50001 104.6 10.5 104.1C10.7 105.4 11.3 106.8 12.2 108.3C14.9 112.4 23.5 112.9 28.2 111.2C28.9 117 38.6 119.4 42.6 114.7C43.8 117.4 46.6 119.2 49.3 119.7C54.2 120.6 58.2 119.1 59.9 116.7C61.6 122.1 72.6 126.1 79.1 119.9C80.6 121.6 83.2 123 87.4 123.4C95 124.2 99.7 122.2 102.4 118.2C105.4 122.9 113.7 122 115.3 117.3C119 120.3 125.8 118.9 127.8 114.3C131.9 116.9 142.4 116.4 143.9 108.5C149.9 111.2 156.1 109.7 157.9 105.8C158.4 104.7 158.6 103.6 158.6 102.6C162.4 103.2 166.1 101.5 166.5 95.8002C166.8 92.6002 165.1 90.2002 162.7 89.2002Z" fill="#D98448"/>
<g id="Group_5">
<path id="Vector_6" d="M23 92.6998C22.9 92.5998 22.7 92.4998 22.6 92.3998C22.2 91.9998 21.7 91.7998 21.2 91.6998C21.4 91.1998 21.5 90.6998 21.4 90.1998C21.2 88.8998 20.8 88.0998 19.8 87.2998C19 86.6998 17.9 86.7998 16.9 86.8998C16.1 86.9998 15.3 87.5998 14.7 88.1998C13.3 89.4998 12.5 91.6998 13.5 93.3998C14.3 94.7998 16.1 95.2998 17.6 94.9998C17.6 95.3998 17.6 95.8998 17.8 96.2998C18.1 96.8998 18.2 97.0998 18.6 97.5998C19 98.0998 19.8 98.2998 20.4 98.2998C20.6 98.2998 21.1 98.3998 20.5 98.2998C21.6 98.5998 22.8 98.0998 23.4 97.0998C23.8 96.3998 23.8 95.6998 23.8 94.8998C23.8 94.2998 23.7 93.6998 23.4 93.2998C23.4 93.0998 23.2 92.8998 23 92.6998Z" fill="#F2B46D"/>
<path id="Vector_7" d="M41.7 98.5998C41.6 98.4998 41.6 98.4998 41.5 98.4998C41.2 98.1998 40.9 97.8998 40.5 97.6998C40.2 96.6998 39.5 95.8998 38.6 95.2998C38 94.8998 37.2 94.6998 36.4 94.7998C36.4 94.5998 36.4 94.3998 36.4 94.1998C36.3 93.0998 35.9 92.2998 35.2 91.3998C34 90.0998 31.7 90.0998 30.5 91.3998C29.6 92.2998 29.5 93.4998 30 94.4998C29.8 95.3998 30.1 96.2998 30.7 96.9998C31.2 97.5998 32.2 97.7998 32.9 97.7998C32.5 98.6998 32.4 99.7998 32.7 100.7C33.2 102.5 34.9 103.2 36.5 103.1C37.1 103.2 37.7 103.2 38.4 103.2H38.5C39.5 103.6 40.7 103.5 41.6 102.6C42.7 101.6 42.9 99.5998 41.7 98.5998Z" fill="#F2B46D"/>
<path id="Vector_8" d="M56.3 97.4999C55.3 97.6999 54.3 98.1998 53.5 98.7998C53.3 98.5998 53 98.4999 52.7 98.3999C53.9 98.8999 53.2 98.5999 52.9 98.3999C52.2 97.9999 51.6 97.8998 50.8 97.7998C50.2 97.6998 49.4 97.9998 48.8 98.2998C48.2 98.6998 47.4 99.3999 47.3 100.2C47.2 101 47.2 101.2 47.3 102C47.4 103 48.5 103.8 49.4 104.1C49.7 104.2 50 104.2 50.3 104.2H50.4C51.1 104.4 51.6 104.3 52.2 104.1C52.4 104.5 52.7 104.9 53 105.2C53.4 106.1 54.1 106.9 55.2 107.2C57.2 107.9 59.7 107.5 61.3 106.3C63.8 104.4 64.7 101.2 62.5 98.7998C61.1 97.1998 58.3 97.0999 56.3 97.4999Z" fill="#F2B46D"/>
<path id="Vector_9" d="M44.3 94.2002C43.2 94.2002 42.2 95.2002 42.2 96.3002C42.2 97.5002 43.2 98.4002 44.3 98.4002C45.4 98.4002 46.4 97.4002 46.4 96.3002C46.4 95.1002 45.4 94.2002 44.3 94.2002Z" fill="#F2B46D"/>
<path id="Vector_10" d="M99 104.7C98 104.7 97.1 105.6 97.1 106.6C97.1 107.6 98 108.5 99 108.5C100 108.5 100.9 107.6 100.9 106.6C100.9 105.6 100 104.7 99 104.7Z" fill="#F2B46D"/>
<path id="Vector_11" d="M25.4 98.7003C24.5 99.0003 24 100 24.7 100.8C25.4 101.5 26.5 101 26.7 100.2C26.7 100.2 26.7 100.2 26.8 100.1C27.5 99.3002 26.2 98.1003 25.4 98.7003Z" fill="#F2B46D"/>
<path id="Vector_12" d="M74.9 101.6C74.1 101.3 73.5 101.1 72.7 101C71.9 101 71.1 101.3 70.4 101.7C68.6 102.7 67.6 105.2 68.8 107C69.2 107.6 69.6 108 70.2 108.3C70.6 108.8 71.2 109.1 71.8 109.3C72.7 109.5 73.5 109.3 74.4 108.9L74.5 108.8C75.1 108.3 75.2 108.2 74.7 108.6C75 108.4 75.3 108.2 75.5 108C76.4 107.2 76.9 106.3 77 105C77.1 103.7 76.1 102.2 74.9 101.6Z" fill="#F2B46D"/>
<path id="Vector_13" d="M94.8 101.3C93.5 100 91.7 99.4002 90 99.2002C87.8 99.0002 85.9 99.6001 84.6 101.5C84.4 101.7 84.3 102 84.2 102.2C83.2 101.8 82 101.7 81 101.9C80.8 101.9 80.5 102 80.3 102.1C78.8 102.6 77.8 104.2 78 105.8C78.2 107.5 79.2 108.9 81 109.3C82.5 109.6 83.9 109.2 85.1 108.3C85.9 109.1 86.9 109.8 88.1 110C88.4 110.1 88.7 110.1 89 110.1C89.7 110.2 90.3 110.2 91 110C91.1 110 91.2 110 91.3 110C95.4 110.1 97.6 104.3 94.8 101.3Z" fill="#F2B46D"/>
<path id="Vector_14" d="M110.9 98.4001C110.9 98.2001 110.9 98.1001 110.8 97.9001C110.5 97.1001 109.7 96.3001 108.8 96.4001C107.8 96.5001 106.9 96.9001 106.3 97.8001C106 98.3001 105.9 98.9001 106 99.4001C104.3 99.5001 102.9 100.8 102.9 102.5C102.9 102.6 102.8 102.8 102.8 102.9C102.6 104.2 103.1 105.7 104.6 106C105.5 106.2 106.3 106.3 107.2 106.1C108.9 105.8 109.9 104.2 110 102.6C110 102.2 109.9 101.7 109.7 101.4C110.5 100.9 111 100.1 110.9 99.2001C110.9 99.2001 110.9 99.2 110.9 99.1C111 98.8 110.9 98.2001 110.9 98.4001Z" fill="#F2B46D"/>
<path id="Vector_15" d="M142 93.9C141.3 93.9 140.7 94.0999 140.2 94.4999C140.2 94.3999 140.2 94.3999 140.1 94.2999C139.8 93.4999 140 94.0999 140.1 94.2999C140 93.8999 139.7 93.3999 139.5 92.9999C138.3 91.1999 136.4 90.4999 134.3 90.7999C135.5 90.5999 134.1 90.8 133.7 90.9C133.1 91.1 132.5 91.4 132 91.9C131.1 92.8 130.7 94.1999 131 95.4999C131 95.5999 131 95.6999 131 95.7999C130.5 95.7999 130 95.7999 129.6 95.9999C128.7 96.2999 128.2 96.8 127.6 97.4C127.3 97.3 127 97.1999 126.6 97.1999C125 97.1999 123.7 98.4 123.4 99.9C123.1 99.6 122.7 99.3999 122.4 99.1999C121.3 98.5999 120.2 98.4999 119 98.7999C117.7 99.0999 116.7 100.4 116.7 101.8C116.3 102.4 116.3 103.3 116.4 104C116.6 104.8 117.2 105.5 117.9 105.9C118.7 106.4 119.7 106.6 120.6 106.5C121.6 106.4 122.9 106.1 123.6 105.3C124 104.8 124.4 104.3 124.6 103.6C124.6 103.4 124.7 103.3 124.7 103.1C125.3 103.5 125.9 103.8 126.7 103.8C127.2 103.8 127.7 103.7 128.1 103.5C128.3 103.6 128.5 103.7 128.6 103.8C128.9 104.3 129.5 104.9 130.1 105C131 105.1 131.7 105.3 132.6 105.1C133.9 104.8 134.8 103.6 135.2 102.4C135.4 102 135.4 101.5 135.4 101.1C136 101.1 136.6 101 137.2 100.9C138.2 100.7 139.1 99.9999 139.7 99.1999C140.2 99.7999 141 100.2 141.9 100.2C143.5 100.2 144.9 98.7999 144.9 97.1999C145 95.1999 143.7 93.9 142 93.9Z" fill="#F2B46D"/>
<path id="Vector_16" d="M152.4 89C151.9 88 151 87.5 150 87.1C149.2 86.8 148 86.7 147.2 87C145.8 87.5 144.8 88.6 144.8 90.2C144.8 90.8 145 91.4 145.3 91.8C145.4 92.5 145.6 93 146.1 93.6C146.4 94 146.9 94.3 147.3 94.5C148.2 94.9 149.3 95.3 150.3 94.9C151.5 94.4 152.3 93.6 152.8 92.4C153 91.2 153 90 152.4 89Z" fill="#F2B46D"/>
</g>
</g>
</g>
<g id="Group_6">
<g id="Group_7">
<g id="Group_8">
<path id="Vector_17" d="M83.5 109.701C92.4 109.701 120.8 108.101 127.4 103.901C126.2 74.7006 123.5 43.7006 119.2 30.6006C113.4 13.0006 99.9 1.60059 83.4 1.60059C66.9 1.60059 53.4 13.0006 47.6 30.6006C43.3 43.7006 40.6 74.7006 39.4 103.901C46.1 108.201 74.5 109.701 83.5 109.701Z" fill="#CC6B33"/>
</g>
<path id="Vector_18" d="M83.5 91.5005C65.9 91.5005 50.5 82.1005 41.8 68.0005C40.8 79.3005 40 91.8005 39.6 103.901C46.2 108.201 74.6 109.701 83.5 109.701C92.4 109.701 120.8 108.101 127.4 103.901C126.9 91.8005 126.2 79.4005 125.2 68.0005C116.4 82.2005 101 91.5005 83.5 91.5005Z" fill="#BA582F"/>
<g id="Group_9">
<path id="Vector_19" d="M45 104.901C46.1 77.4006 48.6 48.1006 52.7 35.8006C58.2 19.2006 70.9 8.50061 86.4 8.50061C102 8.50061 114.7 19.3006 120.1 35.8006C120.8 38.1006 120.3 34.0006 119.1 30.6006C113.3 13.0006 99.8 1.60059 83.3 1.60059C66.8 1.60059 53.3 13.0006 47.5 30.6006C43.2 43.7006 40.5 74.7006 39.3 103.901C41.8 105.401 46.5 105.901 45 104.901Z" fill="#E6965C"/>
</g>
<g id="Group_10">
<path id="Vector_20" d="M83.5 111.201C78 111.201 46.4 110.101 38.7 105.101C38.3 104.801 38 104.301 38 103.801C38.7 87.1006 40.8 46.6006 46.2 30.1006C52.3 11.6006 66.6 0.100586 83.4 0.100586C100.2 0.100586 114.5 11.6006 120.6 30.1006C126 46.6006 128.2 87.1006 128.8 103.801C128.8 104.301 128.6 104.801 128.1 105.101C120.6 110.101 89 111.201 83.5 111.201ZM41 103.101C48.3 106.701 73.9 108.301 83.4 108.301C92.9 108.301 118.6 106.801 125.8 103.101C124.4 69.1006 121.4 42.2006 117.7 31.1006C112 13.9006 98.9 3.20062 83.3 3.20062C67.8 3.20062 54.6 13.9006 48.9 31.1006C45.4 42.2006 42.4 69.0006 41 103.101Z" fill="black"/>
</g>
</g>
<g id="Group_11">
<g id="XMLID_16_">
<g id="Group_12">
<path id="Vector_21" d="M89.8 64.3008C89.8 67.5008 87 72.9008 83.5 72.9008C80 72.9008 77.2 67.5008 77.2 64.3008C79.1 64.9008 81.3 65.3008 83.5 65.3008C85.7 65.2008 87.9 64.9008 89.8 64.3008Z" fill="#F5F5F5"/>
</g>
<g id="Group_13">
<path id="Vector_22" d="M83.5 45.9009C91.5 45.9009 98 50.2008 98 55.6008C98 59.4008 94.7 62.7008 89.8 64.3008C87.9 64.9008 85.8 65.3008 83.5 65.3008C81.2 65.3008 79.1 65.0008 77.2 64.3008C72.4 62.7008 69 59.4008 69 55.6008C69 50.2008 75.4 45.9009 83.5 45.9009Z" fill="#FFEABF"/>
</g>
</g>
<g id="Group_14">
<g id="Group_15">
<path id="Vector_23" d="M90 52.0009C90 54.3009 87.1 57.4009 83.4 57.4009C79.8 57.4009 76.8 54.4009 76.8 52.0009C76.8 49.7009 79.7 48.9009 83.4 48.9009C87.1 48.9009 90 49.7009 90 52.0009Z" fill="black"/>
</g>
<g id="Group_16">
<path id="Vector_24" d="M83.3 51.3007C83.4 51.9007 82.6 52.5008 81.4 52.7008C80.3 52.9008 79.3 52.5008 79.2 51.9008C79.1 51.3008 79.9 50.7008 81.1 50.5008C82.2 50.3008 83.2 50.7007 83.3 51.3007Z" fill="white"/>
</g>
</g>
<path id="Vector_25" d="M99 55.5008C99 49.6008 92 44.8008 83.5 44.8008C75 44.8008 68 49.6008 68 55.5008C68 59.6008 71.3 63.1008 76.2 64.9008C76.5 68.3008 79.5 73.8008 83.5 73.8008C87.5 73.8008 90.5 68.3008 90.8 64.9008C95.6 63.2008 99 59.6008 99 55.5008ZM78.3 65.6008C79.7 65.9008 81.2 66.1008 82.7 66.2008V71.7008C80.6 71.1008 78.8 68.1008 78.3 65.6008ZM84.2 71.7008V66.2008C85.7 66.1008 87.2 65.9008 88.6 65.6008C88.1 68.1008 86.3 71.1008 84.2 71.7008ZM83.5 64.2008C76.1 64.2008 70 60.3008 70 55.5008C70 50.7008 76.1 46.8008 83.5 46.8008C90.9 46.8008 97 50.7008 97 55.5008C97 60.3008 90.9 64.2008 83.5 64.2008Z" fill="black"/>
<g id="Group_17">
<g id="Group_18">
<g id="Group_19">
<path id="Vector_26" d="M73.8 56.501H65.9C65.6 56.501 65.4 56.301 65.4 56.001C65.4 55.701 65.6 55.501 65.9 55.501H73.8C74.1 55.501 74.3 55.701 74.3 56.001C74.3 56.301 74.1 56.501 73.8 56.501Z" fill="black"/>
</g>
<g id="Group_20">
<path id="Vector_27" d="M66.4 62.5008C66.2 62.5008 66 62.4008 66 62.2008C65.9 62.0008 66 61.7008 66.2 61.5008L73.6 57.6008C73.8 57.5008 74.1 57.6008 74.3 57.8008C74.4 58.0008 74.3 58.3008 74.1 58.5008L66.7 62.4008C66.5 62.5008 66.4 62.5008 66.4 62.5008Z" fill="black"/>
</g>
<g id="Group_21">
<path id="Vector_28" d="M73.8 54.6008C73.7 54.6008 73.6 54.6008 73.6 54.5008L66.2 50.6008C66 50.5008 65.9 50.2009 66 49.9009C66.1 49.7009 66.4 49.6008 66.7 49.7008L74.1 53.6008C74.3 53.7008 74.4 54.0008 74.3 54.3008C74.1 54.5008 74 54.6008 73.8 54.6008Z" fill="black"/>
</g>
</g>
<g id="Group_22">
<g id="Group_23">
<path id="Vector_29" d="M101 56.501H93.1C92.8 56.501 92.6 56.301 92.6 56.001C92.6 55.701 92.8 55.501 93.1 55.501H101C101.3 55.501 101.5 55.701 101.5 56.001C101.5 56.301 101.3 56.501 101 56.501Z" fill="black"/>
</g>
<g id="Group_24">
<path id="Vector_30" d="M100.5 62.5008C100.4 62.5008 100.3 62.5008 100.3 62.4008L92.9 58.5008C92.7 58.4008 92.6 58.1008 92.7 57.8008C92.8 57.6008 93.1 57.5008 93.4 57.6008L100.8 61.5008C101 61.6008 101.1 61.9008 101 62.2008C100.9 62.4008 100.7 62.5008 100.5 62.5008Z" fill="black"/>
</g>
<g id="Group_25">
<path id="Vector_31" d="M93.1 54.6008C92.9 54.6008 92.7 54.5008 92.7 54.3008C92.6 54.1008 92.7 53.8008 92.9 53.6008L100.3 49.7008C100.5 49.6008 100.8 49.7009 101 49.9009C101.1 50.1009 101 50.4008 100.8 50.6008L93.4 54.5008C93.3 54.6008 93.2 54.6008 93.1 54.6008Z" fill="black"/>
</g>
</g>
</g>
</g>
<g id="Group_26">
<g id="Group_27">
<g id="Group_28">
<g id="Group_29">
<path id="Vector_32" d="M65.6 45.0002C65.6 47.9002 63.2 50.3002 60.3 50.3002C57.4 50.3002 55 47.9002 55 45.0002C55 42.1002 57.4 39.7002 60.3 39.7002C63.3 39.7002 65.6 42.1002 65.6 45.0002Z" fill="black"/>
</g>
<g id="Group_30">
<path id="Vector_33" d="M58.7 45.2C59.5837 45.2 60.3 44.4836 60.3 43.6C60.3 42.7163 59.5837 42 58.7 42C57.8164 42 57.1 42.7163 57.1 43.6C57.1 44.4836 57.8164 45.2 58.7 45.2Z" fill="white"/>
</g>
</g>
<g id="Group_31">
<path id="Vector_34" d="M51.1 33.7002C56.8 34.5002 67.3 36.6002 74 39.3002C76.3 34.0002 76.8 27.9002 74.9 22.2002C75 25.4002 74.6 27.8002 73.9 29.7002C65.3 25.6002 57.2 23.4002 54.3 22.8002C53 25.1002 51.3 30.0002 51.1 33.7002Z" fill="black"/>
</g>
</g>
<g id="Group_32">
<g id="Group_33">
<g id="Group_34">
<path id="Vector_35" d="M111.9 45.0002C111.9 47.9002 109.5 50.3002 106.6 50.3002C103.7 50.3002 101.3 47.9002 101.3 45.0002C101.3 42.1002 103.7 39.7002 106.6 39.7002C109.5 39.7002 111.9 42.1002 111.9 45.0002Z" fill="black"/>
</g>
<g id="Group_35">
<path id="Vector_36" d="M105 45.2C105.884 45.2 106.6 44.4836 106.6 43.6C106.6 42.7163 105.884 42 105 42C104.116 42 103.4 42.7163 103.4 43.6C103.4 44.4836 104.116 45.2 105 45.2Z" fill="white"/>
</g>
</g>
<g id="Group_36">
<path id="Vector_37" d="M115.8 33.7002C110.1 34.5002 99.6 36.6002 92.9 39.3002C90.6 34.0002 90.1 27.9002 92 22.2002C91.9 25.4002 92.3 27.8002 93 29.7002C101.6 25.6002 109.7 23.4002 112.6 22.8002C114 25.1002 115.6 30.0002 115.8 33.7002Z" fill="black"/>
</g>
</g>
</g>
</g>
<g id="Group_37">
<path id="Vector_38" d="M162.2 89.0006C164.8 89.8006 166.8 92.4007 166.6 95.9007C166.2 101.601 162.5 103.301 158.7 102.701C158.7 103.701 158.5 104.801 158 105.901C156.2 109.701 150 111.201 144 108.601C142.5 116.601 132 117.001 127.9 114.401C125.8 119.101 119 120.401 115.4 117.401C113.8 122.001 105.4 123.001 102.5 118.301C99.8 122.301 95.1 124.301 87.5 123.501C83.3 123.101 80.7 121.701 79.2 120.001C72.7 126.201 61.7 122.201 60 116.801C58.3 119.201 54.3 120.701 49.4 119.801C46.7 119.301 43.9 117.501 42.7 114.801C38.7 119.601 29 117.101 28.3 111.301C23.6 113.001 15 112.501 12.3 108.401C11.3 107.001 10.8 105.601 10.6 104.201C4.60002 104.701 0.700011 102.001 0.500011 97.5006C0.300011 93.9006 3.2 90.8006 6.3 90.3006C7.6 90.1006 8.90002 90.2007 10.1 90.9007C10.3 88.6007 12.9 84.7007 17.9 84.7007C21.2 84.7007 24.9 86.5007 25.4 91.2007C29.7 83.5007 39 86.9006 40.3 91.6006C44.2 90.1006 49.9 92.6007 50.5 96.7007C52.7 94.1007 56.5 93.4006 59.3 93.6006C62.1 93.8006 64.7 95.2006 66.3 97.0006C69.5 92.9006 78 94.5007 78.5 98.9007C80.4 96.4007 83.4 94.7007 86.7 94.4007C91.1 94.0007 95.1 95.8007 97.6 98.2007C98.7 93.8007 102.6 92.1006 105.6 91.8006C109.1 91.4006 114.2 92.9006 115.7 98.1006C116.4 94.6006 122 92.9006 124 96.8006C124.6 92.8006 127.2 90.0006 131.8 89.0006C134.5 88.4006 136.9 88.6006 138.7 89.8006C139.7 87.2006 142.5 84.7006 145.8 84.5006C150 84.2006 154.8 85.6007 156 90.2007C157.9 88.7007 160.2 88.4006 162.2 89.0006Z" fill="#E8984D"/>
<path id="Vector_39" d="M162.7 89.2007C162.3 94.4007 158.8 96.0007 155.2 95.5007C155.2 96.5007 155 97.5007 154.5 98.5007C152.8 102.201 146.9 103.601 141.2 101.001C139.8 108.601 129.8 109.001 125.9 106.501C123.9 111.001 117.4 112.201 113.9 109.401C112.4 113.801 104.4 114.701 101.6 110.201C99 114.001 94.5 115.901 87.3 115.201C83.3 114.801 80.9 113.501 79.4 111.801C73.2 117.701 62.7 113.801 61.1 108.701C59.4 111.001 55.6 112.401 51 111.601C48.4 111.101 45.8 109.401 44.6 106.801C40.8 111.401 31.5 109.001 30.9 103.501C26.4 105.101 18.3 104.701 15.7 100.801C14.8 99.4007 14.3 98.1007 14 96.8007C8.40001 97.2007 4.8 94.8007 4.4 90.8007C2.1 92.0007 0.3 94.5007 0.4 97.4007C0.6 101.901 4.50001 104.601 10.5 104.101C10.7 105.401 11.3 106.801 12.2 108.301C14.9 112.401 23.5 112.901 28.2 111.201C28.9 117.001 38.6 119.401 42.6 114.701C43.8 117.401 46.6 119.201 49.3 119.701C54.2 120.601 58.2 119.101 59.9 116.701C61.6 122.101 72.6 126.101 79.1 119.901C80.6 121.601 83.2 123.001 87.4 123.401C95 124.201 99.7 122.201 102.4 118.201C105.4 122.901 113.7 122.001 115.3 117.301C119 120.301 125.8 118.901 127.8 114.301C131.9 116.901 142.4 116.401 143.9 108.501C149.9 111.201 156.1 109.701 157.9 105.801C158.4 104.701 158.6 103.601 158.6 102.601C162.4 103.201 166.1 101.501 166.5 95.8007C166.8 92.6007 165.1 90.2007 162.7 89.2007Z" fill="#D98448"/>
<g id="Group_38">
<path id="Vector_40" d="M23 92.7003C22.9 92.6003 22.7 92.5003 22.6 92.4003C22.2 92.0003 21.7 91.8003 21.2 91.7003C21.4 91.2003 21.5 90.7003 21.4 90.2003C21.2 88.9003 20.8 88.1003 19.8 87.3003C19 86.7003 17.9 86.8003 16.9 86.9003C16.1 87.0003 15.3 87.6003 14.7 88.2003C13.3 89.5003 12.5 91.7003 13.5 93.4003C14.3 94.8003 16.1 95.3003 17.6 95.0003C17.6 95.4003 17.6 95.9003 17.8 96.3003C18.1 96.9003 18.2 97.1003 18.6 97.6003C19 98.1003 19.8 98.3003 20.4 98.3003C20.6 98.3003 21.1 98.4003 20.5 98.3003C21.6 98.6003 22.8 98.1003 23.4 97.1003C23.8 96.4003 23.8 95.7003 23.8 94.9003C23.8 94.3003 23.7 93.7003 23.4 93.3003C23.4 93.1003 23.2 92.9003 23 92.7003Z" fill="#F2B46D"/>
<path id="Vector_41" d="M41.7 98.6007C41.6 98.5007 41.6 98.5008 41.5 98.5008C41.2 98.2008 40.9 97.9008 40.5 97.7008C40.2 96.7008 39.5 95.9007 38.6 95.3007C38 94.9007 37.2 94.7007 36.4 94.8007C36.4 94.6007 36.4 94.4008 36.4 94.2008C36.3 93.1008 35.9 92.3008 35.2 91.4008C34 90.1008 31.7 90.1008 30.5 91.4008C29.6 92.3008 29.5 93.5008 30 94.5008C29.8 95.4008 30.1 96.3008 30.7 97.0008C31.2 97.6008 32.2 97.8007 32.9 97.8007C32.5 98.7007 32.4 99.8008 32.7 100.701C33.2 102.501 34.9 103.201 36.5 103.101C37.1 103.201 37.7 103.201 38.4 103.201H38.5C39.5 103.601 40.7 103.501 41.6 102.601C42.7 101.601 42.9 99.6007 41.7 98.6007Z" fill="#F2B46D"/>
<path id="Vector_42" d="M56.3 97.5003C55.3 97.7003 54.3 98.2003 53.5 98.8003C53.3 98.6003 53 98.5004 52.7 98.4004C53.9 98.9004 53.2 98.6004 52.9 98.4004C52.2 98.0004 51.6 97.9003 50.8 97.8003C50.2 97.7003 49.4 98.0003 48.8 98.3003C48.2 98.7003 47.4 99.4004 47.3 100.2C47.2 101 47.2 101.2 47.3 102C47.4 103 48.5 103.8 49.4 104.1C49.7 104.2 50 104.2 50.3 104.2H50.4C51.1 104.4 51.6 104.3 52.2 104.1C52.4 104.5 52.7 104.9 53 105.2C53.4 106.1 54.1 106.9 55.2 107.2C57.2 107.9 59.7 107.5 61.3 106.3C63.8 104.4 64.7 101.2 62.5 98.8003C61.1 97.2003 58.3 97.1003 56.3 97.5003Z" fill="#F2B46D"/>
<path id="Vector_43" d="M44.3 94.2007C43.2 94.2007 42.2 95.2007 42.2 96.3007C42.2 97.5007 43.2 98.4007 44.3 98.4007C45.4 98.4007 46.4 97.4007 46.4 96.3007C46.4 95.1007 45.4 94.2007 44.3 94.2007Z" fill="#F2B46D"/>
<path id="Vector_44" d="M99 104.701C98 104.701 97.1 105.601 97.1 106.601C97.1 107.601 98 108.501 99 108.501C100 108.501 100.9 107.601 100.9 106.601C100.9 105.601 100 104.701 99 104.701Z" fill="#F2B46D"/>
<path id="Vector_45" d="M25.4 98.7003C24.5 99.0003 24 100 24.7 100.8C25.4 101.5 26.5 101 26.7 100.2C26.7 100.2 26.7 100.2 26.8 100.1C27.5 99.3002 26.2 98.1003 25.4 98.7003Z" fill="#F2B46D"/>
<path id="Vector_46" d="M74.9 101.6C74.1 101.3 73.5 101.1 72.7 101C71.9 101 71.1 101.301 70.4 101.701C68.6 102.701 67.6 105.2 68.8 107C69.2 107.6 69.6 108 70.2 108.3C70.6 108.8 71.2 109.1 71.8 109.3C72.7 109.5 73.5 109.301 74.4 108.901L74.5 108.8C75.1 108.3 75.2 108.2 74.7 108.6C75 108.4 75.3 108.2 75.5 108C76.4 107.2 76.9 106.3 77 105C77.1 103.7 76.1 102.2 74.9 101.6Z" fill="#F2B46D"/>
<path id="Vector_47" d="M94.8 101.301C93.5 100.001 91.7 99.4006 90 99.2006C87.8 99.0006 85.9 99.6006 84.6 101.501C84.4 101.701 84.3 102.001 84.2 102.201C83.2 101.801 82 101.701 81 101.901C80.8 101.901 80.5 102.001 80.3 102.101C78.8 102.601 77.8 104.201 78 105.801C78.2 107.501 79.2 108.901 81 109.301C82.5 109.601 83.9 109.201 85.1 108.301C85.9 109.101 86.9 109.801 88.1 110.001C88.4 110.101 88.7 110.101 89 110.101C89.7 110.201 90.3 110.201 91 110.001C91.1 110.001 91.2 110.001 91.3 110.001C95.4 110.101 97.6 104.301 94.8 101.301Z" fill="#F2B46D"/>
<path id="Vector_48" d="M110.9 98.4006C110.9 98.2006 110.9 98.1006 110.8 97.9006C110.5 97.1006 109.7 96.3006 108.8 96.4006C107.8 96.5006 106.9 96.9005 106.3 97.8005C106 98.3005 105.9 98.9006 106 99.4006C104.3 99.5006 102.9 100.801 102.9 102.501C102.9 102.601 102.8 102.801 102.8 102.901C102.6 104.201 103.1 105.701 104.6 106.001C105.5 106.201 106.3 106.301 107.2 106.101C108.9 105.801 109.9 104.201 110 102.601C110 102.201 109.9 101.701 109.7 101.401C110.5 100.901 111 100.101 110.9 99.2006C110.9 99.2006 110.9 99.2005 110.9 99.1005C111 98.8005 110.9 98.2006 110.9 98.4006Z" fill="#F2B46D"/>
<path id="Vector_49" d="M142 93.9004C141.3 93.9004 140.7 94.1004 140.2 94.5004C140.2 94.4004 140.2 94.4004 140.1 94.3004C139.8 93.5004 140 94.1004 140.1 94.3004C140 93.9004 139.7 93.4004 139.5 93.0004C138.3 91.2004 136.4 90.5004 134.3 90.8004C135.5 90.6004 134.1 90.8004 133.7 90.9004C133.1 91.1004 132.5 91.4004 132 91.9004C131.1 92.8004 130.7 94.2004 131 95.5004C131 95.6004 131 95.7004 131 95.8004C130.5 95.8004 130 95.8004 129.6 96.0004C128.7 96.3004 128.2 96.8004 127.6 97.4004C127.3 97.3004 127 97.2004 126.6 97.2004C125 97.2004 123.7 98.4004 123.4 99.9004C123.1 99.6004 122.7 99.4004 122.4 99.2004C121.3 98.6004 120.2 98.5004 119 98.8004C117.7 99.1004 116.7 100.4 116.7 101.8C116.3 102.4 116.3 103.3 116.4 104C116.6 104.8 117.2 105.5 117.9 105.9C118.7 106.4 119.7 106.6 120.6 106.5C121.6 106.4 122.9 106.1 123.6 105.3C124 104.8 124.4 104.3 124.6 103.6C124.6 103.4 124.7 103.3 124.7 103.1C125.3 103.5 125.9 103.8 126.7 103.8C127.2 103.8 127.7 103.7 128.1 103.5C128.3 103.6 128.5 103.7 128.6 103.8C128.9 104.3 129.5 104.9 130.1 105C131 105.1 131.7 105.3 132.6 105.1C133.9 104.8 134.8 103.6 135.2 102.4C135.4 102 135.4 101.5 135.4 101.1C136 101.1 136.6 101 137.2 100.9C138.2 100.7 139.1 100 139.7 99.2004C140.2 99.8004 141 100.2 141.9 100.2C143.5 100.2 144.9 98.8004 144.9 97.2004C145 95.2004 143.7 93.9004 142 93.9004Z" fill="#F2B46D"/>
<path id="Vector_50" d="M152.4 89.0005C151.9 88.0005 151 87.5005 150 87.1005C149.2 86.8005 148 86.7005 147.2 87.0005C145.8 87.5005 144.8 88.6005 144.8 90.2005C144.8 90.8005 145 91.4005 145.3 91.8005C145.4 92.5005 145.6 93.0005 146.1 93.6005C146.4 94.0005 146.9 94.3005 147.3 94.5005C148.2 94.9005 149.3 95.3005 150.3 94.9005C151.5 94.4005 152.3 93.6005 152.8 92.4005C153 91.2005 153 90.0005 152.4 89.0005Z" fill="#F2B46D"/>
</g>
</g>
<g id="XMLID_15_">
<g id="Group_39">
<path id="Vector_51" d="M41.2 103.6L41.3 103.7C36.9 105.5 32.6 106.6 28.9 106.9C30.9 101.1 36.3 94.7003 38.1 93.1003L38.9 92.8003C40.1 95.7003 40.9 99.3003 41.2 103.6Z" fill="#FFEABF"/>
<path id="Vector_52" d="M38.8 92.8007L38 93.1006C31.2 97.9006 26.2 99.5007 20.5 100.501C22.3 95.8007 26.2 89.6007 32 85.4007L32.5 84.7007C35 86.6007 37.2 89.3007 38.8 92.8007Z" fill="#FFEABF"/>
<path id="Vector_53" d="M23.3 81.2007C26.3 81.5007 29.6 82.6007 32.5 84.8007L32 85.5007C25 89.5007 19.3 91.4007 14.8 93.4007C16.2 88.7007 18.6 84.5007 23.3 81.2007Z" fill="#FFEABF"/>
<path id="Vector_54" d="M54.8 80.7004C58.3 85.1004 58.5 93.3004 49.3 99.5004C46.7 101.2 43.9 102.7 41.2 103.8L41.1 103.7C40.9 99.4004 40 95.9004 38.7 92.9004C37.1 89.3004 34.9 86.7004 32.4 84.9004C29.5 82.7004 26.2 81.6004 23.2 81.3004C25.5 79.6004 28.4 78.2004 32 77.0004C40.4 74.2004 50.8 75.7004 54.8 80.7004Z" fill="#CC6B33"/>
<path id="Vector_55" d="M40.8 74.0005C37.6 74.0005 34.5 74.5005 31.6 75.4005C21.6 78.7005 16 84.1005 13.4 92.9005C13.2 93.5005 13.4 94.1005 13.8 94.5005C14.2 94.9005 14.9 95.0005 15.4 94.7005C16.6 94.2005 17.9 93.6005 19.2 93.1005C20.7 92.5005 22.4 91.8005 24.1 91.0005C21.7 94.1005 20 97.3005 19 99.9005C18.8 100.401 18.9 101.001 19.2 101.401C19.5 101.801 20.1 102.001 20.6 101.901C24.2 101.301 27.6 100.4 31.3 98.6005C29.7 101 28.2 103.701 27.3 106.201C27.1 106.701 27.2 107.2 27.5 107.6C27.8 108 28.2 108.201 28.7 108.201H28.8C35.7 107.601 43.6 104.7 50 100.5C56 96.5005 57.8 92.0005 58.3 89.0005C58.8 85.6005 58 82.2005 55.9 79.6005C53.2 76.2005 47.5 74.0005 40.8 74.0005ZM18.1 90.4005C17.9 90.5005 17.6 90.6005 17.4 90.7005C18.6 87.9005 20.7 84.9005 24.3 82.4005C26.4 82.7005 28.5 83.5005 30.5 84.7005C25.8 87.2005 21.7 88.9005 18.1 90.4005ZM23 98.5005C25 94.6005 28.3 89.9005 32.8 86.7005C32.9 86.6005 32.9 86.6005 33 86.5005C34.6 87.9005 36 89.7005 37.2 91.9005H37.1C31.6 95.8005 27.4 97.5005 23 98.5005ZM38.5 94.8005C39.3 97.0005 39.9 99.6005 40.1 102.6C37.1 103.8 34.1 104.7 31.2 105.1C33.3 100.7 36.9 96.4005 38.5 94.8005ZM55.4 88.7005C55 91.2005 53.5 94.8005 48.4 98.2005C46.4 99.6005 44.2 100.8 41.9 101.8C40.7 89.2005 33.6 82.9005 26.6 80.9005C28.3 80.0005 30.2 79.1005 32.4 78.4005C34.9 77.6005 37.8 77.1005 40.6 77.1005C46.3 77.1005 51.2 78.8005 53.5 81.6005C55.2 83.5005 55.8 86.1005 55.4 88.7005Z" fill="black"/>
</g>
<g id="Group_40">
<path id="Vector_56" d="M134.8 76.9005C138.4 78.1005 141.3 79.5005 143.6 81.2005C140.6 81.5005 137.3 82.6004 134.4 84.8004C131.9 86.7004 129.7 89.3004 128.1 92.8004C126.8 95.7004 125.9 99.3004 125.7 103.5L125.6 103.7C122.8 102.6 120.1 101.1 117.5 99.4005C108.3 93.3005 108.5 85.1004 112 80.6004C116.1 75.7004 126.5 74.2005 134.8 76.9005Z" fill="#CC6B33"/>
<path id="Vector_57" d="M128.9 93.2004C130.7 94.7004 136.1 101.2 138.1 107C134.4 106.7 130.1 105.6 125.7 103.8L125.8 103.6C126 99.3003 126.9 95.8004 128.2 92.9004L128.9 93.2004Z" fill="#FFEABF"/>
<path id="Vector_58" d="M134.9 85.5004C140.7 89.7004 144.7 95.9003 146.4 100.6C140.6 99.6003 135.6 97.9004 128.9 93.2004L128.1 92.9004C129.7 89.3004 131.9 86.7004 134.4 84.9004L134.9 85.5004Z" fill="#FFEABF"/>
<path id="Vector_59" d="M143.6 81.2007C148.3 84.5007 150.7 88.7007 152.1 93.4007C147.6 91.4007 141.9 89.5007 134.9 85.5007L134.4 84.8007C137.3 82.6007 140.6 81.5007 143.6 81.2007Z" fill="#FFEABF"/>
<path id="Vector_60" d="M153.4 92.8006C150.7 84.1006 145.1 78.8006 135.3 75.5006C132.5 74.6006 129.3 74.1006 126.1 74.1006C119.4 74.1006 113.7 76.2006 110.9 79.8006C108.8 82.4006 108 85.8006 108.5 89.2006C109 92.3006 110.8 96.7006 116.8 100.701C123.2 105.001 131.1 107.901 138 108.401H138.1C138.9 108.401 139.6 107.701 139.6 106.901C139.6 106.601 139.5 106.401 139.4 106.201C138.5 103.701 137 101.101 135.4 98.8006C139.1 100.601 142.5 101.501 146.1 102.101C146.6 102.201 147.2 102.001 147.5 101.601C147.8 101.201 147.9 100.601 147.7 100.101C146.7 97.5006 145 94.3006 142.6 91.2006C144.3 92.0006 145.9 92.6006 147.5 93.3006C148.9 93.9006 150.1 94.4006 151.3 94.9006C151.5 95.0006 151.7 95.0006 151.9 95.0006C152.7 95.0006 153.4 94.3006 153.4 93.5006C153.6 93.2006 153.5 93.0006 153.4 92.8006ZM111.4 88.7006C111 86.1006 111.7 83.5006 113.2 81.6006C115.4 78.8006 120.4 77.1006 126.1 77.1006C128.9 77.1006 131.8 77.5006 134.3 78.4006C136.5 79.1006 138.5 80.0006 140.1 80.9006C133.1 82.9006 126 89.2006 124.8 101.801C122.5 100.801 120.4 99.6006 118.3 98.2006C113.3 94.8006 111.8 91.2006 111.4 88.7006ZM135.7 105.101C132.8 104.601 129.8 103.801 126.8 102.601C127 99.6006 127.6 97.0006 128.4 94.8006C130 96.4006 133.6 100.701 135.7 105.101ZM143.9 98.5006C139.5 97.5006 135.3 95.8006 129.8 91.9006H129.7C130.8 89.7006 132.3 87.9006 133.9 86.5006C134 86.6006 134 86.7006 134.1 86.7006C138.6 90.0006 141.9 94.6006 143.9 98.5006ZM148.8 90.4006C145.2 88.9006 141.2 87.2006 136.4 84.6006C138.4 83.4006 140.5 82.7006 142.6 82.3006C146.2 84.9006 148.2 87.8006 149.5 90.6006C149.2 90.6006 149 90.5006 148.8 90.4006Z" fill="black"/>
</g>
</g>
</g>
</svg>
