<svg width="339" height="111" viewBox="0 0 339 111" fill="none" xmlns="http://www.w3.org/2000/svg">
<path d="M95.888 83.6069C95.2371 83.6069 94.6947 83.1007 94.6585 82.4859L94.4416 80.2079C94.4054 79.774 94.3693 79.3039 94.3693 78.7615C94.3693 78.2553 94.3331 77.5321 94.3331 76.5558C94.3331 71.168 95.0925 66.2142 96.6112 61.8389C98.1299 57.4636 100.553 53.1968 103.843 49.1108C105.506 47.0859 108.508 44.1208 112.991 40.1433C113.317 39.854 113.642 39.5647 113.932 39.2754C112.087 39.1308 110.099 38.8777 107.929 38.4438C103.988 37.6844 103.192 37.6483 103.156 37.6483C101.854 37.6483 100.986 37.9014 100.625 38.4438C100.336 38.8415 99.6485 40.1433 99.6485 43.7954C99.6485 44.6632 99.6485 45.3141 99.6847 45.7841C99.6847 46.218 99.7209 46.6158 99.757 46.9412L99.974 49.6532C100.01 50.0148 99.9017 50.3402 99.6485 50.5933C99.3954 50.8465 99.07 50.9911 98.7446 50.9911H82.1835C81.4965 50.9911 80.918 50.4487 80.918 49.7255V16.495C80.918 15.808 81.4604 15.2294 82.1835 15.2294H98.6361C98.9615 15.2294 99.2869 15.3741 99.5401 15.591C99.6847 15.7357 99.7932 15.9165 99.8655 16.1334C102.469 14.7232 105.47 14 108.797 14C112.557 14 116.788 14.904 121.38 16.712C124.816 18.086 126.479 18.5922 127.238 18.8092V16.4588C127.238 15.7718 127.817 15.1933 128.504 15.1933H141.847C142.461 15.1933 143.004 15.6633 143.076 16.278L143.365 18.4115C143.401 18.7369 143.438 19.0623 143.474 19.4239C143.51 19.7493 143.51 20.2194 143.51 20.8341C143.51 25.6433 140.509 32.7306 134.289 42.5298C133.53 43.6869 132.988 44.627 132.626 45.2779C128.685 51.7866 126.009 57.3913 124.671 62.0559C123.333 66.6843 122.646 71.8912 122.646 77.4598V82.269C122.646 82.956 122.067 83.5346 121.38 83.5346H95.888V83.6069Z" fill="url(#paint0_linear_228_3455)"/>
<path d="M98.1664 79.8464C98.1303 79.4848 98.0941 79.0871 98.0941 78.617C98.0941 78.1469 98.0579 77.4599 98.0579 76.5559C98.0579 71.5659 98.745 67.046 100.119 63.0684C101.493 59.0909 103.699 55.2218 106.736 51.4974C108.255 49.6533 111.184 46.7967 115.451 42.9638C119.754 39.1309 122.972 35.985 125.105 33.5624C123.586 34.2494 122.068 34.7556 120.621 35.1172C119.175 35.4788 117.693 35.6596 116.246 35.6596C114.077 35.6596 111.545 35.3703 108.653 34.7918C105.76 34.2132 103.916 33.9239 103.156 33.9239C100.589 33.9239 98.745 34.6833 97.5879 36.2381C96.4669 37.793 95.8884 40.3242 95.8884 43.8316C95.8884 44.7356 95.8884 45.4588 95.9245 45.965C95.9245 46.4713 95.9607 46.9052 95.9969 47.3029H84.679V19.0624H96.1053L95.9969 25.2457C97.4071 22.7868 99.1427 20.9065 101.276 19.6771C103.41 18.4477 105.905 17.833 108.761 17.833C112.088 17.833 115.812 18.6647 119.971 20.2918C124.129 21.919 126.696 22.7507 127.636 22.7507C128.721 22.7507 129.517 22.4976 130.095 21.9552C130.674 21.4489 130.963 20.6896 130.963 19.7133V19.0263H139.641C139.677 19.2432 139.714 19.4963 139.714 19.7495C139.714 20.0026 139.75 20.4003 139.75 20.9066C139.75 24.9564 136.857 31.5013 131.108 40.6134C130.312 41.8429 129.734 42.8192 129.336 43.5062C125.25 50.2318 122.466 56.0897 121.019 61.1158C119.573 66.1058 118.85 71.602 118.85 77.5683V79.8464H98.1664Z" fill="url(#paint1_linear_228_3455)"/>
<path d="M108.761 17.7969C105.905 17.7969 103.41 18.4116 101.276 19.641C99.1427 20.8704 97.3709 22.7146 95.9969 25.2096L96.1053 19.0263H84.679V47.2668H95.9607C95.9245 46.869 95.8884 46.4351 95.8884 45.9289C95.8522 45.4227 95.8522 44.7356 95.8522 43.7955C95.8522 40.288 96.4308 37.7569 97.5517 36.202C98.6726 34.6472 100.553 33.8878 103.12 33.8878C103.916 33.8878 105.724 34.1771 108.616 34.7556C109.195 34.8641 109.701 34.9726 110.244 35.0449C114.836 30.308 119.537 25.752 124.057 21.8106C122.899 21.4128 121.525 20.9066 119.898 20.2557C115.812 18.6285 112.052 17.7969 108.761 17.7969Z" fill="url(#paint2_linear_228_3455)"/>
<path d="M108.29 79.8459H118.848V77.5679C118.848 74.5666 119.029 71.7101 119.39 68.9258C115.341 72.4694 111.435 76.4469 108.29 79.8459Z" fill="url(#paint3_linear_228_3455)"/>
<path d="M118.847 80.7144H98.1641C97.7302 80.7144 97.3325 80.3528 97.2963 79.9189C97.2601 79.5573 97.224 79.1234 97.224 78.6171C97.224 78.1471 97.1878 77.4239 97.1878 76.5199C97.1878 71.4576 97.911 66.793 99.3212 62.7431C100.731 58.6933 103.009 54.7158 106.083 50.8829C107.674 48.9664 110.531 46.146 114.906 42.2408C117.726 39.7096 120.077 37.5039 121.993 35.5874C121.632 35.6959 121.234 35.8044 120.872 35.8767C119.354 36.2383 117.799 36.4553 116.28 36.4553C114.038 36.4553 111.435 36.166 108.506 35.5874C104.998 34.9004 103.66 34.7558 103.154 34.7558C100.84 34.7558 99.2489 35.4066 98.3088 36.7084C97.2963 38.0824 96.7539 40.4689 96.7539 43.7595C96.7539 44.6634 96.7539 45.3505 96.7901 45.8567C96.7901 46.3629 96.8262 46.7607 96.8624 47.1584C96.8985 47.4116 96.7901 47.6285 96.6454 47.8093C96.4646 47.9901 96.2477 48.0986 95.9946 48.0986H84.6767C84.2066 48.0986 83.8088 47.7008 83.8088 47.2308V18.9902C83.8088 18.5202 84.2066 18.1224 84.6767 18.1224H96.103C96.32 18.1224 96.5731 18.2309 96.7178 18.3756C96.8985 18.5564 96.9709 18.7733 96.9709 18.9902L96.9347 22.2808C98.0918 20.8706 99.3935 19.7134 100.876 18.8818C105.685 16.0975 112.375 16.2783 120.33 19.4242C125.609 21.5214 127.2 21.8107 127.706 21.8107C128.538 21.8107 129.189 21.6299 129.587 21.2683C129.984 20.9067 130.165 20.4005 130.165 19.6773V18.9902C130.165 18.5202 130.563 18.1224 131.033 18.1224H139.711C140.145 18.1224 140.507 18.4479 140.579 18.8818C140.615 19.1349 140.651 19.388 140.651 19.6773C140.651 19.9666 140.688 20.3643 140.688 20.9067C140.688 25.1374 137.831 31.7545 131.937 41.0837C131.178 42.3131 130.599 43.2532 130.201 43.9402C126.152 50.5936 123.367 56.4514 121.957 61.3691C120.547 66.2868 119.824 71.7107 119.824 77.5685V79.8466C119.715 80.3528 119.317 80.7144 118.847 80.7144ZM98.9596 78.9787H117.943V77.5685C117.943 71.566 118.703 65.9613 120.149 60.899C121.595 55.8367 124.452 49.8342 128.574 43.0724C128.972 42.3854 129.551 41.4453 130.346 40.1797C135.987 31.2483 138.843 24.7758 138.843 20.9429C138.843 20.509 138.843 20.1474 138.843 19.8942H131.829C131.792 21.0152 131.395 21.9553 130.708 22.6062C129.984 23.2932 128.936 23.6187 127.67 23.6187C126.983 23.6187 125.392 23.3656 119.679 21.0875C112.266 18.1586 106.083 17.9055 101.744 20.4366C99.7551 21.5937 98.0918 23.3655 96.7901 25.6797C96.6093 26.0413 96.1754 26.186 95.8138 26.0775C95.416 25.969 95.1629 25.6074 95.1629 25.2097L95.2352 19.8942H85.5806V46.3991H95.0906C95.0906 46.2545 95.0906 46.1098 95.0906 45.9652C95.0906 45.459 95.0544 44.7358 95.0544 43.8318C95.0544 40.1074 95.6691 37.4316 96.9347 35.7321C98.2364 33.9603 100.334 33.0563 103.19 33.0563C104.022 33.0563 105.902 33.3456 108.867 33.9241C111.688 34.4665 114.183 34.7558 116.316 34.7558C117.69 34.7558 119.1 34.575 120.511 34.2495C121.921 33.9241 123.367 33.4179 124.85 32.7308C125.211 32.55 125.645 32.6947 125.898 33.0201C126.152 33.3456 126.115 33.8156 125.862 34.1049C123.693 36.5637 120.438 39.7458 116.135 43.5787C111.905 47.3754 108.976 50.1958 107.493 52.0038C104.564 55.6559 102.395 59.4527 101.021 63.3217C99.6828 67.1908 98.9958 71.6384 98.9958 76.5199C98.9958 77.4239 98.9958 78.1109 99.032 78.581C98.9596 78.7256 98.9596 78.8703 98.9596 78.9787Z" fill="#B0141B"/>
<path d="M150.391 83.6069C149.609 83.6069 148.958 82.9988 148.914 82.2605L148.654 79.5243C148.61 79.0031 148.567 78.4385 148.567 77.787C148.567 77.1789 148.523 76.3103 148.523 75.1376C148.523 68.6662 149.436 62.716 151.26 57.4607C153.084 52.2054 155.994 47.0805 159.946 42.1726C161.944 39.7404 165.549 36.179 170.934 31.4014C171.325 31.054 171.716 30.7065 172.064 30.3591C169.849 30.1854 167.46 29.8813 164.854 29.3601C160.12 28.4481 159.164 28.4046 159.121 28.4046C157.557 28.4046 156.515 28.7087 156.081 29.3601C155.733 29.8379 154.908 31.4015 154.908 35.7881C154.908 36.8305 154.908 37.6122 154.951 38.1769C154.951 38.6981 154.995 39.1758 155.038 39.5667L155.299 42.8241C155.342 43.2584 155.212 43.6493 154.908 43.9533C154.604 44.2574 154.213 44.4311 153.822 44.4311H133.93C133.105 44.4311 132.41 43.7796 132.41 42.911V2.99683C132.41 2.17162 133.062 1.4767 133.93 1.4767H153.692C154.083 1.4767 154.474 1.65043 154.778 1.91103C154.951 2.08475 155.082 2.30191 155.169 2.56251C158.296 0.868653 161.901 0 165.896 0C170.413 0 175.495 1.0858 181.011 3.25741C185.137 4.90783 187.135 5.51588 188.047 5.77647V2.95338C188.047 2.12817 188.742 1.43326 189.567 1.43326H205.593C206.332 1.43326 206.983 1.99787 207.07 2.73622L207.417 5.29873C207.461 5.68962 207.504 6.0805 207.548 6.51482C207.591 6.90571 207.591 7.47034 207.591 8.20869C207.591 13.9852 203.986 22.4979 196.516 34.268C195.604 35.6578 194.952 36.787 194.518 37.5688C189.784 45.3866 186.57 52.1186 184.963 57.7213C183.356 63.2806 182.531 69.5349 182.531 76.2234V81.9999C182.531 82.8251 181.836 83.52 181.011 83.52H150.391V83.6069Z" fill="url(#paint4_linear_228_3455)"/>
<path d="M153.127 79.0896C153.084 78.6553 153.04 78.1776 153.04 77.6129C153.04 77.0483 152.997 76.2231 152.997 75.1373C152.997 69.1437 153.822 63.7147 155.473 58.9371C157.123 54.1596 159.772 49.5123 163.421 45.0388C165.245 42.8238 168.763 39.3927 173.888 34.7889C179.056 30.185 182.922 26.4065 185.484 23.4965C183.66 24.3217 181.836 24.9298 180.099 25.3641C178.361 25.7984 176.581 26.0156 174.843 26.0156C172.237 26.0156 169.197 25.6681 165.723 24.9732C162.248 24.2783 160.033 23.9308 159.121 23.9308C156.037 23.9308 153.822 24.8429 152.432 26.7105C151.086 28.578 150.391 31.6183 150.391 35.8312C150.391 36.917 150.391 37.7857 150.434 38.3937C150.434 39.0018 150.478 39.523 150.521 40.0007H136.927V6.08019H150.652L150.521 13.5071C152.215 10.5537 154.3 8.29524 156.862 6.81854C159.425 5.34185 162.422 4.60352 165.853 4.60352C169.849 4.60352 174.322 5.60245 179.317 7.5569C184.311 9.51134 187.395 10.5103 188.524 10.5103C189.827 10.5103 190.783 10.2062 191.478 9.55476C192.173 8.94671 192.52 8.03463 192.52 6.86197V6.03677H202.944C202.987 6.29736 203.031 6.60139 203.031 6.90541C203.031 7.20944 203.074 7.6872 203.074 8.29525C203.074 13.1596 199.6 21.0209 192.694 31.9658C191.738 33.4425 191.043 34.6151 190.566 35.4403C185.658 43.5187 182.314 50.5547 180.576 56.5918C178.839 62.5854 177.97 69.1871 177.97 76.3534V79.0896H153.127Z" fill="url(#paint5_linear_228_3455)"/>
<path d="M165.853 4.56055C162.422 4.56055 159.425 5.29891 156.862 6.7756C154.3 8.2523 152.172 10.4673 150.521 13.4641L150.652 6.03725H136.927V39.9577H150.478C150.434 39.48 150.391 38.9588 150.391 38.3507C150.348 37.7427 150.348 36.9175 150.348 35.7883C150.348 31.5753 151.042 28.5351 152.389 26.6675C153.735 24.7999 155.994 23.8878 159.077 23.8878C160.033 23.8878 162.205 24.2353 165.679 24.9302C166.374 25.0605 166.982 25.1908 167.634 25.2777C173.149 19.5881 178.796 14.1156 184.225 9.38153C182.835 8.90378 181.184 8.29571 179.23 7.51393C174.322 5.55948 169.805 4.56055 165.853 4.56055Z" fill="url(#paint6_linear_228_3455)"/>
<path d="M165.288 79.0901H177.97V76.3539C177.97 72.749 178.187 69.3179 178.622 65.9736C173.757 70.23 169.066 75.0075 165.288 79.0901Z" fill="url(#paint7_linear_228_3455)"/>
<path d="M177.97 80.132H153.127C152.606 80.132 152.128 79.6977 152.085 79.1765C152.041 78.7422 151.998 78.221 151.998 77.613C151.998 77.0484 151.954 76.1797 151.954 75.0939C151.954 69.0134 152.823 63.4107 154.517 58.5463C156.211 53.6819 158.947 48.9043 162.639 44.3005C164.55 41.9986 167.981 38.6109 173.236 33.9203C176.624 30.88 179.447 28.2306 181.749 25.9287C181.315 26.059 180.837 26.1893 180.402 26.2762C178.578 26.7105 176.711 26.9711 174.887 26.9711C172.194 26.9711 169.067 26.6237 165.549 25.9287C161.336 25.1035 159.729 24.9298 159.121 24.9298C156.341 24.9298 154.43 25.7116 153.301 27.2751C152.085 28.9255 151.433 31.7921 151.433 35.7444C151.433 36.8302 151.433 37.6554 151.477 38.2635C151.477 38.8715 151.52 39.3493 151.564 39.827C151.607 40.1311 151.477 40.3916 151.303 40.6088C151.086 40.826 150.825 40.9562 150.521 40.9562H136.927C136.362 40.9562 135.885 40.4785 135.885 39.9139V5.99337C135.885 5.42875 136.362 4.95101 136.927 4.95101H150.651C150.912 4.95101 151.216 5.08132 151.39 5.25505C151.607 5.47221 151.694 5.73278 151.694 5.99337L151.65 9.94571C153.04 8.25186 154.604 6.86202 156.384 5.86308C162.161 2.5188 170.196 2.73597 179.751 6.51456C186.092 9.03363 188.003 9.3811 188.611 9.3811C189.61 9.3811 190.392 9.16394 190.87 8.72962C191.347 8.2953 191.565 7.68723 191.565 6.81859V5.99337C191.565 5.42875 192.042 4.95101 192.607 4.95101H203.031C203.552 4.95101 203.986 5.34189 204.073 5.86308C204.116 6.1671 204.16 6.47113 204.16 6.81859C204.16 7.16605 204.203 7.64381 204.203 8.2953C204.203 13.3769 200.772 21.3249 193.693 32.5304C192.781 34.0071 192.086 35.1363 191.608 35.9616C186.744 43.9531 183.399 50.9891 181.705 56.8959C180.012 62.8026 179.143 69.3174 179.143 76.3534V79.0897C179.013 79.6977 178.535 80.132 177.97 80.132ZM154.083 78.0473H176.884V76.3534C176.884 69.1437 177.797 62.4117 179.534 56.3312C181.271 50.2507 184.702 43.041 189.654 34.9192C190.131 34.094 190.826 32.9648 191.782 31.4446C198.557 20.7169 201.988 12.9425 201.988 8.33872C201.988 7.81753 201.988 7.3832 201.988 7.07917H193.562C193.519 8.42557 193.041 9.55481 192.216 10.3366C191.347 11.1618 190.088 11.5527 188.568 11.5527C187.743 11.5527 185.831 11.2487 178.969 8.51246C170.066 4.99445 162.639 4.69041 157.427 7.73066C155.038 9.12049 153.04 11.2487 151.477 14.0283C151.26 14.4626 150.738 14.6364 150.304 14.5061C149.826 14.3758 149.522 13.9415 149.522 13.4637L149.609 7.07917H138.013V38.915H149.435C149.435 38.7412 149.435 38.5675 149.435 38.3938C149.435 37.7857 149.392 36.9171 149.392 35.8313C149.392 31.3577 150.13 28.1438 151.65 26.1025C153.214 23.9743 155.733 22.8885 159.164 22.8885C160.163 22.8885 162.422 23.236 165.983 23.9309C169.371 24.5824 172.368 24.9298 174.93 24.9298C176.58 24.9298 178.274 24.7126 179.968 24.3217C181.662 23.9309 183.399 23.3228 185.18 22.4976C185.614 22.2804 186.136 22.4542 186.44 22.8451C186.744 23.236 186.7 23.8006 186.396 24.148C183.79 27.1014 179.881 30.9234 174.713 35.5272C169.631 40.0876 166.113 43.4753 164.333 45.6469C160.815 50.0336 158.209 54.594 156.558 59.2412C154.951 63.8884 154.126 69.2306 154.126 75.0939C154.126 76.1797 154.126 77.005 154.169 77.5696C154.083 77.7433 154.083 77.917 154.083 78.0473Z" fill="#B0141B"/>
<path d="M211.461 83.6069C210.81 83.6069 210.268 83.1007 210.232 82.4859L210.015 80.2079C209.979 79.774 209.943 79.3039 209.943 78.7615C209.943 78.2553 209.906 77.5321 209.906 76.5558C209.906 71.168 210.666 66.2142 212.184 61.8389C213.703 57.4636 216.126 53.1968 219.416 49.1108C221.08 47.0859 224.081 44.1208 228.565 40.1433C228.89 39.854 229.215 39.5647 229.505 39.2754C227.661 39.1308 225.672 38.8777 223.502 38.4438C219.561 37.6844 218.765 37.6483 218.729 37.6483C217.428 37.6483 216.56 37.9014 216.198 38.4438C215.909 38.8415 215.222 40.1433 215.222 43.7954C215.222 44.6632 215.222 45.3141 215.258 45.7841C215.258 46.218 215.294 46.6158 215.33 46.9412L215.547 49.6532C215.583 50.0148 215.475 50.3402 215.222 50.5933C214.969 50.8465 214.643 50.9911 214.318 50.9911H197.757C197.07 50.9911 196.491 50.4487 196.491 49.7255V16.495C196.491 15.808 197.034 15.2294 197.757 15.2294H214.209C214.535 15.2294 214.86 15.3741 215.113 15.591C215.258 15.7357 215.366 15.9165 215.439 16.1334C218.042 14.7232 221.043 14 224.37 14C228.131 14 232.361 14.904 236.954 16.712C240.389 18.086 242.052 18.5922 242.811 18.8092V16.4588C242.811 15.7718 243.39 15.1933 244.077 15.1933H257.42C258.035 15.1933 258.577 15.6633 258.649 16.278L258.939 18.4115C258.975 18.7369 259.011 19.0623 259.047 19.4239C259.083 19.7493 259.083 20.2194 259.083 20.8341C259.083 25.6433 256.082 32.7306 249.863 42.5298C249.103 43.6869 248.561 44.627 248.199 45.2779C244.258 51.7866 241.582 57.3913 240.244 62.0559C238.906 66.6843 238.219 71.8912 238.219 77.4598V82.269C238.219 82.956 237.641 83.5346 236.954 83.5346H211.461V83.6069Z" fill="url(#paint8_linear_228_3455)"/>
<path d="M213.739 79.8464C213.703 79.4848 213.667 79.0871 213.667 78.617C213.667 78.1469 213.63 77.4599 213.63 76.5559C213.63 71.5659 214.317 67.046 215.692 63.0684C217.066 59.0909 219.271 55.2218 222.309 51.4974C223.827 49.6533 226.756 46.7967 231.023 42.9638C235.326 39.1309 238.544 35.985 240.678 33.5624C239.159 34.2494 237.64 34.7556 236.194 35.1172C234.748 35.4788 233.265 35.6596 231.819 35.6596C229.649 35.6596 227.118 35.3703 224.225 34.7918C221.332 34.2132 219.488 33.9239 218.729 33.9239C216.162 33.9239 214.317 34.6833 213.16 36.2381C212.039 37.793 211.461 40.3242 211.461 43.8316C211.461 44.7356 211.461 45.4588 211.497 45.965C211.497 46.4713 211.533 46.9052 211.569 47.3029H200.251V19.0624H211.678L211.569 25.2457C212.98 22.7868 214.715 20.9065 216.849 19.6771C218.982 18.4477 221.477 17.833 224.334 17.833C227.66 17.833 231.385 18.6647 235.543 20.2918C239.701 21.919 242.269 22.7507 243.209 22.7507C244.294 22.7507 245.089 22.4976 245.668 21.9552C246.246 21.4489 246.536 20.6896 246.536 19.7133V19.0263H255.214C255.25 19.2432 255.286 19.4963 255.286 19.7495C255.286 20.0026 255.322 20.4003 255.322 20.9066C255.322 24.9564 252.43 31.5013 246.68 40.6134C245.885 41.8429 245.306 42.8192 244.908 43.5062C240.822 50.2318 238.038 56.0897 236.592 61.1158C235.145 66.1058 234.422 71.602 234.422 77.5683V79.8464H213.739Z" fill="url(#paint9_linear_228_3455)"/>
<path d="M224.334 17.7969C221.477 17.7969 218.982 18.4116 216.849 19.641C214.715 20.8704 212.943 22.7146 211.569 25.2096L211.678 19.0263H200.251V47.2668H211.533C211.497 46.869 211.461 46.4351 211.461 45.9289C211.425 45.4227 211.425 44.7356 211.425 43.7955C211.425 40.288 212.003 37.7569 213.124 36.202C214.245 34.6472 216.125 33.8878 218.693 33.8878C219.488 33.8878 221.296 34.1771 224.189 34.7556C224.768 34.8641 225.274 34.9726 225.816 35.0449C230.408 30.308 235.109 25.752 239.629 21.8106C238.472 21.4128 237.098 20.9066 235.471 20.2557C231.385 18.6285 227.624 17.7969 224.334 17.7969Z" fill="url(#paint10_linear_228_3455)"/>
<path d="M223.864 79.8459H234.422V77.5679C234.422 74.5666 234.603 71.7101 234.965 68.9258C230.915 72.4694 227.01 76.4469 223.864 79.8459Z" fill="url(#paint11_linear_228_3455)"/>
<path d="M234.423 80.7144H213.739C213.305 80.7144 212.908 80.3528 212.871 79.9189C212.835 79.5573 212.799 79.1234 212.799 78.6171C212.799 78.1471 212.763 77.4239 212.763 76.5199C212.763 71.4576 213.486 66.793 214.896 62.7431C216.307 58.6933 218.585 54.7158 221.658 50.8829C223.249 48.9664 226.106 46.146 230.481 42.2408C233.302 39.7096 235.652 37.5039 237.568 35.5874C237.207 35.6959 236.809 35.8044 236.447 35.8767C234.929 36.2383 233.374 36.4553 231.855 36.4553C229.613 36.4553 227.01 36.166 224.081 35.5874C220.573 34.9004 219.236 34.7558 218.729 34.7558C216.415 34.7558 214.824 35.4066 213.884 36.7084C212.871 38.0824 212.329 40.4689 212.329 43.7595C212.329 44.6634 212.329 45.3505 212.365 45.8567C212.365 46.3629 212.401 46.7607 212.438 47.1584C212.474 47.4116 212.365 47.6285 212.221 47.8093C212.04 47.9901 211.823 48.0986 211.57 48.0986H200.252C199.782 48.0986 199.384 47.7008 199.384 47.2308V18.9902C199.384 18.5202 199.782 18.1224 200.252 18.1224H211.678C211.895 18.1224 212.148 18.2309 212.293 18.3756C212.474 18.5564 212.546 18.7733 212.546 18.9902L212.51 22.2808C213.667 20.8706 214.969 19.7134 216.451 18.8818C221.26 16.0975 227.95 16.2783 235.905 19.4242C241.184 21.5214 242.775 21.8107 243.282 21.8107C244.113 21.8107 244.764 21.6299 245.162 21.2683C245.56 20.9067 245.74 20.4005 245.74 19.6773V18.9902C245.74 18.5202 246.138 18.1224 246.608 18.1224H255.286C255.72 18.1224 256.082 18.4479 256.154 18.8818C256.19 19.1349 256.227 19.388 256.227 19.6773C256.227 19.9666 256.263 20.3643 256.263 20.9067C256.263 25.1374 253.406 31.7545 247.512 41.0837C246.753 42.3131 246.174 43.2532 245.777 43.9402C241.727 50.5936 238.942 56.4514 237.532 61.3691C236.122 66.2868 235.399 71.7107 235.399 77.5685V79.8466C235.29 80.3528 234.893 80.7144 234.423 80.7144ZM214.535 78.9787H233.519V77.5685C233.519 71.566 234.278 65.9613 235.724 60.899C237.171 55.8367 240.027 49.8342 244.149 43.0724C244.547 42.3854 245.126 41.4453 245.921 40.1797C251.562 31.2483 254.419 24.7758 254.419 20.9429C254.419 20.509 254.419 20.1474 254.419 19.8942H247.404C247.368 21.0152 246.97 21.9553 246.283 22.6062C245.56 23.2932 244.511 23.6187 243.245 23.6187C242.558 23.6187 240.967 23.3656 235.254 21.0875C227.841 18.1586 221.658 17.9055 217.319 20.4366C215.33 21.5937 213.667 23.3655 212.365 25.6797C212.184 26.0413 211.751 26.186 211.389 26.0775C210.991 25.969 210.738 25.6074 210.738 25.2097L210.81 19.8942H201.156V46.3991H210.666C210.666 46.2545 210.666 46.1098 210.666 45.9652C210.666 45.459 210.63 44.7358 210.63 43.8318C210.63 40.1074 211.244 37.4316 212.51 35.7321C213.812 33.9603 215.909 33.0563 218.765 33.0563C219.597 33.0563 221.477 33.3456 224.443 33.9241C227.263 34.4665 229.758 34.7558 231.891 34.7558C233.265 34.7558 234.676 34.575 236.086 34.2495C237.496 33.9241 238.942 33.4179 240.425 32.7308C240.787 32.55 241.22 32.6947 241.474 33.0201C241.727 33.3456 241.691 33.8156 241.437 34.1049C239.268 36.5637 236.014 39.7458 231.711 43.5787C227.48 47.3754 224.551 50.1958 223.068 52.0038C220.14 55.6559 217.97 59.4527 216.596 63.3217C215.258 67.1908 214.571 71.6384 214.571 76.5199C214.571 77.4239 214.571 78.1109 214.607 78.581C214.535 78.7256 214.535 78.8703 214.535 78.9787Z" fill="#B0141B"/>
<mask id="path-16-outside-1_228_3455" maskUnits="userSpaceOnUse" x="-3" y="63" width="343" height="40" fill="black">
<rect fill="white" x="-3" y="63" width="343" height="40"/>
<path d="M28.1494 99H13.2714L0.801383 67.008H14.3894L21.6564 88.121L28.0634 67.008H41.8234L48.3164 87.777L55.3684 67.008H67.8814L55.4114 99H41.2644L34.5994 78.79L28.1494 99ZM81.5621 67.008V99H69.3931V67.008H81.5621ZM85.6861 67.008H99.3601L117.936 85.197V67.008H130.062V99H117.85L97.8121 79.607V99H85.6861V67.008ZM168.747 99.602H167.758C164.404 99.602 161.422 99.258 158.814 98.57C156.205 97.8533 154.127 96.9647 152.579 95.904C151.031 94.8147 149.755 93.539 148.752 92.077C147.748 90.5863 147.06 89.153 146.688 87.777C146.344 86.3723 146.172 84.939 146.172 83.477V82.273C146.172 80.7537 146.344 79.3203 146.688 77.973C147.032 76.597 147.705 75.1923 148.709 73.759C149.741 72.297 151.059 71.05 152.665 70.018C154.299 68.9573 156.492 68.0973 159.244 67.438C162.024 66.75 165.221 66.406 168.833 66.406H170.51C174.236 66.406 177.504 66.707 180.314 67.309C183.152 67.8823 185.33 68.599 186.85 69.459C188.398 70.2903 189.645 71.308 190.591 72.512C191.565 73.6873 192.196 74.7623 192.483 75.737C192.769 76.683 192.927 77.6863 192.956 78.747V78.79H180.228C180.17 78.532 180.07 78.2883 179.927 78.059C179.812 77.801 179.525 77.457 179.067 77.027C178.608 76.597 178.035 76.2387 177.347 75.952C176.687 75.6367 175.698 75.3643 174.38 75.135C173.061 74.877 171.556 74.748 169.865 74.748C162.497 74.748 158.814 77.3853 158.814 82.66V83.133C158.814 85.3977 159.717 87.3183 161.523 88.895C163.329 90.443 166.081 91.217 169.779 91.217C171.355 91.217 172.789 91.1167 174.079 90.916C175.369 90.6867 176.401 90.4143 177.175 90.099C177.977 89.7837 178.651 89.4397 179.196 89.067C179.769 88.6943 180.156 88.3503 180.357 88.035C180.586 87.7197 180.701 87.4473 180.701 87.218H169.478V80.983H193.171V99H185.474C185.13 97.3087 184.628 95.8323 183.969 94.571C180.93 97.925 175.856 99.602 168.747 99.602ZM223.536 85.842L218.161 74.834L212.915 85.842H223.536ZM229.943 99L227.449 93.84H209.174L206.723 99H194.339L210.163 67.008H226.589L243.316 99H229.943ZM244.71 99V67.008H261.48L271.284 84.982L281.26 67.008H297.342V99H285.259V79.048L274.036 99H267.801L256.621 79.048V99H244.71ZM301.484 67.008H336.873V74.834H313.524V78.833H336.4V86.616H313.524V91.002H337.217V99H301.484V67.008Z"/>
</mask>
<path d="M28.1494 99H13.2714L0.801383 67.008H14.3894L21.6564 88.121L28.0634 67.008H41.8234L48.3164 87.777L55.3684 67.008H67.8814L55.4114 99H41.2644L34.5994 78.79L28.1494 99ZM81.5621 67.008V99H69.3931V67.008H81.5621ZM85.6861 67.008H99.3601L117.936 85.197V67.008H130.062V99H117.85L97.8121 79.607V99H85.6861V67.008ZM168.747 99.602H167.758C164.404 99.602 161.422 99.258 158.814 98.57C156.205 97.8533 154.127 96.9647 152.579 95.904C151.031 94.8147 149.755 93.539 148.752 92.077C147.748 90.5863 147.06 89.153 146.688 87.777C146.344 86.3723 146.172 84.939 146.172 83.477V82.273C146.172 80.7537 146.344 79.3203 146.688 77.973C147.032 76.597 147.705 75.1923 148.709 73.759C149.741 72.297 151.059 71.05 152.665 70.018C154.299 68.9573 156.492 68.0973 159.244 67.438C162.024 66.75 165.221 66.406 168.833 66.406H170.51C174.236 66.406 177.504 66.707 180.314 67.309C183.152 67.8823 185.33 68.599 186.85 69.459C188.398 70.2903 189.645 71.308 190.591 72.512C191.565 73.6873 192.196 74.7623 192.483 75.737C192.769 76.683 192.927 77.6863 192.956 78.747V78.79H180.228C180.17 78.532 180.07 78.2883 179.927 78.059C179.812 77.801 179.525 77.457 179.067 77.027C178.608 76.597 178.035 76.2387 177.347 75.952C176.687 75.6367 175.698 75.3643 174.38 75.135C173.061 74.877 171.556 74.748 169.865 74.748C162.497 74.748 158.814 77.3853 158.814 82.66V83.133C158.814 85.3977 159.717 87.3183 161.523 88.895C163.329 90.443 166.081 91.217 169.779 91.217C171.355 91.217 172.789 91.1167 174.079 90.916C175.369 90.6867 176.401 90.4143 177.175 90.099C177.977 89.7837 178.651 89.4397 179.196 89.067C179.769 88.6943 180.156 88.3503 180.357 88.035C180.586 87.7197 180.701 87.4473 180.701 87.218H169.478V80.983H193.171V99H185.474C185.13 97.3087 184.628 95.8323 183.969 94.571C180.93 97.925 175.856 99.602 168.747 99.602ZM223.536 85.842L218.161 74.834L212.915 85.842H223.536ZM229.943 99L227.449 93.84H209.174L206.723 99H194.339L210.163 67.008H226.589L243.316 99H229.943ZM244.71 99V67.008H261.48L271.284 84.982L281.26 67.008H297.342V99H285.259V79.048L274.036 99H267.801L256.621 79.048V99H244.71ZM301.484 67.008H336.873V74.834H313.524V78.833H336.4V86.616H313.524V91.002H337.217V99H301.484V67.008Z" fill="url(#paint12_linear_228_3455)"/>
<path d="M28.1494 99V101.5H29.9757L30.531 99.7601L28.1494 99ZM13.2714 99L10.9421 99.9079L11.5626 101.5H13.2714V99ZM0.801383 67.008V64.508H-2.85628L-1.52792 67.9159L0.801383 67.008ZM14.3894 67.008L16.7533 66.1944L16.1728 64.508H14.3894V67.008ZM21.6564 88.121L19.2925 88.9346L21.806 96.2372L24.0487 88.847L21.6564 88.121ZM28.0634 67.008V64.508H26.2095L25.6711 66.282L28.0634 67.008ZM41.8234 67.008L44.2095 66.262L43.6611 64.508H41.8234V67.008ZM48.3164 87.777L45.9303 88.523L48.2183 95.8416L50.6836 88.5808L48.3164 87.777ZM55.3684 67.008V64.508H53.5771L53.0011 66.2042L55.3684 67.008ZM67.8814 67.008L70.2107 67.9159L71.5391 64.508H67.8814V67.008ZM55.4114 99V101.5H57.1201L57.7407 99.9079L55.4114 99ZM41.2644 99L38.8902 99.783L39.4564 101.5H41.2644V99ZM34.5994 78.79L36.9736 78.007L34.5604 70.6895L32.2177 78.0299L34.5994 78.79ZM28.1494 96.5H13.2714V101.5H28.1494V96.5ZM15.6007 98.0921L3.13069 66.1001L-1.52792 67.9159L10.9421 99.9079L15.6007 98.0921ZM0.801383 69.508H14.3894V64.508H0.801383V69.508ZM12.0255 67.8216L19.2925 88.9346L24.0203 87.3074L16.7533 66.1944L12.0255 67.8216ZM24.0487 88.847L30.4557 67.734L25.6711 66.282L19.2641 87.395L24.0487 88.847ZM28.0634 69.508H41.8234V64.508H28.0634V69.508ZM39.4373 67.754L45.9303 88.523L50.7025 87.031L44.2095 66.262L39.4373 67.754ZM50.6836 88.5808L57.7356 67.8118L53.0011 66.2042L45.9491 86.9732L50.6836 88.5808ZM55.3684 69.508H67.8814V64.508H55.3684V69.508ZM65.5521 66.1001L53.0821 98.0921L57.7407 99.9079L70.2107 67.9159L65.5521 66.1001ZM55.4114 96.5H41.2644V101.5H55.4114V96.5ZM43.6386 98.217L36.9736 78.007L32.2252 79.573L38.8902 99.783L43.6386 98.217ZM32.2177 78.0299L25.7677 98.2399L30.531 99.7601L36.981 79.5501L32.2177 78.0299ZM81.5621 67.008H84.0621V64.508H81.5621V67.008ZM81.5621 99V101.5H84.0621V99H81.5621ZM69.3931 99H66.8931V101.5H69.3931V99ZM69.3931 67.008V64.508H66.8931V67.008H69.3931ZM79.0621 67.008V99H84.0621V67.008H79.0621ZM81.5621 96.5H69.3931V101.5H81.5621V96.5ZM71.8931 99V67.008H66.8931V99H71.8931ZM69.3931 69.508H81.5621V64.508H69.3931V69.508ZM85.6861 67.008V64.508H83.1861V67.008H85.6861ZM99.3601 67.008L101.109 65.2217L100.38 64.508H99.3601V67.008ZM117.936 85.197L116.187 86.9833L120.436 91.1438V85.197H117.936ZM117.936 67.008V64.508H115.436V67.008H117.936ZM130.062 67.008H132.562V64.508H130.062V67.008ZM130.062 99V101.5H132.562V99H130.062ZM117.85 99L116.111 100.796L116.838 101.5H117.85V99ZM97.8121 79.607L99.5507 77.8106L95.3121 73.7084V79.607H97.8121ZM97.8121 99V101.5H100.312V99H97.8121ZM85.6861 99H83.1861V101.5H85.6861V99ZM85.6861 69.508H99.3601V64.508H85.6861V69.508ZM97.611 68.7943L116.187 86.9833L119.685 83.4107L101.109 65.2217L97.611 68.7943ZM120.436 85.197V67.008H115.436V85.197H120.436ZM117.936 69.508H130.062V64.508H117.936V69.508ZM127.562 67.008V99H132.562V67.008H127.562ZM130.062 96.5H117.85V101.5H130.062V96.5ZM119.589 97.2036L99.5507 77.8106L96.0735 81.4034L116.111 100.796L119.589 97.2036ZM95.3121 79.607V99H100.312V79.607H95.3121ZM97.8121 96.5H85.6861V101.5H97.8121V96.5ZM88.1861 99V67.008H83.1861V99H88.1861ZM158.814 98.57L158.151 100.981L158.164 100.984L158.176 100.987L158.814 98.57ZM152.579 95.904L151.14 97.9485L151.153 97.9575L151.166 97.9663L152.579 95.904ZM148.752 92.077L146.678 93.4729L146.684 93.4823L146.69 93.4916L148.752 92.077ZM146.688 87.777L144.259 88.3717L144.267 88.4012L144.275 88.4305L146.688 87.777ZM146.688 77.973L149.11 78.5915L149.113 78.5793L146.688 77.973ZM148.709 73.759L146.666 72.3173L146.661 72.3253L148.709 73.759ZM152.665 70.018L154.017 72.121L154.026 72.1149L152.665 70.018ZM159.244 67.438L159.826 69.8692L159.835 69.867L159.844 69.8648L159.244 67.438ZM180.314 67.309L179.79 69.7535L179.804 69.7566L179.819 69.7595L180.314 67.309ZM186.85 69.459L185.618 71.6346L185.642 71.6483L185.667 71.6615L186.85 69.459ZM190.591 72.512L188.625 74.0566L188.645 74.0825L188.666 74.1078L190.591 72.512ZM192.483 75.737L190.084 76.4424L190.087 76.4522L190.09 76.462L192.483 75.737ZM192.956 78.747H195.456V78.7132L195.455 78.6795L192.956 78.747ZM192.956 78.79V81.29H195.456V78.79H192.956ZM180.228 78.79L177.787 79.3323L178.222 81.29H180.228V78.79ZM179.927 78.059L177.642 79.0743L177.713 79.235L177.807 79.384L179.927 78.059ZM179.067 77.027L180.776 75.2032V75.2032L179.067 77.027ZM177.347 75.952L176.268 78.2073L176.326 78.235L176.385 78.2597L177.347 75.952ZM174.38 75.135L173.9 77.5885L173.925 77.5935L173.951 77.598L174.38 75.135ZM161.523 88.895L159.878 90.7783L159.887 90.7858L159.896 90.7931L161.523 88.895ZM174.079 90.916L174.463 93.3863L174.49 93.3821L174.516 93.3774L174.079 90.916ZM177.175 90.099L176.26 87.7721L176.246 87.7779L176.231 87.7838L177.175 90.099ZM179.196 89.067L177.833 86.9709L177.808 86.987L177.784 87.0037L179.196 89.067ZM180.357 88.035L178.335 86.5646L178.289 86.6273L178.247 86.6928L180.357 88.035ZM180.701 87.218H183.201V84.718H180.701V87.218ZM169.478 87.218H166.978V89.718H169.478V87.218ZM169.478 80.983V78.483H166.978V80.983H169.478ZM193.171 80.983H195.671V78.483H193.171V80.983ZM193.171 99V101.5H195.671V99H193.171ZM185.474 99L183.024 99.4983L183.431 101.5H185.474V99ZM183.969 94.571L186.184 93.4129L184.523 90.2354L182.116 92.8925L183.969 94.571ZM168.747 97.102H167.758V102.102H168.747V97.102ZM167.758 97.102C164.569 97.102 161.809 96.7744 159.451 96.1527L158.176 100.987C161.036 101.742 164.238 102.102 167.758 102.102V97.102ZM159.476 96.1593C157.027 95.4866 155.234 94.6926 153.992 93.8417L151.166 97.9663C153.02 99.2368 155.383 100.22 158.151 100.981L159.476 96.1593ZM154.017 93.8595C152.696 92.9298 151.637 91.8629 150.813 90.6624L146.69 93.4916C147.873 95.2151 149.365 96.6996 151.14 97.9485L154.017 93.8595ZM150.826 90.6811C149.937 89.3611 149.386 88.1765 149.101 87.1235L144.275 88.4305C144.735 90.1295 145.559 91.8116 146.678 93.4729L150.826 90.6811ZM149.116 87.1823C148.82 85.9744 148.672 84.7408 148.672 83.477H143.672C143.672 85.1372 143.867 86.7702 144.259 88.3717L149.116 87.1823ZM148.672 83.477V82.273H143.672V83.477H148.672ZM148.672 82.273C148.672 80.9432 148.822 79.719 149.11 78.5915L144.265 77.3545C143.865 78.9217 143.672 80.5642 143.672 82.273H148.672ZM149.113 78.5793C149.368 77.5601 149.889 76.4321 150.757 75.1927L146.661 72.3253C145.521 73.9526 144.695 75.6339 144.262 77.3667L149.113 78.5793ZM150.751 75.2007C151.585 74.0186 152.664 72.9907 154.017 72.1209L151.313 67.9151C149.455 69.1093 147.896 70.5754 146.666 72.3173L150.751 75.2007ZM154.026 72.1149C155.339 71.2622 157.237 70.4895 159.826 69.8692L158.661 65.0068C155.746 65.7051 153.258 66.6524 151.303 67.9211L154.026 72.1149ZM159.844 69.8648C162.385 69.2361 165.373 68.906 168.833 68.906V63.906C165.068 63.906 161.663 64.2639 158.643 65.0112L159.844 69.8648ZM168.833 68.906H170.51V63.906H168.833V68.906ZM170.51 68.906C174.109 68.906 177.195 69.1974 179.79 69.7535L180.837 64.8645C177.814 64.2166 174.363 63.906 170.51 63.906V68.906ZM179.819 69.7595C182.545 70.3102 184.43 70.9619 185.618 71.6346L188.081 67.2834C186.231 66.2361 183.759 65.4545 180.809 64.8585L179.819 69.7595ZM185.667 71.6615C186.956 72.3537 187.921 73.1606 188.625 74.0566L192.556 70.9674C191.368 69.4554 189.839 68.2269 188.032 67.2565L185.667 71.6615ZM188.666 74.1078C189.523 75.1409 189.929 75.9151 190.084 76.4424L194.881 75.0316C194.463 73.6095 193.608 72.2338 192.515 70.9162L188.666 74.1078ZM190.09 76.462C190.307 77.1795 190.433 77.9605 190.457 78.8145L195.455 78.6795C195.42 77.4121 195.231 76.1865 194.875 75.012L190.09 76.462ZM190.456 78.747V78.79H195.456V78.747H190.456ZM192.956 76.29H180.228V81.29H192.956V76.29ZM182.668 78.2477C182.548 77.706 182.337 77.1984 182.047 76.734L177.807 79.384C177.806 79.383 177.802 79.3767 177.798 79.3656C177.793 79.3545 177.789 79.3429 177.787 79.3323L182.668 78.2477ZM182.211 77.0437C181.875 76.2873 181.252 75.6492 180.776 75.2032L177.357 78.8508C177.539 79.0214 177.648 79.139 177.705 79.208C177.733 79.2409 177.737 79.2498 177.728 79.2361C177.721 79.2246 177.684 79.1693 177.642 79.0743L182.211 77.0437ZM180.776 75.2032C180.063 74.5343 179.222 74.0253 178.308 73.6443L176.385 78.2597C176.847 78.4521 177.153 78.6597 177.357 78.8508L180.776 75.2032ZM178.425 73.6967C177.455 73.2326 176.198 72.9137 174.808 72.672L173.951 77.598C175.198 77.8149 175.92 78.0407 176.268 78.2073L178.425 73.6967ZM174.86 72.6815C173.348 72.3858 171.678 72.248 169.865 72.248V77.248C171.434 77.248 172.773 77.3682 173.9 77.5885L174.86 72.6815ZM169.865 72.248C165.958 72.248 162.579 72.9337 160.121 74.6933C157.509 76.5632 156.314 79.3679 156.314 82.66H161.314C161.314 80.6775 161.96 79.5261 163.032 78.7587C164.258 77.881 166.404 77.248 169.865 77.248V72.248ZM156.314 82.66V83.133H161.314V82.66H156.314ZM156.314 83.133C156.314 86.1662 157.565 88.7585 159.878 90.7783L163.167 87.0117C161.868 85.8782 161.314 84.6291 161.314 83.133H156.314ZM159.896 90.7931C162.347 92.8946 165.799 93.717 169.779 93.717V88.717C166.362 88.717 164.31 87.9914 163.15 86.9969L159.896 90.7931ZM169.779 93.717C171.458 93.717 173.023 93.6103 174.463 93.3863L173.694 88.4457C172.554 88.623 171.252 88.717 169.779 88.717V93.717ZM174.516 93.3774C175.894 93.1325 177.116 92.8223 178.118 92.4142L176.231 87.7838C175.685 88.0064 174.844 88.2408 173.641 88.4546L174.516 93.3774ZM178.089 92.4259C179.016 92.0614 179.868 91.6359 180.607 91.1303L177.784 87.0037C177.434 87.2434 176.938 87.5059 176.26 87.7721L178.089 92.4259ZM180.558 91.1631C181.223 90.7309 181.974 90.1504 182.466 89.3772L178.247 86.6928C178.309 86.5963 178.337 86.5883 178.255 86.661C178.179 86.7282 178.046 86.8326 177.833 86.9709L180.558 91.1631ZM182.378 89.5054C182.723 89.0318 183.201 88.2321 183.201 87.218H178.201C178.201 86.9184 178.274 86.7103 178.311 86.6241C178.347 86.5373 178.37 86.5161 178.335 86.5646L182.378 89.5054ZM180.701 84.718H169.478V89.718H180.701V84.718ZM171.978 87.218V80.983H166.978V87.218H171.978ZM169.478 83.483H193.171V78.483H169.478V83.483ZM190.671 80.983V99H195.671V80.983H190.671ZM193.171 96.5H185.474V101.5H193.171V96.5ZM187.923 98.5017C187.542 96.6275 186.972 94.9207 186.184 93.4129L181.753 95.7291C182.284 96.744 182.717 97.9898 183.024 99.4983L187.923 98.5017ZM182.116 92.8925C179.764 95.4879 175.547 97.102 168.747 97.102V102.102C176.165 102.102 182.095 100.362 185.821 96.2495L182.116 92.8925ZM223.536 85.842V88.342H227.539L225.783 84.7451L223.536 85.842ZM218.161 74.834L220.408 73.7371L218.134 69.0802L215.905 73.7585L218.161 74.834ZM212.915 85.842L210.659 84.7665L208.955 88.342H212.915V85.842ZM229.943 99L227.692 100.088L228.375 101.5H229.943V99ZM227.449 93.84L229.7 92.7521L229.018 91.34H227.449V93.84ZM209.174 93.84V91.34H207.594L206.916 92.7674L209.174 93.84ZM206.723 99V101.5H208.304L208.982 100.073L206.723 99ZM194.339 99L192.098 97.8916L190.314 101.5H194.339V99ZM210.163 67.008V64.508H208.611L207.922 65.8996L210.163 67.008ZM226.589 67.008L228.805 65.8497L228.103 64.508H226.589V67.008ZM243.316 99V101.5H247.445L245.532 97.8417L243.316 99ZM225.783 84.7451L220.408 73.7371L215.915 75.9309L221.29 86.9389L225.783 84.7451ZM215.905 73.7585L210.659 84.7665L215.172 86.9175L220.418 75.9095L215.905 73.7585ZM212.915 88.342H223.536V83.342H212.915V88.342ZM232.194 97.9121L229.7 92.7521L225.198 94.9279L227.692 100.088L232.194 97.9121ZM227.449 91.34H209.174V96.34H227.449V91.34ZM206.916 92.7674L204.465 97.9274L208.982 100.073L211.433 94.9126L206.916 92.7674ZM206.723 96.5H194.339V101.5H206.723V96.5ZM196.58 100.108L212.404 68.1164L207.922 65.8996L192.098 97.8916L196.58 100.108ZM210.163 69.508H226.589V64.508H210.163V69.508ZM224.374 68.1663L241.101 100.158L245.532 97.8417L228.805 65.8497L224.374 68.1663ZM243.316 96.5H229.943V101.5H243.316V96.5ZM244.71 99H242.21V101.5H244.71V99ZM244.71 67.008V64.508H242.21V67.008H244.71ZM261.48 67.008L263.675 65.8109L262.965 64.508H261.48V67.008ZM271.284 84.982L269.09 86.1791L271.265 90.1679L273.47 86.1952L271.284 84.982ZM281.26 67.008V64.508H279.789L279.075 65.7948L281.26 67.008ZM297.342 67.008H299.842V64.508H297.342V67.008ZM297.342 99V101.5H299.842V99H297.342ZM285.259 99H282.759V101.5H285.259V99ZM285.259 79.048H287.759V69.5042L283.081 77.8223L285.259 79.048ZM274.036 99V101.5H275.499L276.215 100.226L274.036 99ZM267.801 99L265.621 100.222L266.337 101.5H267.801V99ZM256.621 79.048L258.802 77.8259L254.121 69.4722V79.048H256.621ZM256.621 99V101.5H259.121V99H256.621ZM247.21 99V67.008H242.21V99H247.21ZM244.71 69.508H261.48V64.508H244.71V69.508ZM259.286 68.2051L269.09 86.1791L273.479 83.7849L263.675 65.8109L259.286 68.2051ZM273.47 86.1952L283.446 68.2212L279.075 65.7948L269.099 83.7688L273.47 86.1952ZM281.26 69.508H297.342V64.508H281.26V69.508ZM294.842 67.008V99H299.842V67.008H294.842ZM297.342 96.5H285.259V101.5H297.342V96.5ZM287.759 99V79.048H282.759V99H287.759ZM283.081 77.8223L271.858 97.7743L276.215 100.226L287.438 80.2737L283.081 77.8223ZM274.036 96.5H267.801V101.5H274.036V96.5ZM269.982 97.7779L258.802 77.8259L254.441 80.2701L265.621 100.222L269.982 97.7779ZM254.121 79.048V99H259.121V79.048H254.121ZM256.621 96.5H244.71V101.5H256.621V96.5ZM301.484 67.008V64.508H298.984V67.008H301.484ZM336.873 67.008H339.373V64.508H336.873V67.008ZM336.873 74.834V77.334H339.373V74.834H336.873ZM313.524 74.834V72.334H311.024V74.834H313.524ZM313.524 78.833H311.024V81.333H313.524V78.833ZM336.4 78.833H338.9V76.333H336.4V78.833ZM336.4 86.616V89.116H338.9V86.616H336.4ZM313.524 86.616V84.116H311.024V86.616H313.524ZM313.524 91.002H311.024V93.502H313.524V91.002ZM337.217 91.002H339.717V88.502H337.217V91.002ZM337.217 99V101.5H339.717V99H337.217ZM301.484 99H298.984V101.5H301.484V99ZM301.484 69.508H336.873V64.508H301.484V69.508ZM334.373 67.008V74.834H339.373V67.008H334.373ZM336.873 72.334H313.524V77.334H336.873V72.334ZM311.024 74.834V78.833H316.024V74.834H311.024ZM313.524 81.333H336.4V76.333H313.524V81.333ZM333.9 78.833V86.616H338.9V78.833H333.9ZM336.4 84.116H313.524V89.116H336.4V84.116ZM311.024 86.616V91.002H316.024V86.616H311.024ZM313.524 93.502H337.217V88.502H313.524V93.502ZM334.717 91.002V99H339.717V91.002H334.717ZM337.217 96.5H301.484V101.5H337.217V96.5ZM303.984 99V67.008H298.984V99H303.984Z" fill="url(#paint13_linear_228_3455)" mask="url(#path-16-outside-1_228_3455)"/>
<defs>
<linearGradient id="paint0_linear_228_3455" x1="80.898" y1="48.835" x2="143.473" y2="48.835" gradientUnits="userSpaceOnUse">
<stop stop-color="#E3B323"/>
<stop offset="0.0787879" stop-color="#F6E953"/>
<stop offset="0.0881857" stop-color="#F7EC6A"/>
<stop offset="0.1033" stop-color="#F7EF89"/>
<stop offset="0.1191" stop-color="#F8F2A1"/>
<stop offset="0.1358" stop-color="#F9F4B3"/>
<stop offset="0.1538" stop-color="#F9F6BD"/>
<stop offset="0.1758" stop-color="#F9F6C0"/>
<stop offset="0.2198" stop-color="#F5EC97"/>
<stop offset="0.2695" stop-color="#F1E270"/>
<stop offset="0.3091" stop-color="#EFDB57"/>
<stop offset="0.3333" stop-color="#EED94E"/>
<stop offset="0.5939" stop-color="#A17834"/>
<stop offset="0.8485" stop-color="#F6C822"/>
<stop offset="1" stop-color="#A17834"/>
</linearGradient>
<linearGradient id="paint1_linear_228_3455" x1="112.186" y1="-1.49684" x2="112.186" y2="82.9695" gradientUnits="userSpaceOnUse">
<stop offset="0.00606061" stop-color="#660002"/>
<stop offset="0.503" stop-color="#EC1C24"/>
<stop offset="0.5758" stop-color="#E01921"/>
<stop offset="0.7076" stop-color="#C01319"/>
<stop offset="0.8819" stop-color="#8D080C"/>
<stop offset="1" stop-color="#660002"/>
</linearGradient>
<linearGradient id="paint2_linear_228_3455" x1="111.69" y1="34.5026" x2="121.995" y2="22.2084" gradientUnits="userSpaceOnUse">
<stop stop-color="#D5181E"/>
<stop offset="1" stop-color="#B51116"/>
</linearGradient>
<linearGradient id="paint3_linear_228_3455" x1="110.242" y1="78.9782" x2="118.197" y2="69.9383" gradientUnits="userSpaceOnUse">
<stop stop-color="#7B0507"/>
<stop offset="1" stop-color="#990A0F"/>
</linearGradient>
<linearGradient id="paint4_linear_228_3455" x1="132.386" y1="41.8414" x2="207.547" y2="41.8414" gradientUnits="userSpaceOnUse">
<stop stop-color="#E3B323"/>
<stop offset="0.0787879" stop-color="#F6E953"/>
<stop offset="0.0881857" stop-color="#F7EC6A"/>
<stop offset="0.1033" stop-color="#F7EF89"/>
<stop offset="0.1191" stop-color="#F8F2A1"/>
<stop offset="0.1358" stop-color="#F9F4B3"/>
<stop offset="0.1538" stop-color="#F9F6BD"/>
<stop offset="0.1758" stop-color="#F9F6C0"/>
<stop offset="0.2198" stop-color="#F5EC97"/>
<stop offset="0.2695" stop-color="#F1E270"/>
<stop offset="0.3091" stop-color="#EFDB57"/>
<stop offset="0.3333" stop-color="#EED94E"/>
<stop offset="0.5939" stop-color="#A17834"/>
<stop offset="0.8485" stop-color="#F6C822"/>
<stop offset="1" stop-color="#A17834"/>
</linearGradient>
<linearGradient id="paint5_linear_228_3455" x1="169.966" y1="-18.6141" x2="169.966" y2="82.8409" gradientUnits="userSpaceOnUse">
<stop offset="0.00606061" stop-color="#660002"/>
<stop offset="0.503" stop-color="#EC1C24"/>
<stop offset="0.5758" stop-color="#E01921"/>
<stop offset="0.7076" stop-color="#C01319"/>
<stop offset="0.8819" stop-color="#8D080C"/>
<stop offset="1" stop-color="#660002"/>
</linearGradient>
<linearGradient id="paint6_linear_228_3455" x1="169.37" y1="24.6263" x2="181.749" y2="9.85935" gradientUnits="userSpaceOnUse">
<stop stop-color="#D5181E"/>
<stop offset="1" stop-color="#B51116"/>
</linearGradient>
<linearGradient id="paint7_linear_228_3455" x1="167.633" y1="78.0479" x2="177.188" y2="67.1899" gradientUnits="userSpaceOnUse">
<stop stop-color="#7B0507"/>
<stop offset="1" stop-color="#990A0F"/>
</linearGradient>
<linearGradient id="paint8_linear_228_3455" x1="196.471" y1="48.835" x2="259.046" y2="48.835" gradientUnits="userSpaceOnUse">
<stop stop-color="#E3B323"/>
<stop offset="0.0787879" stop-color="#F6E953"/>
<stop offset="0.0881857" stop-color="#F7EC6A"/>
<stop offset="0.1033" stop-color="#F7EF89"/>
<stop offset="0.1191" stop-color="#F8F2A1"/>
<stop offset="0.1358" stop-color="#F9F4B3"/>
<stop offset="0.1538" stop-color="#F9F6BD"/>
<stop offset="0.1758" stop-color="#F9F6C0"/>
<stop offset="0.2198" stop-color="#F5EC97"/>
<stop offset="0.2695" stop-color="#F1E270"/>
<stop offset="0.3091" stop-color="#EFDB57"/>
<stop offset="0.3333" stop-color="#EED94E"/>
<stop offset="0.5939" stop-color="#A17834"/>
<stop offset="0.8485" stop-color="#F6C822"/>
<stop offset="1" stop-color="#A17834"/>
</linearGradient>
<linearGradient id="paint9_linear_228_3455" x1="227.758" y1="-1.49684" x2="227.758" y2="82.9695" gradientUnits="userSpaceOnUse">
<stop offset="0.00606061" stop-color="#660002"/>
<stop offset="0.503" stop-color="#EC1C24"/>
<stop offset="0.5758" stop-color="#E01921"/>
<stop offset="0.7076" stop-color="#C01319"/>
<stop offset="0.8819" stop-color="#8D080C"/>
<stop offset="1" stop-color="#660002"/>
</linearGradient>
<linearGradient id="paint10_linear_228_3455" x1="227.262" y1="34.5026" x2="237.568" y2="22.2084" gradientUnits="userSpaceOnUse">
<stop stop-color="#D5181E"/>
<stop offset="1" stop-color="#B51116"/>
</linearGradient>
<linearGradient id="paint11_linear_228_3455" x1="225.816" y1="78.9782" x2="233.771" y2="69.9383" gradientUnits="userSpaceOnUse">
<stop stop-color="#7B0507"/>
<stop offset="1" stop-color="#990A0F"/>
</linearGradient>
<linearGradient id="paint12_linear_228_3455" x1="170" y1="55" x2="170" y2="111" gradientUnits="userSpaceOnUse">
<stop stop-color="#D4192F"/>
<stop offset="1" stop-color="#5C0111"/>
</linearGradient>
<linearGradient id="paint13_linear_228_3455" x1="1.06698" y1="83.0002" x2="339.007" y2="83.0002" gradientUnits="userSpaceOnUse">
<stop stop-color="#DFB55A"/>
<stop offset="0.16" stop-color="#E4BF6E"/>
<stop offset="0.28" stop-color="#F1E29E"/>
<stop offset="0.46" stop-color="#E4C074"/>
<stop offset="0.59" stop-color="#F7F0AC"/>
<stop offset="0.77" stop-color="#DBC27D"/>
<stop offset="1" stop-color="#E7D393"/>
</linearGradient>
</defs>
</svg>
