<svg width="224" height="35" viewBox="0 0 224 35" fill="none" xmlns="http://www.w3.org/2000/svg">
<mask id="path-1-outside-1_228_3617" maskUnits="userSpaceOnUse" x="-1" y="-1" width="227" height="38" fill="black">
<rect fill="white" x="-1" y="-1" width="227" height="38"/>
<path d="M27.5745 24.354C27.5745 30.7847 23.5819 34 15.5965 34H0.597539V1.087H15.3845C19.3419 1.087 22.2569 1.79366 24.1295 3.207C26.0375 4.62033 26.9915 6.79333 26.9915 9.726C26.9915 12.6587 25.7549 14.92 23.2815 16.51V16.722C26.1435 18.0293 27.5745 20.5733 27.5745 24.354ZM13.4235 27.428C14.3775 27.428 15.0135 27.2337 15.3315 26.845C15.6495 26.421 15.8085 25.5553 15.8085 24.248C15.8085 22.9407 15.6319 22.022 15.2785 21.492C14.9605 20.9267 14.3422 20.644 13.4235 20.644H11.8865V27.428H13.4235ZM13.4765 14.814C14.1125 14.814 14.5719 14.602 14.8545 14.178C15.1725 13.754 15.3315 13.0297 15.3315 12.005C15.3315 10.945 15.1725 10.1853 14.8545 9.726C14.5719 9.26667 14.0949 9.037 13.4235 9.037H11.8865V14.814H13.4765ZM41.9628 34H30.7798V1.087H41.9628V34ZM61.0287 25.891C61.6647 25.891 62.5127 25.785 63.5727 25.573V22.393H60.9227V15.079H73.4307V34H65.4277L64.6327 32.304H64.4207C62.5834 33.788 60.4104 34.53 57.9017 34.53C49.6337 34.53 45.4997 28.9473 45.4997 17.782C45.4997 12.1993 46.6127 7.94167 48.8387 5.009C51.1001 2.041 54.8984 0.556998 60.2337 0.556998C64.1911 0.556998 67.9364 1.10466 71.4697 2.2L69.7207 12.164C65.7634 11.0687 62.9191 10.521 61.1877 10.521C59.4917 10.521 58.3611 11.0863 57.7957 12.217C57.2657 13.3477 57.0007 15.2733 57.0007 17.994C57.0007 20.7147 57.2481 22.711 57.7427 23.983C58.2727 25.255 59.3681 25.891 61.0287 25.891ZM124.747 1.087L121.249 34H108.635L106.144 20.644H105.72L103.6 34H90.9857L86.9047 1.087H97.2927L98.6177 16.192H99.0947L101.109 1.087H111.126L113.352 16.192H113.723L114.73 1.087H124.747ZM139.423 34H128.24V1.087H139.423V34ZM171.898 34H161.086L154.408 21.015H154.037V34H143.967V1.087H155.15L161.404 14.496H161.722V1.087H171.898V34ZM179.022 24.672L178.386 1.087H188.986L188.191 24.672H179.022ZM183.739 34.53C181.831 34.53 180.488 34.1943 179.711 33.523C178.934 32.8163 178.545 31.7387 178.545 30.29C178.545 28.8413 178.916 27.7813 179.658 27.11C180.435 26.4033 181.796 26.05 183.739 26.05C185.682 26.05 187.025 26.4033 187.767 27.11C188.509 27.7813 188.88 28.8413 188.88 30.29C188.88 31.7387 188.491 32.8163 187.714 33.523C186.972 34.1943 185.647 34.53 183.739 34.53ZM196.516 24.672L195.88 1.087H206.48L205.685 24.672H196.516ZM201.233 34.53C199.325 34.53 197.983 34.1943 197.205 33.523C196.428 32.8163 196.039 31.7387 196.039 30.29C196.039 28.8413 196.41 27.7813 197.152 27.11C197.93 26.4033 199.29 26.05 201.233 26.05C203.177 26.05 204.519 26.4033 205.261 27.11C206.003 27.7813 206.374 28.8413 206.374 30.29C206.374 31.7387 205.986 32.8163 205.208 33.523C204.466 34.1943 203.141 34.53 201.233 34.53ZM214.01 24.672L213.374 1.087H223.974L223.179 24.672H214.01ZM218.727 34.53C216.819 34.53 215.477 34.1943 214.699 33.523C213.922 32.8163 213.533 31.7387 213.533 30.29C213.533 28.8413 213.904 27.7813 214.646 27.11C215.424 26.4033 216.784 26.05 218.727 26.05C220.671 26.05 222.013 26.4033 222.755 27.11C223.497 27.7813 223.868 28.8413 223.868 30.29C223.868 31.7387 223.48 32.8163 222.702 33.523C221.96 34.1943 220.635 34.53 218.727 34.53Z"/>
</mask>
<path d="M27.5745 24.354C27.5745 30.7847 23.5819 34 15.5965 34H0.597539V1.087H15.3845C19.3419 1.087 22.2569 1.79366 24.1295 3.207C26.0375 4.62033 26.9915 6.79333 26.9915 9.726C26.9915 12.6587 25.7549 14.92 23.2815 16.51V16.722C26.1435 18.0293 27.5745 20.5733 27.5745 24.354ZM13.4235 27.428C14.3775 27.428 15.0135 27.2337 15.3315 26.845C15.6495 26.421 15.8085 25.5553 15.8085 24.248C15.8085 22.9407 15.6319 22.022 15.2785 21.492C14.9605 20.9267 14.3422 20.644 13.4235 20.644H11.8865V27.428H13.4235ZM13.4765 14.814C14.1125 14.814 14.5719 14.602 14.8545 14.178C15.1725 13.754 15.3315 13.0297 15.3315 12.005C15.3315 10.945 15.1725 10.1853 14.8545 9.726C14.5719 9.26667 14.0949 9.037 13.4235 9.037H11.8865V14.814H13.4765ZM41.9628 34H30.7798V1.087H41.9628V34ZM61.0287 25.891C61.6647 25.891 62.5127 25.785 63.5727 25.573V22.393H60.9227V15.079H73.4307V34H65.4277L64.6327 32.304H64.4207C62.5834 33.788 60.4104 34.53 57.9017 34.53C49.6337 34.53 45.4997 28.9473 45.4997 17.782C45.4997 12.1993 46.6127 7.94167 48.8387 5.009C51.1001 2.041 54.8984 0.556998 60.2337 0.556998C64.1911 0.556998 67.9364 1.10466 71.4697 2.2L69.7207 12.164C65.7634 11.0687 62.9191 10.521 61.1877 10.521C59.4917 10.521 58.3611 11.0863 57.7957 12.217C57.2657 13.3477 57.0007 15.2733 57.0007 17.994C57.0007 20.7147 57.2481 22.711 57.7427 23.983C58.2727 25.255 59.3681 25.891 61.0287 25.891ZM124.747 1.087L121.249 34H108.635L106.144 20.644H105.72L103.6 34H90.9857L86.9047 1.087H97.2927L98.6177 16.192H99.0947L101.109 1.087H111.126L113.352 16.192H113.723L114.73 1.087H124.747ZM139.423 34H128.24V1.087H139.423V34ZM171.898 34H161.086L154.408 21.015H154.037V34H143.967V1.087H155.15L161.404 14.496H161.722V1.087H171.898V34ZM179.022 24.672L178.386 1.087H188.986L188.191 24.672H179.022ZM183.739 34.53C181.831 34.53 180.488 34.1943 179.711 33.523C178.934 32.8163 178.545 31.7387 178.545 30.29C178.545 28.8413 178.916 27.7813 179.658 27.11C180.435 26.4033 181.796 26.05 183.739 26.05C185.682 26.05 187.025 26.4033 187.767 27.11C188.509 27.7813 188.88 28.8413 188.88 30.29C188.88 31.7387 188.491 32.8163 187.714 33.523C186.972 34.1943 185.647 34.53 183.739 34.53ZM196.516 24.672L195.88 1.087H206.48L205.685 24.672H196.516ZM201.233 34.53C199.325 34.53 197.983 34.1943 197.205 33.523C196.428 32.8163 196.039 31.7387 196.039 30.29C196.039 28.8413 196.41 27.7813 197.152 27.11C197.93 26.4033 199.29 26.05 201.233 26.05C203.177 26.05 204.519 26.4033 205.261 27.11C206.003 27.7813 206.374 28.8413 206.374 30.29C206.374 31.7387 205.986 32.8163 205.208 33.523C204.466 34.1943 203.141 34.53 201.233 34.53ZM214.01 24.672L213.374 1.087H223.974L223.179 24.672H214.01ZM218.727 34.53C216.819 34.53 215.477 34.1943 214.699 33.523C213.922 32.8163 213.533 31.7387 213.533 30.29C213.533 28.8413 213.904 27.7813 214.646 27.11C215.424 26.4033 216.784 26.05 218.727 26.05C220.671 26.05 222.013 26.4033 222.755 27.11C223.497 27.7813 223.868 28.8413 223.868 30.29C223.868 31.7387 223.48 32.8163 222.702 33.523C221.96 34.1943 220.635 34.53 218.727 34.53Z" fill="url(#paint0_linear_228_3617)"/>
<path d="M0.597539 34H-0.902461V35.5H0.597539V34ZM0.597539 1.087V-0.413003H-0.902461V1.087H0.597539ZM24.1295 3.207L23.2259 4.40433L23.2367 4.41233L24.1295 3.207ZM23.2815 16.51L22.4704 15.2482L21.7815 15.6911V16.51H23.2815ZM23.2815 16.722H21.7815V17.6859L22.6583 18.0864L23.2815 16.722ZM15.3315 26.845L16.4925 27.7949L16.5125 27.7703L16.5315 27.745L15.3315 26.845ZM15.2785 21.492L13.9712 22.2274L13.999 22.2768L14.0305 22.3241L15.2785 21.492ZM11.8865 20.644V19.144H10.3865V20.644H11.8865ZM11.8865 27.428H10.3865V28.928H11.8865V27.428ZM14.8545 14.178L13.6545 13.278L13.6296 13.3113L13.6065 13.3459L14.8545 14.178ZM14.8545 9.726L13.5771 10.5121L13.5982 10.5466L13.6213 10.5798L14.8545 9.726ZM11.8865 9.037V7.537H10.3865V9.037H11.8865ZM11.8865 14.814H10.3865V16.314H11.8865V14.814ZM26.0745 24.354C26.0745 27.2417 25.1941 29.1681 23.6392 30.4202C22.0223 31.7224 19.4272 32.5 15.5965 32.5V35.5C19.7512 35.5 23.1451 34.67 25.5209 32.7568C27.9587 30.7936 29.0745 27.897 29.0745 24.354H26.0745ZM15.5965 32.5H0.597539V35.5H15.5965V32.5ZM2.09754 34V1.087H-0.902461V34H2.09754ZM0.597539 2.587H15.3845V-0.413003H0.597539V2.587ZM15.3845 2.587C19.2187 2.587 21.7389 3.28197 23.2259 4.40428L25.0332 2.00972C22.7749 0.305359 19.4651 -0.413003 15.3845 -0.413003V2.587ZM23.2367 4.41233C24.6726 5.47595 25.4915 7.1439 25.4915 9.726H28.4915C28.4915 6.44277 27.4025 3.76472 25.0224 2.00166L23.2367 4.41233ZM25.4915 9.726C25.4915 12.1466 24.5158 13.9334 22.4704 15.2482L24.0927 17.7718C26.994 15.9066 28.4915 13.1707 28.4915 9.726H25.4915ZM21.7815 16.51V16.722H24.7815V16.51H21.7815ZM22.6583 18.0864C23.8242 18.619 24.6465 19.3727 25.1939 20.3459C25.7512 21.3366 26.0745 22.6472 26.0745 24.354H29.0745C29.0745 22.2802 28.6824 20.4284 27.8087 18.8751C26.9251 17.3043 25.6008 16.1323 23.9048 15.3576L22.6583 18.0864ZM13.4235 28.928C14.4558 28.928 15.7172 28.7425 16.4925 27.7949L14.1706 25.8951C14.2513 25.7965 14.3026 25.8096 14.1777 25.8477C14.0487 25.8871 13.8107 25.928 13.4235 25.928V28.928ZM16.5315 27.745C16.8926 27.2635 17.0675 26.6773 17.1646 26.1487C17.2664 25.5948 17.3085 24.9534 17.3085 24.248H14.3085C14.3085 24.85 14.2712 25.295 14.214 25.6068C14.1521 25.9438 14.0884 26.0025 14.1315 25.945L16.5315 27.745ZM17.3085 24.248C17.3085 22.8988 17.1439 21.5858 16.5266 20.6599L14.0305 22.3241C14.1199 22.4582 14.3085 22.9825 14.3085 24.248H17.3085ZM16.5859 20.7566C15.8981 19.5339 14.6319 19.144 13.4235 19.144V22.144C13.7392 22.144 13.8952 22.194 13.9527 22.2202C13.978 22.2318 13.9822 22.2377 13.9768 22.2328C13.9709 22.2274 13.9687 22.2231 13.9712 22.2274L16.5859 20.7566ZM13.4235 19.144H11.8865V22.144H13.4235V19.144ZM10.3865 20.644V27.428H13.3865V20.644H10.3865ZM11.8865 28.928H13.4235V25.928H11.8865V28.928ZM13.4765 16.314C14.473 16.314 15.4717 15.9565 16.1026 15.01L13.6065 13.3459C13.6087 13.3426 13.6173 13.331 13.6332 13.3174C13.6492 13.3037 13.6631 13.296 13.6695 13.2931C13.6807 13.2879 13.6316 13.314 13.4765 13.314V16.314ZM16.0545 15.078C16.6795 14.2447 16.8315 13.0966 16.8315 12.005H13.8315C13.8315 12.447 13.7966 12.77 13.7472 12.9951C13.6965 13.2259 13.6442 13.2918 13.6545 13.278L16.0545 15.078ZM16.8315 12.005C16.8315 10.8728 16.6766 9.72264 16.0878 8.87218L13.6213 10.5798C13.6685 10.648 13.8315 11.0172 13.8315 12.005H16.8315ZM16.132 8.93985C15.5073 7.92471 14.4689 7.537 13.4235 7.537V10.537C13.5925 10.537 13.6455 10.5662 13.6341 10.5608C13.6276 10.5576 13.6137 10.5495 13.5984 10.5356C13.5832 10.5219 13.5767 10.5116 13.5771 10.5121L16.132 8.93985ZM13.4235 7.537H11.8865V10.537H13.4235V7.537ZM10.3865 9.037V14.814H13.3865V9.037H10.3865ZM11.8865 16.314H13.4765V13.314H11.8865V16.314ZM41.9628 34V35.5H43.4628V34H41.9628ZM30.7798 34H29.2798V35.5H30.7798V34ZM30.7798 1.087V-0.413003H29.2798V1.087H30.7798ZM41.9628 1.087H43.4628V-0.413003H41.9628V1.087ZM41.9628 32.5H30.7798V35.5H41.9628V32.5ZM32.2798 34V1.087H29.2798V34H32.2798ZM30.7798 2.587H41.9628V-0.413003H30.7798V2.587ZM40.4628 1.087V34H43.4628V1.087H40.4628ZM63.5727 25.573L63.8669 27.0439L65.0727 26.8027V25.573H63.5727ZM63.5727 22.393H65.0727V20.893H63.5727V22.393ZM60.9227 22.393H59.4227V23.893H60.9227V22.393ZM60.9227 15.079V13.579H59.4227V15.079H60.9227ZM73.4307 15.079H74.9307V13.579H73.4307V15.079ZM73.4307 34V35.5H74.9307V34H73.4307ZM65.4277 34L64.0695 34.6367L64.4742 35.5H65.4277V34ZM64.6327 32.304L65.9909 31.6674L65.5862 30.804H64.6327V32.304ZM64.4207 32.304V30.804H63.8906L63.4782 31.1371L64.4207 32.304ZM48.8387 5.009L47.6456 4.09993L47.6439 4.1021L48.8387 5.009ZM71.4697 2.2L72.9471 2.45933L73.1755 1.15837L71.9139 0.767262L71.4697 2.2ZM69.7207 12.164L69.3206 13.6096L70.9126 14.0503L71.1981 12.4233L69.7207 12.164ZM57.7957 12.217L56.4541 11.5462L56.4456 11.5632L56.4375 11.5803L57.7957 12.217ZM57.7427 23.983L56.3447 24.5267L56.3512 24.5434L56.3581 24.5599L57.7427 23.983ZM61.0287 27.391C61.8084 27.391 62.7671 27.2638 63.8669 27.0439L63.2785 24.1021C62.2583 24.3062 61.5211 24.391 61.0287 24.391V27.391ZM65.0727 25.573V22.393H62.0727V25.573H65.0727ZM63.5727 20.893H60.9227V23.893H63.5727V20.893ZM62.4227 22.393V15.079H59.4227V22.393H62.4227ZM60.9227 16.579H73.4307V13.579H60.9227V16.579ZM71.9307 15.079V34H74.9307V15.079H71.9307ZM73.4307 32.5H65.4277V35.5H73.4307V32.5ZM66.7859 33.3633L65.9909 31.6674L63.2745 32.9407L64.0695 34.6367L66.7859 33.3633ZM64.6327 30.804H64.4207V33.804H64.6327V30.804ZM63.4782 31.1371C61.925 32.3916 60.0903 33.03 57.9017 33.03V36.03C60.7304 36.03 63.2417 35.1844 65.3632 33.4709L63.4782 31.1371ZM57.9017 33.03C54.1409 33.03 51.5341 31.7844 49.8057 29.4503C48.0148 27.0319 46.9997 23.2234 46.9997 17.782H43.9997C43.9997 23.5059 45.0516 28.0714 47.3947 31.2357C49.8004 34.4843 53.3945 36.03 57.9017 36.03V33.03ZM46.9997 17.782C46.9997 12.3666 48.0844 8.48376 50.0335 5.91589L47.6439 4.1021C45.141 7.39957 43.9997 12.0321 43.9997 17.782H46.9997ZM50.0319 5.91806C51.9018 3.46371 55.1545 2.057 60.2337 2.057V-0.943003C54.6423 -0.943003 50.2983 0.618281 47.6456 4.09993L50.0319 5.91806ZM60.2337 2.057C64.051 2.057 67.6458 2.585 71.0256 3.63273L71.9139 0.767262C68.227 -0.375666 64.3311 -0.943003 60.2337 -0.943003V2.057ZM69.9923 1.94067L68.2433 11.9047L71.1981 12.4233L72.9471 2.45933L69.9923 1.94067ZM70.1209 10.7184C66.1624 9.6227 63.143 9.021 61.1877 9.021V12.021C62.6951 12.021 65.3644 12.5146 69.3206 13.6096L70.1209 10.7184ZM61.1877 9.021C59.1501 9.021 57.3611 9.73223 56.4541 11.5462L59.1374 12.8878C59.3611 12.4404 59.8334 12.021 61.1877 12.021V9.021ZM56.4375 11.5803C55.7558 13.0347 55.5007 15.2532 55.5007 17.994H58.5007C58.5007 15.2935 58.7756 13.6606 59.1539 12.8537L56.4375 11.5803ZM55.5007 17.994C55.5007 20.7532 55.7444 22.983 56.3447 24.5267L59.1407 23.4393C58.7517 22.439 58.5007 20.6761 58.5007 17.994H55.5007ZM56.3581 24.5599C56.7374 25.4703 57.352 26.2138 58.2085 26.7112C59.0455 27.1972 60.0139 27.391 61.0287 27.391V24.391C60.3829 24.391 59.9733 24.2668 59.7149 24.1168C59.4761 23.9782 59.278 23.7677 59.1273 23.4061L56.3581 24.5599ZM124.747 1.087L126.238 1.24552L126.415 -0.413003H124.747V1.087ZM121.249 34V35.5H122.598L122.74 34.1585L121.249 34ZM108.635 34L107.16 34.275L107.389 35.5H108.635V34ZM106.144 20.644L107.618 20.369L107.39 19.144H106.144V20.644ZM105.72 20.644V19.144H104.439L104.238 20.4088L105.72 20.644ZM103.6 34V35.5H104.88L105.081 34.2352L103.6 34ZM90.9857 34L89.4971 34.1846L89.6602 35.5H90.9857V34ZM86.9047 1.087V-0.413003H85.2073L85.4161 1.27157L86.9047 1.087ZM97.2927 1.087L98.787 0.955921L98.6669 -0.413003H97.2927V1.087ZM98.6177 16.192L97.1235 16.3231L97.2435 17.692H98.6177V16.192ZM99.0947 16.192V17.692H100.408L100.582 16.3902L99.0947 16.192ZM101.109 1.087V-0.413003H99.7955L99.6219 0.888752L101.109 1.087ZM111.126 1.087L112.61 0.868306L112.421 -0.413003H111.126V1.087ZM113.352 16.192L111.868 16.4107L112.057 17.692H113.352V16.192ZM113.723 16.192V17.692H115.126L115.219 16.2918L113.723 16.192ZM114.73 1.087V-0.413003H113.326L113.233 0.987219L114.73 1.087ZM123.255 0.92847L119.757 33.8415L122.74 34.1585L126.238 1.24552L123.255 0.92847ZM121.249 32.5H108.635V35.5H121.249V32.5ZM110.109 33.725L107.618 20.369L104.669 20.919L107.16 34.275L110.109 33.725ZM106.144 19.144H105.72V22.144H106.144V19.144ZM104.238 20.4088L102.118 33.7648L105.081 34.2352L107.201 20.8792L104.238 20.4088ZM103.6 32.5H90.9857V35.5H103.6V32.5ZM92.4743 33.8154L88.3933 0.90242L85.4161 1.27157L89.4971 34.1846L92.4743 33.8154ZM86.9047 2.587H97.2927V-0.413003H86.9047V2.587ZM95.7985 1.21807L97.1235 16.3231L100.112 16.0609L98.787 0.955921L95.7985 1.21807ZM98.6177 17.692H99.0947V14.692H98.6177V17.692ZM100.582 16.3902L102.596 1.28524L99.6219 0.888752L97.6079 15.9938L100.582 16.3902ZM101.109 2.587H111.126V-0.413003H101.109V2.587ZM109.642 1.30569L111.868 16.4107L114.836 15.9733L112.61 0.868306L109.642 1.30569ZM113.352 17.692H113.723V14.692H113.352V17.692ZM115.219 16.2918L116.226 1.18678L113.233 0.987219L112.226 16.0922L115.219 16.2918ZM114.73 2.587H124.747V-0.413003H114.73V2.587ZM139.423 34V35.5H140.923V34H139.423ZM128.24 34H126.74V35.5H128.24V34ZM128.24 1.087V-0.413003H126.74V1.087H128.24ZM139.423 1.087H140.923V-0.413003H139.423V1.087ZM139.423 32.5H128.24V35.5H139.423V32.5ZM129.74 34V1.087H126.74V34H129.74ZM128.24 2.587H139.423V-0.413003H128.24V2.587ZM137.923 1.087V34H140.923V1.087H137.923ZM171.898 34V35.5H173.398V34H171.898ZM161.086 34L159.752 34.686L160.17 35.5H161.086V34ZM154.408 21.015L155.742 20.329L155.323 19.515H154.408V21.015ZM154.037 21.015V19.515H152.537V21.015H154.037ZM154.037 34V35.5H155.537V34H154.037ZM143.967 34H142.467V35.5H143.967V34ZM143.967 1.087V-0.413003H142.467V1.087H143.967ZM155.15 1.087L156.509 0.452963L156.105 -0.413003H155.15V1.087ZM161.404 14.496L160.044 15.13L160.448 15.996H161.404V14.496ZM161.722 14.496V15.996H163.222V14.496H161.722ZM161.722 1.087V-0.413003H160.222V1.087H161.722ZM171.898 1.087H173.398V-0.413003H171.898V1.087ZM171.898 32.5H161.086V35.5H171.898V32.5ZM162.42 33.314L155.742 20.329L153.074 21.701L159.752 34.686L162.42 33.314ZM154.408 19.515H154.037V22.515H154.408V19.515ZM152.537 21.015V34H155.537V21.015H152.537ZM154.037 32.5H143.967V35.5H154.037V32.5ZM145.467 34V1.087H142.467V34H145.467ZM143.967 2.587H155.15V-0.413003H143.967V2.587ZM153.79 1.72103L160.044 15.13L162.763 13.862L156.509 0.452963L153.79 1.72103ZM161.404 15.996H161.722V12.996H161.404V15.996ZM163.222 14.496V1.087H160.222V14.496H163.222ZM161.722 2.587H171.898V-0.413003H161.722V2.587ZM170.398 1.087V34H173.398V1.087H170.398ZM179.022 24.672L177.523 24.7124L177.562 26.172H179.022V24.672ZM178.386 1.087V-0.413003H176.845L176.887 1.12743L178.386 1.087ZM188.986 1.087L190.485 1.13753L190.537 -0.413003H188.986V1.087ZM188.191 24.672V26.172H189.641L189.69 24.7225L188.191 24.672ZM179.711 33.523L178.702 34.6329L178.716 34.6458L178.731 34.6582L179.711 33.523ZM179.658 27.11L180.664 28.2223L180.667 28.2199L179.658 27.11ZM187.767 27.11L186.733 28.1962L186.746 28.2094L186.761 28.2223L187.767 27.11ZM187.714 33.523L188.72 34.6353L188.723 34.6329L187.714 33.523ZM180.521 24.6316L179.885 1.04656L176.887 1.12743L177.523 24.7124L180.521 24.6316ZM178.386 2.587H188.986V-0.413003H178.386V2.587ZM187.487 1.03646L186.692 24.6215L189.69 24.7225L190.485 1.13753L187.487 1.03646ZM188.191 23.172H179.022V26.172H188.191V23.172ZM183.739 33.03C181.919 33.03 181.044 32.6922 180.691 32.3878L178.731 34.6582C179.933 35.6965 181.743 36.03 183.739 36.03V33.03ZM180.72 32.4131C180.36 32.0859 180.045 31.482 180.045 30.29H177.045C177.045 31.9953 177.507 33.5468 178.702 34.6329L180.72 32.4131ZM180.045 30.29C180.045 29.072 180.356 28.5013 180.664 28.2223L178.652 25.9977C177.476 27.0613 177.045 28.6107 177.045 30.29H180.045ZM180.667 28.2199C181.014 27.9049 181.887 27.55 183.739 27.55V24.55C181.705 24.55 179.857 24.9018 178.649 26.0001L180.667 28.2199ZM183.739 27.55C185.603 27.55 186.432 27.9096 186.733 28.1962L188.802 26.0238C187.618 24.8971 185.762 24.55 183.739 24.55V27.55ZM186.761 28.2223C187.069 28.5013 187.38 29.072 187.38 30.29H190.38C190.38 28.6107 189.949 27.0613 188.773 25.9977L186.761 28.2223ZM187.38 30.29C187.38 31.482 187.065 32.0859 186.705 32.4131L188.723 34.6329C189.918 33.5468 190.38 31.9953 190.38 30.29H187.38ZM186.708 32.4107C186.402 32.6876 185.571 33.03 183.739 33.03V36.03C185.723 36.03 187.542 35.7011 188.72 34.6353L186.708 32.4107ZM196.516 24.672L195.017 24.7124L195.056 26.172H196.516V24.672ZM195.88 1.087V-0.413003H194.339L194.381 1.12743L195.88 1.087ZM206.48 1.087L207.979 1.13753L208.032 -0.413003H206.48V1.087ZM205.685 24.672V26.172H207.135L207.184 24.7225L205.685 24.672ZM197.205 33.523L196.196 34.6329L196.21 34.6458L196.225 34.6582L197.205 33.523ZM197.152 27.11L198.159 28.2223L198.161 28.2199L197.152 27.11ZM205.261 27.11L204.227 28.1962L204.241 28.2094L204.255 28.2223L205.261 27.11ZM205.208 33.523L206.215 34.6353L206.217 34.6329L205.208 33.523ZM198.016 24.6316L197.38 1.04656L194.381 1.12743L195.017 24.7124L198.016 24.6316ZM195.88 2.587H206.48V-0.413003H195.88V2.587ZM204.981 1.03646L204.186 24.6215L207.184 24.7225L207.979 1.13753L204.981 1.03646ZM205.685 23.172H196.516V26.172H205.685V23.172ZM201.233 33.03C199.413 33.03 198.538 32.6922 198.186 32.3878L196.225 34.6582C197.427 35.6965 199.237 36.03 201.233 36.03V33.03ZM198.214 32.4131C197.854 32.0859 197.539 31.482 197.539 30.29H194.539C194.539 31.9953 195.001 33.5468 196.196 34.6329L198.214 32.4131ZM197.539 30.29C197.539 29.072 197.85 28.5013 198.159 28.2223L196.146 25.9977C194.97 27.0613 194.539 28.6107 194.539 30.29H197.539ZM198.161 28.2199C198.508 27.9049 199.381 27.55 201.233 27.55V24.55C199.199 24.55 197.351 24.9018 196.143 26.0001L198.161 28.2199ZM201.233 27.55C203.097 27.55 203.926 27.9096 204.227 28.1962L206.296 26.0238C205.113 24.8971 203.256 24.55 201.233 24.55V27.55ZM204.255 28.2223C204.563 28.5013 204.874 29.072 204.874 30.29H207.874C207.874 28.6107 207.443 27.0613 206.268 25.9977L204.255 28.2223ZM204.874 30.29C204.874 31.482 204.559 32.0859 204.199 32.4131L206.217 34.6329C207.412 33.5468 207.874 31.9953 207.874 30.29H204.874ZM204.202 32.4107C203.896 32.6876 203.065 33.03 201.233 33.03V36.03C203.218 36.03 205.037 35.7011 206.215 34.6353L204.202 32.4107ZM214.01 24.672L212.511 24.7124L212.55 26.172H214.01V24.672ZM213.374 1.087V-0.413003H211.833L211.875 1.12743L213.374 1.087ZM223.974 1.087L225.473 1.13753L225.526 -0.413003H223.974V1.087ZM223.179 24.672V26.172H224.63L224.678 24.7225L223.179 24.672ZM214.699 33.523L213.69 34.6329L213.704 34.6458L213.719 34.6582L214.699 33.523ZM214.646 27.11L215.653 28.2223L215.655 28.2199L214.646 27.11ZM222.755 27.11L221.721 28.1962L221.735 28.2094L221.749 28.2223L222.755 27.11ZM222.702 33.523L223.709 34.6353L223.711 34.6329L222.702 33.523ZM215.51 24.6316L214.874 1.04656L211.875 1.12743L212.511 24.7124L215.51 24.6316ZM213.374 2.587H223.974V-0.413003H213.374V2.587ZM222.475 1.03646L221.68 24.6215L224.678 24.7225L225.473 1.13753L222.475 1.03646ZM223.179 23.172H214.01V26.172H223.179V23.172ZM218.727 33.03C216.907 33.03 216.032 32.6922 215.68 32.3878L213.719 34.6582C214.921 35.6965 216.732 36.03 218.727 36.03V33.03ZM215.708 32.4131C215.348 32.0859 215.033 31.482 215.033 30.29H212.033C212.033 31.9953 212.496 33.5468 213.69 34.6329L215.708 32.4131ZM215.033 30.29C215.033 29.072 215.344 28.5013 215.653 28.2223L213.64 25.9977C212.464 27.0613 212.033 28.6107 212.033 30.29H215.033ZM215.655 28.2199C216.002 27.9049 216.875 27.55 218.727 27.55V24.55C216.693 24.55 214.845 24.9018 213.637 26.0001L215.655 28.2199ZM218.727 27.55C220.591 27.55 221.42 27.9096 221.721 28.1962L223.79 26.0238C222.607 24.8971 220.75 24.55 218.727 24.55V27.55ZM221.749 28.2223C222.057 28.5013 222.368 29.072 222.368 30.29H225.368C225.368 28.6107 224.937 27.0613 223.762 25.9977L221.749 28.2223ZM222.368 30.29C222.368 31.482 222.053 32.0859 221.693 32.4131L223.711 34.6329C224.906 33.5468 225.368 31.9953 225.368 30.29H222.368ZM221.696 32.4107C221.39 32.6876 220.559 33.03 218.727 33.03V36.03C220.712 36.03 222.531 35.7011 223.709 34.6353L221.696 32.4107Z" fill="url(#paint1_linear_228_3617)" mask="url(#path-1-outside-1_228_3617)"/>
<defs>
<linearGradient id="paint0_linear_228_3617" x1="112.5" y1="-10" x2="112.5" y2="48" gradientUnits="userSpaceOnUse">
<stop stop-color="#006528"/>
<stop offset="0.522254" stop-color="#41CF00"/>
<stop offset="1" stop-color="#006528"/>
</linearGradient>
<linearGradient id="paint1_linear_228_3617" x1="112.5" y1="-10" x2="112.5" y2="48" gradientUnits="userSpaceOnUse">
<stop stop-color="#CD7C2E"/>
<stop offset="0.171875" stop-color="#D88A6A"/>
<stop offset="0.520841" stop-color="#FFFD9E"/>
<stop offset="0.838557" stop-color="#D88A6A"/>
<stop offset="1" stop-color="#CD7C2E"/>
</linearGradient>
</defs>
</svg>
